<svg width="27" height="26" viewBox="0 0 27 26" fill="none" xmlns="http://www.w3.org/2000/svg">
<path d="M3.06228 23.0811C3.22696 23.171 7.14595 25.2813 11.5 25.2813C16.2172 25.2813 19.8003 23.1639 19.9505 23.0738C20.0037 23.0419 20.0478 22.9967 20.0784 22.9427C20.1089 22.8887 20.125 22.8277 20.125 22.7657C20.125 19.864 19.2352 17.2088 17.6197 15.2888C16.4895 13.9456 15.0715 13.0301 13.5076 12.6086C14.4649 12.153 15.2388 11.3854 15.7022 10.4317C16.1655 9.4781 16.2907 8.39523 16.0571 7.36104C15.8236 6.32685 15.2452 5.40284 14.4171 4.74084C13.5889 4.07884 12.5602 3.71822 11.5 3.71822C10.4398 3.71822 9.41107 4.07884 8.58291 4.74084C7.75475 5.40284 7.1764 6.32685 6.94287 7.36104C6.70933 8.39523 6.83452 9.4781 7.29784 10.4317C7.76117 11.3854 8.53509 12.153 9.49244 12.6086C7.92849 13.0301 6.51048 13.9457 5.38034 15.2888C3.76477 17.2088 2.875 19.864 2.875 22.7657C2.875 22.8302 2.89239 22.8936 2.92535 22.9491C2.9583 23.0046 3.0056 23.0502 3.06228 23.0811V23.0811ZM7.54688 8.39065C7.54688 7.6088 7.77872 6.8445 8.2131 6.19441C8.64747 5.54432 9.26487 5.03764 9.9872 4.73844C10.7095 4.43924 11.5044 4.36095 12.2712 4.51348C13.038 4.66602 13.7424 5.04252 14.2953 5.59537C14.8481 6.14822 15.2246 6.8526 15.3772 7.61944C15.5297 8.38627 15.4514 9.18111 15.1522 9.90345C14.853 10.6258 14.3463 11.2432 13.6962 11.6776C13.0461 12.1119 12.2819 12.3438 11.5 12.3438C10.4519 12.3426 9.44713 11.9257 8.70603 11.1846C7.96493 10.4435 7.54806 9.43872 7.54688 8.39065V8.39065ZM5.93027 15.7515C7.38965 14.0175 9.36747 13.0625 11.5 13.0625C13.6325 13.0625 15.6104 14.0175 17.0697 15.7515C18.5378 17.4962 19.3633 19.9059 19.4046 22.556C18.6356 22.9723 15.44 24.5625 11.5 24.5625C7.85639 24.5625 4.4248 22.9629 3.59555 22.5475C3.63867 19.9007 4.46375 17.4943 5.93027 15.7515Z" fill="black"/>
<path d="M26.8387 4.03226H26.0806C25.9777 3.59627 25.8049 3.1798 25.5689 2.79903L26.1052 2.26274C26.1681 2.19976 26.1681 2.09766 26.1052 2.03468L24.9653 0.894194C24.9023 0.83123 24.8002 0.83123 24.7373 0.894194L24.2008 1.43048C23.8201 1.19466 23.4037 1.02204 22.9677 0.919355V0.16129C22.9677 0.0722177 22.8955 0 22.8065 0H21.1935C21.1045 0 21.0323 0.0722177 21.0323 0.16129V0.919355C20.5963 1.02224 20.1799 1.19506 19.7992 1.43113L19.2627 0.894194C19.1998 0.83123 19.0977 0.83123 19.0347 0.894194L17.8942 2.03468C17.8312 2.09766 17.8312 2.19976 17.8942 2.26274L18.4305 2.79903C18.1947 3.17984 18.0221 3.59631 17.9194 4.03226H17.1613C17.0722 4.03226 17 4.10448 17 4.19355V5.80645C17 5.89552 17.0722 5.96774 17.1613 5.96774H17.9194C18.0223 6.40373 18.1951 6.8202 18.4311 7.20097L17.8942 7.73726C17.8312 7.80024 17.8312 7.90234 17.8942 7.96532L19.0347 9.10581C19.0987 9.16631 19.1987 9.16631 19.2627 9.10581L19.799 8.56952C20.1798 8.8053 20.5963 8.9779 21.0323 9.08064V9.83871C21.0323 9.92778 21.1045 10 21.1935 10H22.8065C22.8955 10 22.9677 9.92778 22.9677 9.83871V9.08064C23.4037 8.9777 23.8202 8.80488 24.201 8.56887L24.7373 9.10516C24.8002 9.16812 24.9023 9.16812 24.9653 9.10516L26.1058 7.96468C26.1688 7.90169 26.1688 7.7996 26.1058 7.73661L25.5695 7.20032C25.8052 6.81972 25.9778 6.40347 26.0806 5.96774H26.8387C26.9278 5.96774 27 5.89552 27 5.80645V4.19355C27 4.10448 26.9278 4.03226 26.8387 4.03226ZM26.6774 5.64516H25.9516C25.875 5.64514 25.8089 5.69909 25.7935 5.77419C25.695 6.25964 25.5033 6.72139 25.229 7.13387C25.1866 7.19782 25.1951 7.28282 25.2494 7.3371L25.7635 7.85113L24.8511 8.76355L24.3371 8.24935C24.2828 8.19508 24.1978 8.18659 24.1339 8.22903C23.7214 8.50333 23.2596 8.69502 22.7742 8.79355C22.6991 8.80887 22.6451 8.87496 22.6452 8.95161V9.67742H21.3548V8.95161C21.3549 8.87496 21.3009 8.80887 21.2258 8.79355C20.7404 8.69502 20.2786 8.50333 19.8661 8.22903C19.8022 8.18659 19.7172 8.19508 19.6629 8.24935L19.1489 8.76355L18.2363 7.85129L18.7505 7.33726C18.8048 7.28298 18.8132 7.19798 18.7708 7.13403C18.4965 6.72155 18.3048 6.2598 18.2063 5.77435C18.191 5.69923 18.125 5.64524 18.0484 5.64516H17.3226V4.35484H18.0484C18.125 4.35486 18.1911 4.30091 18.2065 4.22581C18.305 3.74036 18.4967 3.27861 18.771 2.86613C18.8134 2.80218 18.8049 2.71718 18.7506 2.6629L18.2363 2.14871L19.1487 1.23629L19.6629 1.75048C19.7172 1.80476 19.8022 1.81325 19.8661 1.77081C20.2786 1.49657 20.7403 1.30486 21.2256 1.20629C21.3008 1.19103 21.3548 1.12504 21.3548 1.04839V0.322581H22.6452V1.04839C22.6451 1.12504 22.6991 1.19113 22.7742 1.20645C23.2596 1.30502 23.7213 1.49673 24.1337 1.77097C24.1977 1.81341 24.2827 1.80492 24.3369 1.75065L24.8511 1.23645L25.7635 2.14887L25.2494 2.6629C25.1951 2.71718 25.1866 2.80218 25.229 2.86613C25.5033 3.27861 25.695 3.74036 25.7935 4.22581C25.8089 4.30091 25.875 4.35486 25.9516 4.35484H26.6774V5.64516Z" fill="black"/>
<path d="M22 3.2258C21.0202 3.2258 20.2258 4.02013 20.2258 4.99999C20.2258 5.97985 21.0202 6.77419 22 6.77419C22.9799 6.77419 23.7742 5.97985 23.7742 4.99999C23.7731 4.02062 22.9794 3.22695 22 3.2258ZM22 6.45161C21.1983 6.45161 20.5484 5.80169 20.5484 4.99999C20.5484 4.19828 21.1983 3.54838 22 3.54838C22.8017 3.54838 23.4516 4.19828 23.4516 4.99999C23.4507 5.80132 22.8014 6.45072 22 6.45161Z" fill="black"/>
</svg>
