<svg width="232" height="161" viewBox="0 0 232 161" fill="none" xmlns="http://www.w3.org/2000/svg">
<rect width="231.525" height="160.865" rx="15" fill="#150B00"/>
<path d="M89.824 119.52H84.96L84.064 122H82.528L86.56 110.912H88.24L92.256 122H90.72L89.824 119.52ZM89.408 118.336L87.392 112.704L85.376 118.336H89.408ZM104.557 113.072C105.24 113.072 105.848 113.216 106.381 113.504C106.915 113.781 107.336 114.203 107.645 114.768C107.955 115.333 108.109 116.021 108.109 116.832V122H106.669V117.04C106.669 116.165 106.451 115.499 106.013 115.04C105.587 114.571 105.005 114.336 104.269 114.336C103.512 114.336 102.909 114.581 102.461 115.072C102.013 115.552 101.789 116.251 101.789 117.168V122H100.349V117.04C100.349 116.165 100.131 115.499 99.6933 115.04C99.2666 114.571 98.6853 114.336 97.9493 114.336C97.1919 114.336 96.5893 114.581 96.1413 115.072C95.6933 115.552 95.4693 116.251 95.4693 117.168V122H94.0133V113.232H95.4693V114.496C95.7573 114.037 96.1413 113.685 96.6213 113.44C97.1119 113.195 97.6506 113.072 98.2373 113.072C98.9733 113.072 99.6239 113.237 100.189 113.568C100.755 113.899 101.176 114.384 101.453 115.024C101.699 114.405 102.104 113.925 102.669 113.584C103.235 113.243 103.864 113.072 104.557 113.072ZM109.954 117.584C109.954 116.688 110.135 115.904 110.498 115.232C110.86 114.549 111.356 114.021 111.986 113.648C112.626 113.275 113.335 113.088 114.114 113.088C114.882 113.088 115.548 113.253 116.114 113.584C116.679 113.915 117.1 114.331 117.378 114.832V113.232H118.85V122H117.378V120.368C117.09 120.88 116.658 121.307 116.082 121.648C115.516 121.979 114.855 122.144 114.098 122.144C113.319 122.144 112.615 121.952 111.986 121.568C111.356 121.184 110.86 120.645 110.498 119.952C110.135 119.259 109.954 118.469 109.954 117.584ZM117.378 117.6C117.378 116.939 117.244 116.363 116.978 115.872C116.711 115.381 116.348 115.008 115.89 114.752C115.442 114.485 114.946 114.352 114.402 114.352C113.858 114.352 113.362 114.48 112.914 114.736C112.466 114.992 112.108 115.365 111.842 115.856C111.575 116.347 111.442 116.923 111.442 117.584C111.442 118.256 111.575 118.843 111.842 119.344C112.108 119.835 112.466 120.213 112.914 120.48C113.362 120.736 113.858 120.864 114.402 120.864C114.946 120.864 115.442 120.736 115.89 120.48C116.348 120.213 116.711 119.835 116.978 119.344C117.244 118.843 117.378 118.261 117.378 117.6ZM122.398 120.8H126.702V122H120.734V120.8L124.99 114.416H120.766V113.232H126.67V114.416L122.398 120.8ZM132.415 122.144C131.594 122.144 130.847 121.957 130.175 121.584C129.514 121.211 128.991 120.683 128.607 120C128.234 119.307 128.047 118.507 128.047 117.6C128.047 116.704 128.239 115.915 128.623 115.232C129.018 114.539 129.551 114.011 130.223 113.648C130.895 113.275 131.647 113.088 132.479 113.088C133.311 113.088 134.063 113.275 134.735 113.648C135.407 114.011 135.935 114.533 136.319 115.216C136.714 115.899 136.911 116.693 136.911 117.6C136.911 118.507 136.709 119.307 136.303 120C135.909 120.683 135.37 121.211 134.687 121.584C134.005 121.957 133.247 122.144 132.415 122.144ZM132.415 120.864C132.938 120.864 133.429 120.741 133.887 120.496C134.346 120.251 134.714 119.883 134.991 119.392C135.279 118.901 135.423 118.304 135.423 117.6C135.423 116.896 135.285 116.299 135.007 115.808C134.73 115.317 134.367 114.955 133.919 114.72C133.471 114.475 132.986 114.352 132.463 114.352C131.93 114.352 131.439 114.475 130.991 114.72C130.554 114.955 130.202 115.317 129.935 115.808C129.669 116.299 129.535 116.896 129.535 117.6C129.535 118.315 129.663 118.917 129.919 119.408C130.186 119.899 130.538 120.267 130.975 120.512C131.413 120.747 131.893 120.864 132.415 120.864ZM143.098 113.072C144.164 113.072 145.028 113.397 145.69 114.048C146.351 114.688 146.682 115.616 146.682 116.832V122H145.242V117.04C145.242 116.165 145.023 115.499 144.586 115.04C144.148 114.571 143.551 114.336 142.794 114.336C142.026 114.336 141.412 114.576 140.954 115.056C140.506 115.536 140.282 116.235 140.282 117.152V122H138.826V113.232H140.282V114.48C140.57 114.032 140.959 113.685 141.45 113.44C141.951 113.195 142.5 113.072 143.098 113.072Z" fill="white"/>
<path d="M136.84 92.1711C136.343 91.555 132.062 91.0245 129.451 92.8579C129.053 93.1389 129.118 93.5279 129.566 93.4758C131.035 93.3027 134.311 92.91 134.891 93.6545C135.474 94.4009 134.242 97.4831 133.689 98.8568C133.52 99.2737 133.881 99.4412 134.257 99.1285C136.712 97.0848 137.341 92.7927 136.84 92.1711Z" fill="#FF8000"/>
<path d="M132.333 94.7546C127.219 96.9267 121.655 97.9728 116.592 97.9728C109.097 97.9728 101.833 95.9198 95.964 92.5025C95.4521 92.2009 95.0706 92.7277 95.4968 93.113C100.937 98.0286 108.127 100.984 116.114 100.984C121.813 100.984 128.426 99.1919 132.994 95.8267C133.748 95.2683 133.106 94.4307 132.333 94.7546Z" fill="#FF8000"/>
<path d="M134.146 83.1175C132.611 80.9854 130.986 79.2643 130.986 75.3405V62.2655C130.986 56.7362 131.378 51.65 127.3 47.8354C124.076 44.7464 118.746 43.6611 114.655 43.6611C106.679 43.6611 97.7783 46.6345 95.8966 56.4986C95.704 57.5518 96.4746 58.1041 97.1425 58.2582L105.298 59.1316C106.043 59.0994 106.602 58.3545 106.75 57.5967C107.437 54.1995 110.301 52.5619 113.499 52.5619C115.22 52.5619 117.172 53.1977 118.2 54.7454C119.369 56.4665 119.208 58.8297 119.208 60.8205V61.8994C114.353 62.4645 107.996 62.8177 103.436 64.8214C98.1957 67.0755 94.4902 71.7121 94.4902 78.5193C94.4902 87.2339 99.9874 91.5944 107.045 91.5944C113.017 91.5944 116.28 90.188 120.878 85.4936C122.4 87.7027 122.901 88.7816 125.688 91.0935C126.317 91.4274 127.114 91.3889 127.672 90.9008L127.698 90.9137C129.368 89.4366 132.405 86.7715 134.126 85.3459C134.807 84.7679 134.691 83.8688 134.146 83.1175ZM119.208 70.4342C119.208 73.7029 119.298 76.4258 117.641 79.3285C116.312 81.6918 114.199 83.1367 111.836 83.1367C108.618 83.1367 106.75 80.69 106.75 77.0616C106.75 69.914 113.152 68.6167 119.208 68.6167V70.4342Z" fill="#FFFBF7"/>
<path d="M201.958 11.4038C201.772 11.1461 201.468 11.0312 201.19 11.0312C200.799 11.0312 200.434 11.232 200.272 11.6625C200.086 11.2325 199.826 11.0312 199.411 11.0312C199.002 11.0312 198.698 11.232 198.536 11.6625H198.525V11.2173C198.521 11.1558 198.469 11.106 198.405 11.1034H197.786C197.715 11.1034 197.658 11.1578 197.658 11.2259V14.6331C197.662 14.6941 197.713 14.7414 197.777 14.7455H198.441C198.511 14.7455 198.568 14.6901 198.568 14.6225V12.8157C198.568 12.4218 198.549 11.8765 199.026 11.8765C199.497 11.8765 199.436 12.4355 199.436 12.8157V14.622C199.436 14.6875 199.489 14.7399 199.556 14.745H200.219C200.29 14.745 200.347 14.6896 200.347 14.622V12.8157C200.347 12.622 200.341 12.3344 200.408 12.1626C200.476 11.9908 200.645 11.8836 200.805 11.8836C200.998 11.8836 201.146 11.9481 201.195 12.1768C201.227 12.3135 201.214 12.6718 201.214 12.8157V14.622C201.214 14.6875 201.268 14.7399 201.334 14.745H201.997C202.068 14.745 202.125 14.6896 202.125 14.622L202.126 12.4721C202.126 12.1067 202.168 11.6904 201.958 11.4038Z" fill="#FFFBF7"/>
<path d="M210.708 11.032C209.747 11.032 209.215 11.8569 209.215 12.917C209.215 13.9711 209.741 14.8168 210.708 14.8168C211.637 14.8168 212.226 13.9925 212.226 12.9531C212.229 11.8777 211.694 11.032 210.708 11.032ZM210.708 14.1145C210.187 14.1145 210.193 13.2255 210.193 12.8093C210.193 12.3941 210.225 11.7273 210.713 11.7273C210.923 11.7273 211.073 11.8198 211.147 12.0571C211.234 12.3295 211.247 12.6731 211.247 12.9607C211.249 13.3978 211.224 14.1145 210.708 14.1145Z" fill="#FFFBF7"/>
<path d="M205.842 14.1226C205.721 13.9539 205.593 13.8177 205.593 13.5071V12.4724C205.593 12.0348 205.623 11.6322 205.301 11.3304C205.046 11.0859 204.624 11 204.301 11C203.67 11 202.964 11.2353 202.816 12.016C202.801 12.0993 202.86 12.143 202.915 12.1552L203.558 12.2243C203.618 12.2218 203.662 12.1629 203.674 12.1029C203.729 11.834 203.955 11.7044 204.208 11.7044C204.345 11.7044 204.5 11.7547 204.579 11.8772C204.673 12.0134 204.661 12.2005 204.661 12.358L204.66 12.4424C204.275 12.4866 203.772 12.5146 203.412 12.6731C202.996 12.8525 202.704 13.2195 202.704 13.7582C202.704 14.4479 203.139 14.793 203.697 14.793C204.169 14.793 204.428 14.6817 204.792 14.3102C204.912 14.485 204.952 14.5704 205.172 14.7533C205.223 14.7798 205.286 14.7767 205.33 14.7381L205.331 14.7391C205.464 14.6222 205.704 14.4113 205.839 14.2985C205.893 14.2543 205.885 14.1821 205.842 14.1226ZM204.66 13.1188C204.66 13.3775 204.667 13.593 204.536 13.8228C204.431 14.0098 204.263 14.1241 204.078 14.1241C203.822 14.1241 203.673 13.9305 203.673 13.6434C203.673 13.0777 204.18 12.975 204.66 12.975V13.1188Z" fill="#FFFBF7"/>
<path d="M215.278 11.4325C215.091 11.1388 214.799 11.031 214.502 11.0305C214.044 11.0305 213.782 11.2526 213.597 11.7187H213.587V11.1977C213.574 11.1444 213.525 11.1047 213.468 11.1022H212.852C212.785 11.1022 212.73 11.151 212.724 11.2135L212.725 14.6217C212.725 14.6873 212.777 14.7407 212.845 14.7457H213.505C213.577 14.7457 213.634 14.6903 213.635 14.6217V12.788C213.635 12.5578 213.647 12.3509 213.742 12.1425C213.815 11.9784 213.963 11.8701 214.126 11.8701C214.583 11.8701 214.54 12.4155 214.54 12.788V14.6385C214.545 14.6959 214.597 14.7407 214.656 14.7463H215.323C215.389 14.7463 215.443 14.698 215.452 14.6385V12.4937C215.452 12.1639 215.452 11.706 215.278 11.4325Z" fill="#FFFBF7"/>
<path d="M208.783 13.823C208.402 13.6085 207.96 13.5455 207.539 13.5561L208.671 11.942C208.775 11.7966 208.835 11.7056 208.835 11.6355V11.2182C208.835 11.145 208.779 11.0947 208.709 11.0947H206.527C206.459 11.0947 206.404 11.144 206.404 11.2182V11.7056C206.404 11.7783 206.459 11.8281 206.53 11.8281H207.67L206.36 13.7066C206.281 13.827 206.28 13.9622 206.28 14.0415V14.536C206.28 14.6072 206.361 14.689 206.436 14.6473C207.178 14.2534 208.069 14.2926 208.74 14.6443C208.823 14.687 208.9 14.6036 208.9 14.5325V14.012C208.893 13.9424 208.87 13.8707 208.783 13.823Z" fill="#FFFBF7"/>
<path d="M208.36 15.057C208.224 14.8887 207.055 14.7439 206.342 15.2445C206.233 15.3212 206.251 15.4275 206.373 15.4132C206.774 15.366 207.669 15.2587 207.827 15.462C207.987 15.6658 207.65 16.5075 207.499 16.8826C207.453 16.9964 207.551 17.0421 207.654 16.9568C208.324 16.3987 208.496 15.2267 208.36 15.057Z" fill="#FF8000"/>
<path d="M207.133 15.7619C205.736 16.355 204.217 16.6407 202.834 16.6407C200.788 16.6407 198.804 16.0801 197.202 15.147C197.062 15.0646 196.958 15.2085 197.074 15.3137C198.56 16.6559 200.523 17.463 202.704 17.463C204.26 17.463 206.066 16.9736 207.313 16.0547C207.519 15.9022 207.343 15.6735 207.133 15.7619Z" fill="#FF8000"/>
<path d="M197.138 14.1226C197.017 13.9539 196.888 13.8177 196.888 13.5071V12.4724C196.888 12.0348 196.919 11.6322 196.597 11.3304C196.341 11.0859 195.92 11 195.596 11C194.965 11 194.26 11.2353 194.111 12.016C194.096 12.0993 194.157 12.143 194.21 12.1552L194.855 12.2243C194.914 12.2218 194.959 12.1629 194.97 12.1029C195.025 11.834 195.251 11.7044 195.504 11.7044C195.641 11.7044 195.795 11.7547 195.876 11.8772C195.969 12.0134 195.956 12.2005 195.956 12.358V12.4434C195.572 12.4881 195.069 12.5161 194.708 12.6746C194.293 12.853 194 13.22 194 13.7587C194 14.4484 194.435 14.7935 194.994 14.7935C195.466 14.7935 195.724 14.6822 196.088 14.3107C196.209 14.4855 196.248 14.5709 196.469 14.7539C196.519 14.7803 196.582 14.7772 196.626 14.7386L196.628 14.7396C196.76 14.6227 197.001 14.4118 197.137 14.299C197.191 14.2532 197.182 14.1821 197.138 14.1226ZM195.956 13.1188C195.956 13.3775 195.963 13.593 195.832 13.8228C195.727 14.0098 195.56 14.1241 195.373 14.1241C195.118 14.1241 194.97 13.9305 194.97 13.6434C194.97 13.0777 195.477 12.975 195.956 12.975V13.1188Z" fill="#FFFBF7"/>
</svg>
