<svg width="232" height="161" viewBox="0 0 232 161" fill="none" xmlns="http://www.w3.org/2000/svg">
<rect x="0.0761719" width="231.525" height="160.865" rx="15" fill="url(#paint0_linear)"/>
<g clip-path="url(#clip0)">
<path d="M96.4791 60.2184C91.7448 68.2871 94.7545 80.5319 99.9899 87.9564C102.603 91.6683 105.249 95.0002 108.873 95.0002C108.941 95.0002 109.01 94.9989 109.08 94.9962C110.782 94.9295 112.013 94.4147 113.202 93.9171C114.538 93.3581 115.919 92.7802 118.086 92.7802C120.147 92.7802 121.462 93.3394 122.734 93.88C123.988 94.4127 125.279 94.9638 127.187 94.9286C131.269 94.8539 133.775 91.2586 135.986 88.0868C138.294 84.7751 139.451 81.5596 139.842 80.3309L139.858 80.282C139.932 80.0636 139.827 79.8252 139.614 79.7291C139.608 79.7264 139.586 79.7176 139.58 79.7151C138.861 79.4264 132.556 76.6791 132.49 69.1911C132.428 63.1076 137.22 59.886 138.181 59.3021L138.226 59.2747C138.33 59.2089 138.402 59.1045 138.427 58.9851C138.452 58.8659 138.426 58.7418 138.356 58.6416C135.049 53.8878 129.979 53.1713 127.938 53.0851C127.642 53.0561 127.336 53.0415 127.029 53.0415C124.632 53.0415 122.336 53.9307 120.491 54.6452C119.218 55.1384 118.118 55.5643 117.359 55.5643C116.506 55.5643 115.4 55.1331 114.119 54.634C112.406 53.9662 110.464 53.2096 108.409 53.2096C108.36 53.2096 108.312 53.2101 108.264 53.211C103.485 53.2801 98.9688 55.9655 96.4791 60.2184Z" fill="#FEFAF6"/>
<path d="M127.941 40.0003C125.047 40.1161 121.575 41.8658 119.5 44.253C117.736 46.2595 116.014 49.605 116.467 52.9771C116.496 53.1881 116.671 53.3509 116.887 53.3673C117.082 53.3823 117.282 53.3899 117.48 53.3901C120.31 53.3901 123.363 51.8524 125.448 49.3765C127.642 46.7621 128.752 43.4069 128.416 40.4016C128.39 40.1661 128.179 39.9911 127.941 40.0003Z" fill="#FEFAF6"/>
</g>
<g clip-path="url(#clip1)">
<path d="M211.336 12.3084C210.491 13.6288 211.028 15.6325 211.963 16.8474C212.43 17.4548 212.902 18 213.549 18C213.562 18 213.574 17.9998 213.586 17.9994C213.89 17.9884 214.11 17.9042 214.322 17.8228C214.561 17.7313 214.808 17.6367 215.194 17.6367C215.563 17.6367 215.797 17.7282 216.025 17.8167C216.248 17.9039 216.479 17.994 216.82 17.9883C217.549 17.9761 217.996 17.3877 218.391 16.8687C218.803 16.3268 219.01 15.8006 219.08 15.5996L219.082 15.5916C219.096 15.5558 219.077 15.5168 219.039 15.5011C219.038 15.5007 219.034 15.4992 219.033 15.4988C218.904 15.4516 217.778 15.002 217.767 13.7767C217.756 12.7812 218.611 12.254 218.783 12.1585L218.791 12.154C218.81 12.1432 218.822 12.1262 218.827 12.1066C218.831 12.0871 218.827 12.0668 218.814 12.0504C218.224 11.2725 217.318 11.1553 216.954 11.1412C216.901 11.1364 216.846 11.134 216.792 11.134C216.364 11.134 215.953 11.2795 215.624 11.3964C215.397 11.4772 215.2 11.5469 215.065 11.5469C214.912 11.5469 214.715 11.4763 214.486 11.3946C214.18 11.2854 213.834 11.1615 213.466 11.1615C213.458 11.1615 213.449 11.1616 213.441 11.1618C212.587 11.1731 211.781 11.6125 211.336 12.3084Z" fill="#FEFAF6"/>
<path d="M216.955 9.00006C216.438 9.019 215.818 9.30532 215.447 9.69595C215.133 10.0243 214.825 10.5717 214.906 11.1235C214.911 11.158 214.942 11.1847 214.981 11.1874C215.016 11.1898 215.051 11.1911 215.087 11.1911C215.592 11.1911 216.137 10.9395 216.51 10.5343C216.901 10.1065 217.1 9.5575 217.04 9.06571C217.035 9.02717 216.997 8.99855 216.955 9.00006Z" fill="#FEFAF6"/>
</g>
<path d="M47.8233 120.52H42.9593L42.0633 123H40.5273L44.5593 111.912H46.2393L50.2553 123H48.7193L47.8233 120.52ZM47.4073 119.336L45.3913 113.704L43.3753 119.336H47.4073Z" fill="white"/>
<path d="M53.4686 115.848C53.7566 115.347 54.1833 114.931 54.7486 114.6C55.3246 114.259 55.9913 114.088 56.7486 114.088C57.5273 114.088 58.2313 114.275 58.8606 114.648C59.5006 115.022 60.0019 115.55 60.3646 116.232C60.7273 116.904 60.9086 117.688 60.9086 118.584C60.9086 119.47 60.7273 120.259 60.3646 120.952C60.0019 121.646 59.5006 122.184 58.8606 122.568C58.2313 122.952 57.5273 123.144 56.7486 123.144C56.0019 123.144 55.3406 122.979 54.7646 122.648C54.1993 122.307 53.7673 121.886 53.4686 121.384V127.16H52.0126V114.232H53.4686V115.848ZM59.4206 118.584C59.4206 117.923 59.2873 117.347 59.0206 116.856C58.7539 116.366 58.3913 115.992 57.9326 115.736C57.4846 115.48 56.9886 115.352 56.4446 115.352C55.9113 115.352 55.4153 115.486 54.9566 115.752C54.5086 116.008 54.1459 116.387 53.8686 116.888C53.6019 117.379 53.4686 117.95 53.4686 118.6C53.4686 119.262 53.6019 119.843 53.8686 120.344C54.1459 120.835 54.5086 121.214 54.9566 121.48C55.4153 121.736 55.9113 121.864 56.4446 121.864C56.9886 121.864 57.4846 121.736 57.9326 121.48C58.3913 121.214 58.7539 120.835 59.0206 120.344C59.2873 119.843 59.4206 119.256 59.4206 118.584Z" fill="white"/>
<path d="M64.2811 115.848C64.5691 115.347 64.9958 114.931 65.5611 114.6C66.1371 114.259 66.8038 114.088 67.5611 114.088C68.3398 114.088 69.0438 114.275 69.6731 114.648C70.3131 115.022 70.8144 115.55 71.1771 116.232C71.5398 116.904 71.7211 117.688 71.7211 118.584C71.7211 119.47 71.5398 120.259 71.1771 120.952C70.8144 121.646 70.3131 122.184 69.6731 122.568C69.0438 122.952 68.3398 123.144 67.5611 123.144C66.8144 123.144 66.1531 122.979 65.5771 122.648C65.0118 122.307 64.5798 121.886 64.2811 121.384V127.16H62.8251V114.232H64.2811V115.848ZM70.2331 118.584C70.2331 117.923 70.0998 117.347 69.8331 116.856C69.5664 116.366 69.2038 115.992 68.7451 115.736C68.2971 115.48 67.8011 115.352 67.2571 115.352C66.7238 115.352 66.2278 115.486 65.7691 115.752C65.3211 116.008 64.9584 116.387 64.6811 116.888C64.4144 117.379 64.2811 117.95 64.2811 118.6C64.2811 119.262 64.4144 119.843 64.6811 120.344C64.9584 120.835 65.3211 121.214 65.7691 121.48C66.2278 121.736 66.7238 121.864 67.2571 121.864C67.8011 121.864 68.2971 121.736 68.7451 121.48C69.2038 121.214 69.5664 120.835 69.8331 120.344C70.0998 119.843 70.2331 119.256 70.2331 118.584Z" fill="white"/>
<path d="M81.4392 123.112C80.7032 123.112 80.0419 122.984 79.4552 122.728C78.8792 122.462 78.4259 122.099 78.0952 121.64C77.7646 121.171 77.5939 120.632 77.5832 120.024H79.1352C79.1886 120.547 79.4019 120.99 79.7752 121.352C80.1592 121.704 80.7139 121.88 81.4392 121.88C82.1326 121.88 82.6766 121.71 83.0712 121.368C83.4766 121.016 83.6792 120.568 83.6792 120.024C83.6792 119.598 83.5619 119.251 83.3272 118.984C83.0926 118.718 82.7992 118.515 82.4472 118.376C82.0952 118.238 81.6206 118.088 81.0232 117.928C80.2872 117.736 79.6952 117.544 79.2472 117.352C78.8099 117.16 78.4312 116.862 78.1112 116.456C77.8019 116.04 77.6472 115.486 77.6472 114.792C77.6472 114.184 77.8019 113.646 78.1112 113.176C78.4206 112.707 78.8526 112.344 79.4072 112.088C79.9726 111.832 80.6179 111.704 81.3432 111.704C82.3886 111.704 83.2419 111.966 83.9032 112.488C84.5752 113.011 84.9539 113.704 85.0392 114.568H83.4392C83.3859 114.142 83.1619 113.768 82.7672 113.448C82.3726 113.118 81.8499 112.952 81.1992 112.952C80.5912 112.952 80.0952 113.112 79.7112 113.432C79.3272 113.742 79.1352 114.179 79.1352 114.744C79.1352 115.15 79.2472 115.48 79.4712 115.736C79.7059 115.992 79.9886 116.19 80.3192 116.328C80.6606 116.456 81.1352 116.606 81.7432 116.776C82.4792 116.979 83.0712 117.182 83.5192 117.384C83.9672 117.576 84.3512 117.88 84.6712 118.296C84.9912 118.702 85.1512 119.256 85.1512 119.96C85.1512 120.504 85.0072 121.016 84.7192 121.496C84.4312 121.976 84.0046 122.366 83.4392 122.664C82.8739 122.963 82.2072 123.112 81.4392 123.112Z" fill="white"/>
<path d="M89.0698 115.432V120.6C89.0698 121.027 89.1605 121.331 89.3418 121.512C89.5232 121.683 89.8378 121.768 90.2858 121.768H91.3578V123H90.0458C89.2352 123 88.6272 122.814 88.2218 122.44C87.8165 122.067 87.6138 121.454 87.6138 120.6V115.432H86.4778V114.232H87.6138V112.024H89.0698V114.232H91.3578V115.432H89.0698Z" fill="white"/>
<path d="M96.946 123.144C96.1246 123.144 95.378 122.958 94.706 122.584C94.0446 122.211 93.522 121.683 93.138 121C92.7646 120.307 92.578 119.507 92.578 118.6C92.578 117.704 92.77 116.915 93.154 116.232C93.5486 115.539 94.082 115.011 94.754 114.648C95.426 114.275 96.178 114.088 97.01 114.088C97.842 114.088 98.594 114.275 99.266 114.648C99.938 115.011 100.466 115.534 100.85 116.216C101.245 116.899 101.442 117.694 101.442 118.6C101.442 119.507 101.239 120.307 100.834 121C100.439 121.683 99.9006 122.211 99.218 122.584C98.5353 122.958 97.778 123.144 96.946 123.144ZM96.946 121.864C97.4686 121.864 97.9593 121.742 98.418 121.496C98.8766 121.251 99.2446 120.883 99.522 120.392C99.81 119.902 99.954 119.304 99.954 118.6C99.954 117.896 99.8153 117.299 99.538 116.808C99.2606 116.318 98.898 115.955 98.45 115.72C98.002 115.475 97.5166 115.352 96.994 115.352C96.4606 115.352 95.97 115.475 95.522 115.72C95.0846 115.955 94.7326 116.318 94.466 116.808C94.1993 117.299 94.066 117.896 94.066 118.6C94.066 119.315 94.194 119.918 94.45 120.408C94.7166 120.899 95.0686 121.267 95.506 121.512C95.9433 121.747 96.4233 121.864 96.946 121.864Z" fill="white"/>
<path d="M104.812 115.656C105.068 115.155 105.431 114.766 105.9 114.488C106.38 114.211 106.962 114.072 107.644 114.072V115.576H107.26C105.628 115.576 104.812 116.462 104.812 118.232V123H103.356V114.232H104.812V115.656Z" fill="white"/>
<path d="M117.325 118.28C117.325 118.558 117.309 118.851 117.277 119.16H110.269C110.322 120.024 110.616 120.702 111.149 121.192C111.693 121.672 112.349 121.912 113.117 121.912C113.746 121.912 114.269 121.768 114.685 121.48C115.112 121.182 115.41 120.787 115.581 120.296H117.149C116.914 121.139 116.445 121.827 115.741 122.36C115.037 122.883 114.162 123.144 113.117 123.144C112.285 123.144 111.538 122.958 110.877 122.584C110.226 122.211 109.714 121.683 109.341 121C108.968 120.307 108.781 119.507 108.781 118.6C108.781 117.694 108.962 116.899 109.325 116.216C109.688 115.534 110.194 115.011 110.845 114.648C111.506 114.275 112.264 114.088 113.117 114.088C113.949 114.088 114.685 114.27 115.325 114.632C115.965 114.995 116.456 115.496 116.797 116.136C117.149 116.766 117.325 117.48 117.325 118.28ZM115.821 117.976C115.821 117.422 115.698 116.947 115.453 116.552C115.208 116.147 114.872 115.843 114.445 115.64C114.029 115.427 113.565 115.32 113.053 115.32C112.317 115.32 111.688 115.555 111.165 116.024C110.653 116.494 110.36 117.144 110.285 117.976H115.821Z" fill="white"/>
<path d="M132.073 123L130.617 121.528C130.073 122.094 129.491 122.515 128.873 122.792C128.254 123.059 127.555 123.192 126.777 123.192C126.009 123.192 125.326 123.054 124.729 122.776C124.142 122.499 123.683 122.104 123.353 121.592C123.033 121.08 122.873 120.483 122.873 119.8C122.873 119.022 123.091 118.339 123.529 117.752C123.977 117.155 124.633 116.686 125.497 116.344C125.155 115.939 124.91 115.566 124.761 115.224C124.611 114.883 124.537 114.51 124.537 114.104C124.537 113.635 124.654 113.214 124.889 112.84C125.134 112.456 125.481 112.158 125.929 111.944C126.377 111.731 126.894 111.624 127.481 111.624C128.057 111.624 128.558 111.736 128.985 111.96C129.411 112.184 129.731 112.499 129.945 112.904C130.158 113.299 130.254 113.742 130.233 114.232H128.777C128.787 113.795 128.665 113.454 128.409 113.208C128.153 112.952 127.822 112.824 127.417 112.824C126.99 112.824 126.643 112.947 126.377 113.192C126.121 113.427 125.993 113.731 125.993 114.104C125.993 114.424 126.078 114.734 126.249 115.032C126.43 115.331 126.729 115.699 127.145 116.136L130.473 119.48L130.761 119.032L131.849 117.208H133.417L132.105 119.48C131.923 119.8 131.71 120.136 131.465 120.488L133.977 123H132.073ZM126.777 121.944C127.353 121.944 127.87 121.832 128.329 121.608C128.798 121.384 129.241 121.038 129.657 120.568L126.377 117.272C125.011 117.795 124.329 118.622 124.329 119.752C124.329 120.382 124.553 120.904 125.001 121.32C125.459 121.736 126.051 121.944 126.777 121.944Z" fill="white"/>
<path d="M140.358 112.808C140.081 112.808 139.846 112.712 139.654 112.52C139.462 112.328 139.366 112.094 139.366 111.816C139.366 111.539 139.462 111.304 139.654 111.112C139.846 110.92 140.081 110.824 140.358 110.824C140.625 110.824 140.849 110.92 141.03 111.112C141.222 111.304 141.318 111.539 141.318 111.816C141.318 112.094 141.222 112.328 141.03 112.52C140.849 112.712 140.625 112.808 140.358 112.808ZM141.062 114.232V123H139.606V114.232H141.062Z" fill="white"/>
<path d="M150.408 111.848V113.032H147.368V123H145.912V113.032H142.856V111.848H150.408Z" fill="white"/>
<path d="M159.976 114.232V123H158.52V121.704C158.243 122.152 157.853 122.504 157.352 122.76C156.861 123.006 156.317 123.128 155.72 123.128C155.037 123.128 154.424 122.99 153.88 122.712C153.336 122.424 152.904 121.998 152.584 121.432C152.275 120.867 152.12 120.179 152.12 119.368V114.232H153.56V119.176C153.56 120.04 153.779 120.707 154.216 121.176C154.653 121.635 155.251 121.864 156.008 121.864C156.787 121.864 157.4 121.624 157.848 121.144C158.296 120.664 158.52 119.966 158.52 119.048V114.232H159.976Z" fill="white"/>
<path d="M166.706 114.072C167.773 114.072 168.637 114.398 169.298 115.048C169.96 115.688 170.29 116.616 170.29 117.832V123H168.85V118.04C168.85 117.166 168.632 116.499 168.194 116.04C167.757 115.571 167.16 115.336 166.402 115.336C165.634 115.336 165.021 115.576 164.562 116.056C164.114 116.536 163.89 117.235 163.89 118.152V123H162.434V114.232H163.89V115.48C164.178 115.032 164.568 114.686 165.058 114.44C165.56 114.195 166.109 114.072 166.706 114.072Z" fill="white"/>
<path d="M180.669 118.28C180.669 118.558 180.653 118.851 180.621 119.16H173.613C173.666 120.024 173.96 120.702 174.493 121.192C175.037 121.672 175.693 121.912 176.461 121.912C177.09 121.912 177.613 121.768 178.029 121.48C178.456 121.182 178.754 120.787 178.925 120.296H180.493C180.258 121.139 179.789 121.827 179.085 122.36C178.381 122.883 177.506 123.144 176.461 123.144C175.629 123.144 174.882 122.958 174.221 122.584C173.57 122.211 173.058 121.683 172.685 121C172.312 120.307 172.125 119.507 172.125 118.6C172.125 117.694 172.306 116.899 172.669 116.216C173.032 115.534 173.538 115.011 174.189 114.648C174.85 114.275 175.608 114.088 176.461 114.088C177.293 114.088 178.029 114.27 178.669 114.632C179.309 114.995 179.799 115.496 180.141 116.136C180.493 116.766 180.669 117.48 180.669 118.28ZM179.165 117.976C179.165 117.422 179.042 116.947 178.797 116.552C178.552 116.147 178.216 115.843 177.789 115.64C177.373 115.427 176.909 115.32 176.397 115.32C175.661 115.32 175.032 115.555 174.509 116.024C173.997 116.494 173.704 117.144 173.629 117.976H179.165Z" fill="white"/>
<path d="M185.695 123.144C185.023 123.144 184.42 123.032 183.887 122.808C183.353 122.574 182.932 122.254 182.623 121.848C182.313 121.432 182.143 120.958 182.111 120.424H183.615C183.657 120.862 183.86 121.219 184.223 121.496C184.596 121.774 185.081 121.912 185.679 121.912C186.233 121.912 186.671 121.79 186.991 121.544C187.311 121.299 187.471 120.99 187.471 120.616C187.471 120.232 187.3 119.95 186.959 119.768C186.617 119.576 186.089 119.39 185.375 119.208C184.724 119.038 184.191 118.867 183.775 118.696C183.369 118.515 183.017 118.254 182.719 117.912C182.431 117.56 182.287 117.102 182.287 116.536C182.287 116.088 182.42 115.678 182.687 115.304C182.953 114.931 183.332 114.638 183.823 114.424C184.313 114.2 184.873 114.088 185.503 114.088C186.473 114.088 187.257 114.334 187.855 114.824C188.452 115.315 188.772 115.987 188.815 116.84H187.359C187.327 116.382 187.14 116.014 186.799 115.736C186.468 115.459 186.02 115.32 185.455 115.32C184.932 115.32 184.516 115.432 184.207 115.656C183.897 115.88 183.743 116.174 183.743 116.536C183.743 116.824 183.833 117.064 184.015 117.256C184.207 117.438 184.441 117.587 184.719 117.704C185.007 117.811 185.401 117.934 185.903 118.072C186.532 118.243 187.044 118.414 187.439 118.584C187.833 118.744 188.169 118.99 188.447 119.32C188.735 119.651 188.884 120.083 188.895 120.616C188.895 121.096 188.761 121.528 188.495 121.912C188.228 122.296 187.849 122.6 187.359 122.824C186.879 123.038 186.324 123.144 185.695 123.144Z" fill="white"/>
<defs>
<linearGradient id="paint0_linear" x1="137.276" y1="-38.9975" x2="239.978" y2="177.173" gradientUnits="userSpaceOnUse">
<stop stop-color="#00E0FF"/>
<stop offset="1" stop-color="#0047FF"/>
</linearGradient>
<clipPath id="clip0">
<rect width="56" height="55" fill="white" transform="translate(89 40)"/>
</clipPath>
<clipPath id="clip1">
<rect width="10" height="9" fill="white" transform="translate(210 9)"/>
</clipPath>
</defs>
</svg>
