<svg width="231" height="160" viewBox="0 0 231 160" fill="none" xmlns="http://www.w3.org/2000/svg">
<rect width="231" height="160" rx="15" fill="black"/>
<path d="M115.674 50.6804C106.471 50.6727 99.0076 58.103 98.9999 67.2765C98.9921 76.4499 106.446 83.8905 115.648 83.8982C124.849 83.8905 132.307 76.4615 132.321 67.2893C132.321 58.121 124.871 50.6881 115.674 50.6804ZM115.648 81.1344C107.978 81.1344 101.76 74.9356 101.76 67.2893C101.76 59.6431 107.978 53.4443 115.648 53.4443C123.315 53.452 129.528 59.6457 129.536 67.2893C129.536 74.9356 123.318 81.1344 115.648 81.1344Z" fill="white"/>
<path d="M120.148 66.4796C121.262 65.8535 121.864 64.6002 121.656 63.3429C121.399 61.4018 119.077 60.669 117.246 60.5148V57.5967H115.441V60.4891H114.229V57.5967H112.423V60.4891H108.787V62.3531H110.141C110.747 62.3531 111.044 62.5331 111.044 63.0216V71.0304C111.044 71.6988 110.708 71.9045 110.347 71.9045H108.967V73.8071H112.475V76.7638H114.293V73.8071H115.505V76.7638H117.272V73.8071H117.659C121.373 73.8071 122.611 71.9945 122.611 69.5263C122.581 68.0711 121.569 66.819 120.148 66.4796ZM114.229 62.4688H115.518C116.421 62.4688 118.2 62.6231 118.2 64.0886C118.262 65.045 117.567 65.8832 116.614 66.004H114.229V62.4688ZM116.227 71.7245V71.7116H114.229V67.8551H116.55C117.091 67.8551 119.129 68.035 119.129 69.4748C119.129 70.9146 118.162 71.7245 116.227 71.7245Z" fill="white"/>
<path d="M95.816 116.929C96.2213 116.993 96.5893 117.158 96.92 117.425C97.2613 117.692 97.528 118.022 97.72 118.417C97.9227 118.812 98.024 119.233 98.024 119.681C98.024 120.246 97.88 120.758 97.592 121.217C97.304 121.665 96.8827 122.022 96.328 122.289C95.784 122.545 95.1387 122.673 94.392 122.673H90.232V111.521H94.232C94.9893 111.521 95.6347 111.649 96.168 111.905C96.7013 112.15 97.1013 112.486 97.368 112.913C97.6347 113.34 97.768 113.82 97.768 114.353C97.768 115.014 97.5867 115.564 97.224 116.001C96.872 116.428 96.4027 116.737 95.816 116.929ZM91.688 116.337H94.136C94.8187 116.337 95.3467 116.177 95.72 115.857C96.0933 115.537 96.28 115.094 96.28 114.529C96.28 113.964 96.0933 113.521 95.72 113.201C95.3467 112.881 94.808 112.721 94.104 112.721H91.688V116.337ZM94.264 121.473C94.9893 121.473 95.5547 121.302 95.96 120.961C96.3653 120.62 96.568 120.145 96.568 119.537C96.568 118.918 96.3547 118.433 95.928 118.081C95.5013 117.718 94.9307 117.537 94.216 117.537H91.688V121.473H94.264ZM100.797 112.481C100.519 112.481 100.285 112.385 100.093 112.193C99.9005 112.001 99.8045 111.766 99.8045 111.489C99.8045 111.212 99.9005 110.977 100.093 110.785C100.285 110.593 100.519 110.497 100.797 110.497C101.063 110.497 101.287 110.593 101.469 110.785C101.661 110.977 101.757 111.212 101.757 111.489C101.757 111.766 101.661 112.001 101.469 112.193C101.287 112.385 101.063 112.481 100.797 112.481ZM101.501 113.905V122.673H100.045V113.905H101.501ZM105.758 115.105V120.273C105.758 120.7 105.849 121.004 106.03 121.185C106.211 121.356 106.526 121.441 106.974 121.441H108.046V122.673H106.734C105.923 122.673 105.315 122.486 104.91 122.113C104.505 121.74 104.302 121.126 104.302 120.273V115.105H103.166V113.905H104.302V111.697H105.758V113.905H108.046V115.105H105.758ZM109.266 118.273C109.266 117.366 109.447 116.577 109.81 115.905C110.173 115.222 110.674 114.694 111.314 114.321C111.965 113.948 112.706 113.761 113.538 113.761C114.615 113.761 115.501 114.022 116.194 114.545C116.898 115.068 117.362 115.793 117.586 116.721H116.018C115.869 116.188 115.575 115.766 115.138 115.457C114.711 115.148 114.178 114.993 113.538 114.993C112.706 114.993 112.034 115.281 111.522 115.857C111.01 116.422 110.754 117.228 110.754 118.273C110.754 119.329 111.01 120.145 111.522 120.721C112.034 121.297 112.706 121.585 113.538 121.585C114.178 121.585 114.711 121.436 115.138 121.137C115.565 120.838 115.858 120.412 116.018 119.857H117.586C117.351 120.753 116.882 121.473 116.178 122.017C115.474 122.55 114.594 122.817 113.538 122.817C112.706 122.817 111.965 122.63 111.314 122.257C110.674 121.884 110.173 121.356 109.81 120.673C109.447 119.99 109.266 119.19 109.266 118.273ZM123.353 122.817C122.532 122.817 121.785 122.63 121.113 122.257C120.452 121.884 119.929 121.356 119.545 120.673C119.172 119.98 118.985 119.18 118.985 118.273C118.985 117.377 119.177 116.588 119.561 115.905C119.956 115.212 120.489 114.684 121.161 114.321C121.833 113.948 122.585 113.761 123.417 113.761C124.249 113.761 125.001 113.948 125.673 114.321C126.345 114.684 126.873 115.206 127.257 115.889C127.652 116.572 127.849 117.366 127.849 118.273C127.849 119.18 127.646 119.98 127.241 120.673C126.846 121.356 126.308 121.884 125.625 122.257C124.942 122.63 124.185 122.817 123.353 122.817ZM123.353 121.537C123.876 121.537 124.366 121.414 124.825 121.169C125.284 120.924 125.652 120.556 125.929 120.065C126.217 119.574 126.361 118.977 126.361 118.273C126.361 117.569 126.222 116.972 125.945 116.481C125.668 115.99 125.305 115.628 124.857 115.393C124.409 115.148 123.924 115.025 123.401 115.025C122.868 115.025 122.377 115.148 121.929 115.393C121.492 115.628 121.14 115.99 120.873 116.481C120.606 116.972 120.473 117.569 120.473 118.273C120.473 118.988 120.601 119.59 120.857 120.081C121.124 120.572 121.476 120.94 121.913 121.185C122.35 121.42 122.83 121.537 123.353 121.537ZM130.515 112.481C130.238 112.481 130.003 112.385 129.811 112.193C129.619 112.001 129.523 111.766 129.523 111.489C129.523 111.212 129.619 110.977 129.811 110.785C130.003 110.593 130.238 110.497 130.515 110.497C130.782 110.497 131.006 110.593 131.187 110.785C131.379 110.977 131.475 111.212 131.475 111.489C131.475 111.766 131.379 112.001 131.187 112.193C131.006 112.385 130.782 112.481 130.515 112.481ZM131.219 113.905V122.673H129.763V113.905H131.219ZM137.973 113.745C139.039 113.745 139.903 114.07 140.565 114.721C141.226 115.361 141.557 116.289 141.557 117.505V122.673H140.117V117.713C140.117 116.838 139.898 116.172 139.461 115.713C139.023 115.244 138.426 115.009 137.669 115.009C136.901 115.009 136.287 115.249 135.829 115.729C135.381 116.209 135.157 116.908 135.157 117.825V122.673H133.701V113.905H135.157V115.153C135.445 114.705 135.834 114.358 136.325 114.113C136.826 113.868 137.375 113.745 137.973 113.745Z" fill="white"/>
</svg>
