<svg width="39" height="36" viewBox="0 0 39 36" fill="none" xmlns="http://www.w3.org/2000/svg">
<path d="M5 5.66667V0.666672H8.33333V5.66667H13.3333V9H8.33333V14H5V9H0V5.66667H5ZM10 15.6667V10.6667H15V5.66667H26.6667L29.6667 9H35C36.8333 9 38.3333 10.5 38.3333 12.3333V32.3333C38.3333 34.1667 36.8333 35.6667 35 35.6667H8.33333C6.5 35.6667 5 34.1667 5 32.3333V15.6667H10ZM21.6667 30.6667C29.0833 30.6667 32.8167 21.7 27.5667 16.4333C22.3167 11.1833 13.3333 14.9167 13.3333 22.3333C13.3333 26.9333 17.0667 30.6667 21.6667 30.6667ZM16.3333 22.3333C16.3333 27.0833 22.0833 29.4667 25.4333 26.1C28.8 22.75 26.4167 17 21.6667 17C18.7333 17 16.3333 19.4 16.3333 22.3333Z" fill="#2C3A50"/>
</svg>
