<svg width="456" height="275" viewBox="0 0 456 275" fill="none" xmlns="http://www.w3.org/2000/svg">
<g clip-path="url(#clip0)">
<path d="M65.144 102.203H386.693" stroke="#DED8D5" stroke-width="1.9678" stroke-miterlimit="10"/>
<path d="M382.507 280.076H69.33C67.0116 280.076 65.144 278.208 65.144 275.89V85.33C65.144 83.0116 67.0116 81.144 69.33 81.144H382.507C384.826 81.144 386.693 83.0116 386.693 85.33V275.89C386.693 278.208 384.826 280.076 382.507 280.076Z" stroke="#DED8D5" stroke-width="1.9678" stroke-miterlimit="10"/>
<path d="M86.3315 91.8345C86.3315 93.4445 85.0435 94.7969 83.3691 94.7969C81.7591 94.7969 80.4067 93.5089 80.4067 91.8345C80.4067 90.2245 81.6947 88.8721 83.3691 88.8721C84.9791 88.9365 86.3315 90.2245 86.3315 91.8345Z" fill="#FFB1A5"/>
<path d="M97.7305 91.8345C97.7305 93.4445 96.4425 94.7969 94.7681 94.7969C93.1581 94.7969 91.8057 93.5089 91.8057 91.8345C91.8057 90.2245 93.0937 88.8721 94.7681 88.8721C96.4425 88.9365 97.7305 90.2245 97.7305 91.8345Z" fill="#EAD254"/>
<path d="M109.193 91.8345C109.193 93.4445 107.905 94.7969 106.231 94.7969C104.557 94.7969 103.269 93.5089 103.269 91.8345C103.269 90.2245 104.557 88.8721 106.231 88.8721C107.905 88.8721 109.193 90.2245 109.193 91.8345Z" fill="#00857B"/>
<path d="M371.173 153.014H410.457C412.582 153.014 414.321 151.276 414.321 149.15V116.95C414.321 114.825 412.582 113.086 410.457 113.086H371.173C369.048 113.086 367.309 114.825 367.309 116.95V149.15C367.309 151.276 369.048 153.014 371.173 153.014Z" fill="#0F24E9"/>
<path d="M401.57 139.684H383.152H379.867V125.129H401.57V128.736V139.684Z" stroke="white" stroke-width="1.6466" stroke-miterlimit="10" stroke-linecap="round" stroke-linejoin="round"/>
<path d="M379.867 125.129L390.686 133.694L401.57 125.129" stroke="white" stroke-width="1.6466" stroke-miterlimit="10" stroke-linecap="round" stroke-linejoin="round"/>
<path d="M78.3461 218.187H40.9941C38.6113 218.187 36.7437 216.255 36.7437 213.937V177.809C36.7437 175.426 38.6757 173.558 40.9941 173.558H78.3461C80.7289 173.558 82.5965 175.49 82.5965 177.809V213.937C82.6609 216.32 80.7289 218.187 78.3461 218.187Z" fill="#FCB932"/>
<path d="M50.783 187.082C45.7598 192.105 45.7598 200.413 50.783 205.436C55.8062 210.459 64.1138 210.459 69.137 205.436C74.1602 200.413 74.1602 192.105 69.137 187.082C64.1138 182.059 55.8062 182.059 50.783 187.082ZM69.0726 188.95H64.951C64.5646 187.662 63.985 186.374 63.341 185.021C65.6594 185.794 67.6558 187.146 69.0726 188.95ZM55.1622 195.518C55.1622 193.844 55.3554 192.17 55.8062 190.495H64.1138C64.5002 192.17 64.7578 193.844 64.7578 195.518H55.1622ZM64.6934 197.064C64.5646 198.738 64.307 200.413 63.7918 202.087H56.1282C55.6774 200.413 55.3554 198.738 55.2266 197.064H64.6934ZM59.9278 184.571C60.5718 184.571 61.1514 184.635 61.731 184.699C62.5038 186.116 63.1478 187.533 63.5986 188.95H56.1926C56.6434 187.533 57.2874 186.116 58.0602 184.699C58.7042 184.635 59.3482 184.571 59.9278 184.571ZM56.5146 185.086C55.8706 186.374 55.291 187.662 54.9046 189.014H50.783C52.2642 187.146 54.2606 185.794 56.5146 185.086ZM49.7526 190.495H54.5182C54.1318 192.17 53.8742 193.844 53.8742 195.518H48.2714C48.4002 193.715 48.9154 191.976 49.7526 190.495ZM49.7526 202.087C48.9154 200.606 48.3358 198.867 48.2714 197.064H53.8742C53.9386 198.738 54.1962 200.413 54.647 202.087H49.7526ZM50.783 203.633H55.0978C55.5486 204.921 56.0638 206.273 56.7078 207.561C54.325 206.853 52.2642 205.5 50.783 203.633ZM59.9278 208.012C59.4126 208.012 58.8974 207.948 58.3822 207.883C57.6738 206.466 57.0298 204.985 56.579 203.568H63.2766C62.7614 204.985 62.1818 206.466 61.4734 207.883C60.9582 207.948 60.443 208.012 59.9278 208.012ZM63.2122 207.561C63.8562 206.273 64.3714 204.921 64.8222 203.633H69.137C67.5914 205.5 65.5306 206.853 63.2122 207.561ZM70.103 202.087H65.2086C65.6594 200.413 65.917 198.738 65.9814 197.064H71.5842C71.5198 198.867 71.0046 200.606 70.103 202.087ZM71.6486 195.518H66.0458C66.0458 193.844 65.7882 192.17 65.4018 190.495H70.1674C71.0046 191.976 71.5198 193.715 71.6486 195.518Z" fill="white"/>
<path d="M91.6126 62.7255H26.311C24.9586 62.7255 23.8638 61.6307 23.8638 60.2783C23.8638 58.9259 24.9586 57.8311 26.311 57.8311H91.6126C92.965 57.8311 94.0598 58.9259 94.0598 60.2783C94.0598 61.6307 92.965 62.7255 91.6126 62.7255Z" fill="#FCB932"/>
<path d="M431.13 222.245H399.445C398.092 222.245 396.998 221.15 396.998 219.797C396.998 218.445 398.092 217.35 399.445 217.35H431.13C432.482 217.35 433.577 218.445 433.577 219.797C433.577 221.15 432.482 222.245 431.13 222.245Z" fill="#56DFED"/>
<path d="M408.976 250.516H405.112C404.081 250.516 403.244 249.679 403.244 248.648V245.042C403.244 244.012 404.081 243.174 405.112 243.174H408.976C410.006 243.174 410.843 244.012 410.843 245.042V248.648C410.779 249.679 410.006 250.516 408.976 250.516Z" fill="#C98BD2"/>
<path d="M41.8312 267.453H37.9672C36.9368 267.453 36.0996 266.616 36.0996 265.586V261.979C36.0996 260.949 36.9368 260.112 37.9672 260.112H41.8312C42.8616 260.112 43.6988 260.949 43.6988 261.979V265.586C43.6988 266.616 42.8616 267.453 41.8312 267.453Z" fill="#FFB1A5"/>
<path d="M338.265 60.2138H273.8C272.705 60.2138 271.868 59.3766 271.868 58.2818V42.5682C271.868 41.4734 272.705 40.6362 273.8 40.6362H338.265C339.359 40.6362 340.197 41.4734 340.197 42.5682V58.2818C340.197 59.3766 339.359 60.2138 338.265 60.2138Z" fill="#76A6FF"/>
<path d="M281.206 47.5913H326.994" stroke="white" stroke-width="1.1803" stroke-miterlimit="10"/>
<path d="M281.206 52.2925H299.882" stroke="white" stroke-width="1.1803" stroke-miterlimit="10"/>
<path d="M279.338 58.0242V65.6234L288.934 58.0242H279.338Z" fill="#76A6FF"/>
<path d="M179.905 61.3732H148.735C145.708 61.3732 143.261 58.926 143.261 55.8992V26.9192C143.261 24.6008 145.129 22.7332 147.447 22.7332H179.969C182.288 22.7332 184.155 24.6008 184.155 26.9192V57.2516C184.091 59.5056 182.223 61.3732 179.905 61.3732Z" fill="#09BC7C"/>
<path d="M173.207 44.9512L170.889 42.6328C170.502 42.182 169.923 41.9244 169.407 41.9244C168.892 41.9244 168.313 42.182 167.926 42.5684L166.574 43.9208C166.509 43.8564 166.381 43.8564 166.316 43.792C166.123 43.7276 165.994 43.6632 165.93 43.5988C164.706 42.826 163.547 41.7956 162.452 40.4432C161.937 39.7992 161.551 39.2196 161.358 38.7688C161.68 38.4468 162.001 38.1248 162.259 37.8672C162.388 37.7384 162.517 37.6096 162.645 37.4808C163.096 37.03 163.354 36.5148 163.354 35.9352C163.354 35.42 163.096 34.8404 162.645 34.3896L161.486 33.2304C161.358 33.1016 161.229 32.9728 161.1 32.844C160.842 32.5864 160.585 32.3288 160.327 32.0712C159.941 31.6848 159.361 31.4272 158.846 31.4272C158.331 31.4272 157.816 31.6204 157.365 32.0712L155.884 33.5524C155.368 34.0676 154.982 34.776 154.918 35.6132C154.853 36.8368 155.175 37.996 155.433 38.7688C156.077 40.7008 157.107 42.3752 158.653 44.1784C160.52 46.368 162.71 48.1068 165.286 49.3948C166.252 49.8456 167.54 50.3608 169.021 50.4896C169.085 50.4896 169.214 50.4896 169.343 50.4896C170.309 50.4896 171.146 50.1032 171.855 49.3948C171.855 49.3948 171.855 49.3948 171.919 49.3304C172.112 49.0728 172.37 48.8152 172.692 48.5576C172.885 48.3644 173.078 48.1712 173.207 48.0424C174.044 47.012 174.044 45.7884 173.207 44.9512ZM172.241 47.0764C172.048 47.2696 171.919 47.3984 171.726 47.5916C171.404 47.8492 171.211 48.1068 170.889 48.4288C170.502 48.8152 169.987 49.0728 169.407 49.0728C169.343 49.0728 169.279 49.0728 169.214 49.0728C167.991 49.0084 166.831 48.4932 165.994 48.1068C163.612 46.9476 161.551 45.3376 159.812 43.2768C158.395 41.6024 157.429 39.928 156.785 38.2536C156.399 37.2876 156.206 36.4504 156.27 35.6776C156.334 35.2268 156.463 34.776 156.85 34.454L158.266 33.0372C158.395 32.9084 158.588 32.7152 158.846 32.7152C159.104 32.7152 159.232 32.844 159.426 33.0372C159.683 33.2948 159.941 33.5524 160.198 33.81C160.327 33.9388 160.456 34.132 160.585 34.1964L161.744 35.3556C161.873 35.4844 162.066 35.742 162.066 35.9352C162.066 36.1928 161.873 36.386 161.744 36.5148C161.615 36.6436 161.486 36.7724 161.358 36.9012C160.971 37.2876 160.649 37.6096 160.327 37.9316C160.327 37.9316 160.327 37.9316 160.263 37.996C159.876 38.3824 159.941 38.7688 160.005 39.0264V39.0908C160.327 39.8636 160.778 40.5076 161.358 41.3448C162.517 42.826 163.74 43.9208 165.157 44.8224C165.35 44.9512 165.544 45.0156 165.672 45.1444C165.866 45.2088 165.994 45.2732 166.059 45.3376L166.123 45.402C166.509 45.5952 166.96 45.5308 167.282 45.2088L168.763 43.7276C168.892 43.5988 169.085 43.4056 169.343 43.4056C169.536 43.4056 169.729 43.5988 169.858 43.7276L172.177 46.046C172.627 46.2392 172.627 46.69 172.241 47.0764Z" fill="white"/>
<path d="M315.66 207.754L292.154 204.599L292.347 206.917L272.255 209.622C272.255 209.622 259.31 242.144 270.709 313.628H287.067L292.927 241.178H294.988L300.655 313.628H317.013C328.476 242.144 315.66 207.754 315.66 207.754Z" fill="#8E716C"/>
<path d="M285.457 241.114H302.523" stroke="#282828" stroke-width="1.2333" stroke-miterlimit="10" stroke-linecap="round" stroke-linejoin="round"/>
<path d="M329.377 173.429C327.381 170.209 316.047 170.338 315.467 170.274C312.44 169.887 317.399 194.23 323.775 215.482C324.998 219.54 329.442 221.665 333.37 219.99C333.435 219.99 333.435 219.926 333.499 219.926C336.59 218.638 338.329 215.354 337.749 212.005C334.723 196.034 331.696 177.164 329.377 173.429Z" fill="#BE733C"/>
<path d="M332.082 182.252L317.657 187.855L316.304 181.028L331.245 177.293L332.082 182.252Z" fill="#A35B27"/>
<path d="M334.787 195.905C334.787 195.905 327.961 205.05 328.283 204.663C328.605 204.213 333.628 189.851 333.628 189.851L334.787 195.905Z" fill="#A35B27"/>
<path d="M344.576 183.604L324.998 208.978C322.422 212.327 323.259 217.157 326.801 219.411C330.343 221.729 335.045 220.505 337.041 216.77L353.334 186.695L344.576 183.604Z" fill="#BE733C"/>
<path d="M349.599 190.108C345.348 188.756 343.03 184.184 344.382 179.933C345.735 175.683 350.307 173.364 354.558 174.717C358.808 176.069 361.126 180.642 359.774 184.892C358.422 189.142 353.849 191.461 349.599 190.108Z" fill="#BE733C"/>
<path d="M357.971 177.551C357.971 177.551 360.16 175.232 356.232 173.622C352.304 172.012 347.474 172.399 344.382 179.869L357.971 177.551Z" fill="#BE733C"/>
<path d="M362.028 161.515L370.207 165.057C370.658 165.25 370.851 165.766 370.593 166.281L359.774 186.438C359.517 186.889 358.937 187.146 358.486 186.953L350.307 183.411C349.857 183.218 349.663 182.703 349.921 182.188L360.74 162.03C360.998 161.579 361.577 161.322 362.028 161.515Z" fill="#372F5F"/>
<path d="M361.255 161.193L369.434 164.735C369.885 164.928 370.078 165.444 369.821 165.959L359.066 186.116C358.808 186.567 358.229 186.824 357.778 186.631L349.599 183.089C349.148 182.896 348.955 182.381 349.213 181.866L360.032 161.708C360.225 161.193 360.805 161 361.255 161.193Z" fill="#261B43"/>
<path d="M360.354 163.254L367.566 166.345L358.744 182.767L351.531 179.676L360.354 163.254Z" fill="#E6E6E6"/>
<path d="M367.566 166.345L351.531 179.676L360.354 163.254L367.566 166.345Z" fill="white"/>
<path d="M353.914 172.978C353.914 172.978 355.717 173.365 357.391 174.266C358.1 174.653 358.486 175.49 358.293 176.327C358.1 177.035 357.52 177.615 356.747 177.679L352.497 178.195C352.497 178.195 350.243 182.059 347.345 182.445L349.985 175.683L353.914 172.978Z" fill="#BE733C"/>
<path d="M299.496 141.487C299.045 141.487 329.699 145.737 334.787 180.771L318.88 183.218L315.66 209.622H271.224L262.401 160.807C262.401 160.807 272.255 146.703 290.544 141.487H299.496Z" fill="#FCB932"/>
<path d="M318.88 183.218L320.232 167.891" stroke="#282828" stroke-width="1.2333" stroke-miterlimit="10" stroke-linecap="round" stroke-linejoin="round"/>
<path d="M302.393 142.002V129.83H288.161V142.131C287.453 142.324 286.229 142.775 284.361 143.676L295.503 150.309L306.837 143.676C306.772 143.676 304.969 142.646 302.393 142.002Z" fill="#BE733C"/>
<path d="M288.032 131.312C288.032 131.312 290.608 138.138 297.435 137.494C303.681 136.979 302.715 127.512 302.715 127.512L288.032 131.312Z" fill="#A35B27"/>
<path d="M281.786 122.295C279.532 124.292 274.573 116.628 276.698 114.503C278.888 112.378 280.498 115.727 280.498 115.727L281.464 118.045L282.172 121.136L282.365 121.973L281.786 122.295Z" fill="#BE733C"/>
<path d="M277.793 117.208C277.793 117.208 279.467 116.435 281.013 118.882" stroke="#282828" stroke-width="0.9928" stroke-miterlimit="10" stroke-linecap="round" stroke-linejoin="round"/>
<path d="M308.19 122.038C310.25 124.228 315.853 117.015 313.921 114.696C311.925 112.378 310.057 115.598 310.057 115.598L308.898 117.788L307.932 120.814L307.674 121.587L308.19 122.038Z" fill="#BE733C"/>
<path d="M312.633 117.337C312.633 117.337 311.023 116.435 309.284 118.754" stroke="#282828" stroke-width="0.9928" stroke-miterlimit="10" stroke-linecap="round" stroke-linejoin="round"/>
<path d="M277.857 107.162C277.857 117.337 285.585 122.167 295.181 122.167C304.777 122.167 312.505 117.337 312.505 107.162C312.505 96.9865 304.777 90.0957 295.181 90.0957C285.585 90.0957 277.857 96.9865 277.857 107.162Z" fill="#282828"/>
<path d="M280.24 107.87C280.24 114.117 281.142 119.526 281.979 123.326C282.816 127.061 285.263 129.702 288.676 131.762L289.32 132.149C292.927 134.403 297.628 134.403 301.299 132.278C305.034 130.088 307.61 127.254 308.447 123.262C309.928 115.984 310.057 107.87 310.057 107.87C310.057 107.87 311.474 92.092 295.374 92.414C279.274 92.6716 280.24 107.87 280.24 107.87Z" fill="#BE733C"/>
<path d="M294.15 116.822V119.011C294.15 119.14 294.15 119.269 294.215 119.398C294.408 119.848 294.923 120.042 295.374 119.913L296.404 119.655" stroke="#282828" stroke-width="1.2316" stroke-miterlimit="10" stroke-linecap="round" stroke-linejoin="round"/>
<path d="M291.639 108.385L283.653 110.253C283.653 110.253 284.04 108.192 287.26 107.484C290.544 106.775 291.639 108.385 291.639 108.385Z" fill="#282828"/>
<path d="M298.723 108.385L306.451 110.253C306.451 110.253 306.129 108.192 302.973 107.484C299.753 106.775 298.723 108.385 298.723 108.385Z" fill="#282828"/>
<path d="M288.612 115.598C289.359 115.598 289.965 114.992 289.965 114.245C289.965 113.499 289.359 112.893 288.612 112.893C287.865 112.893 287.26 113.499 287.26 114.245C287.26 114.992 287.865 115.598 288.612 115.598Z" fill="#282828"/>
<path d="M302.716 114.245C302.716 115.018 302.136 115.598 301.363 115.598C300.59 115.598 300.011 115.018 300.011 114.245C300.011 113.473 300.59 112.893 301.363 112.893C302.136 112.893 302.716 113.537 302.716 114.245Z" fill="#282828"/>
<path d="M289.964 122.489H300.333C300.333 122.489 295.696 128.092 289.964 122.489Z" fill="white"/>
<path d="M292.06 118.812C294.299 116.574 294.299 112.945 292.06 110.706C289.822 108.468 286.193 108.468 283.955 110.706C281.716 112.945 281.716 116.574 283.955 118.812C286.193 121.05 289.822 121.05 292.06 118.812Z" stroke="#C98BD2" stroke-width="1.3423" stroke-miterlimit="10"/>
<path d="M306.159 118.801C308.398 116.563 308.398 112.934 306.159 110.695C303.921 108.457 300.292 108.457 298.054 110.695C295.815 112.934 295.815 116.563 298.054 118.801C300.292 121.039 303.921 121.039 306.159 118.801Z" stroke="#C98BD2" stroke-width="1.3423" stroke-miterlimit="10"/>
<path d="M293.764 114.761C293.764 114.761 295.117 113.473 296.405 114.761" stroke="#C98BD2" stroke-width="1.3423" stroke-miterlimit="10"/>
<path d="M282.301 114.761H280.498" stroke="#C98BD2" stroke-width="1.3423" stroke-miterlimit="10"/>
<path d="M307.868 114.761H309.671" stroke="#C98BD2" stroke-width="1.3423" stroke-miterlimit="10"/>
<path d="M309.864 113.086C309.864 113.086 303.424 104.392 304.905 95.5696C304.905 95.5696 309.671 97.9524 310.895 104.199C312.183 110.382 309.864 113.086 309.864 113.086Z" fill="#282828"/>
<path d="M280.24 113.666C280.24 113.666 287.71 103.813 286.229 94.99C286.229 94.99 281.077 97.9524 279.789 104.199C278.566 110.382 280.24 113.666 280.24 113.666Z" fill="#282828"/>
<path d="M309.349 99.0472C309.349 99.0472 301.105 108.063 278.501 106.518C278.501 106.518 281.979 93.2512 292.927 91.8344C292.862 91.8344 305.549 90.3532 309.349 99.0472Z" fill="#282828"/>
<path d="M319.463 90.1879C320.415 84.2891 316.406 78.7351 310.507 77.7826C304.608 76.8301 299.054 80.8399 298.102 86.7387C297.149 92.6375 301.159 98.1916 307.058 99.144C312.956 100.096 318.51 96.0867 319.463 90.1879Z" fill="#282828"/>
<path d="M177.007 207.69L156.914 204.985L157.107 202.667L133.601 205.822C133.601 205.822 120.786 240.212 132.185 311.696H148.542L151.376 275.471L154.209 239.246H156.27L162.131 311.696H178.488C189.951 240.212 177.007 207.69 177.007 207.69Z" fill="#22B07D"/>
<path d="M175.397 109.931C172.692 106.711 170.502 102.976 168.635 97.7592C166.638 92.1564 160.134 94.4105 160.134 94.4105C160.134 94.4105 154.724 87.4552 146.546 89.838C138.367 92.2852 135.533 98.0812 135.404 104.972C135.211 111.863 129.802 112.958 125.616 120.943C118.21 135.047 130.639 146.896 153.308 143.612V143.419C155.562 144.127 158.266 144.385 161.615 144.192C188.792 142.582 186.216 122.618 175.397 109.931Z" fill="#282828"/>
<path d="M166.51 120.364C168.764 122.36 173.723 114.696 171.597 112.571C169.472 110.446 167.798 113.795 167.798 113.795L166.832 116.113L166.123 119.204L165.93 120.042L166.51 120.364Z" fill="#BE733C"/>
<path d="M170.567 115.276C170.567 115.276 168.892 114.503 167.347 116.95" stroke="#282828" stroke-width="0.9928" stroke-miterlimit="10" stroke-linecap="round" stroke-linejoin="round"/>
<path d="M140.106 120.17C138.045 122.36 132.442 115.147 134.374 112.829C136.37 110.51 138.238 113.73 138.238 113.73L139.397 115.92L140.363 118.947L140.621 119.72L140.106 120.17Z" fill="#BE733C"/>
<path d="M135.662 115.405C135.662 115.405 137.272 114.503 139.011 116.822" stroke="#282828" stroke-width="0.9928" stroke-miterlimit="10" stroke-linecap="round" stroke-linejoin="round"/>
<path d="M170.438 105.23C170.438 115.405 162.71 120.235 153.115 120.235C143.519 120.235 135.791 115.405 135.791 105.23C135.791 95.0544 143.519 88.1636 153.115 88.1636C162.71 88.1636 170.438 95.0544 170.438 105.23Z" fill="#282828"/>
<path d="M160.134 127.963H145.901V146.446H160.134V127.963Z" fill="#BE733C"/>
<path d="M143.841 126.803C143.841 126.803 147.834 134.725 152.664 135.948C153.952 136.27 155.368 136.141 156.592 135.691C158.46 135.047 160.778 132.277 161.164 129.251L161.358 127.512C161.422 127.576 152.728 132.277 143.841 126.803Z" fill="#A35B27"/>
<path d="M168.055 105.938C168.055 112.185 167.153 117.594 166.316 121.394C165.479 125.129 163.032 127.77 159.619 129.83L158.975 130.217C155.368 132.471 150.667 132.471 146.996 130.346C143.261 128.156 140.685 125.322 139.848 121.33C138.367 114.052 138.238 105.938 138.238 105.938C138.238 105.938 136.821 90.1599 152.921 90.4819C169.021 90.8039 168.055 105.938 168.055 105.938Z" fill="#BE733C"/>
<path d="M152.02 115.791V117.079C152.02 117.208 152.02 117.337 152.084 117.465C152.277 117.916 152.792 118.109 153.243 117.981L154.274 117.723" stroke="#282828" stroke-width="1.2298" stroke-miterlimit="10" stroke-linecap="round" stroke-linejoin="round"/>
<path d="M155.369 107.226L163.934 109.222C163.934 109.222 163.547 107.033 160.07 106.196C156.592 105.487 155.369 107.226 155.369 107.226Z" fill="#282828"/>
<path d="M150.925 107.226L142.231 109.222C142.231 109.222 142.617 107.033 146.159 106.196C149.701 105.487 150.925 107.226 150.925 107.226Z" fill="#282828"/>
<path d="M147.769 112.571C147.769 113.28 147.19 113.924 146.417 113.924C145.644 113.924 145.064 113.344 145.064 112.571C145.064 111.863 145.644 111.219 146.417 111.219C147.19 111.219 147.769 111.798 147.769 112.571Z" fill="#282828"/>
<path d="M160.585 112.571C160.585 113.28 160.006 113.924 159.233 113.924C158.46 113.924 157.88 113.344 157.88 112.571C157.88 111.863 158.46 111.219 159.233 111.219C160.006 111.219 160.585 111.798 160.585 112.571Z" fill="#282828"/>
<path d="M146.932 120.235H158.782C158.782 120.235 157.945 123.455 152.599 123.455C148.478 123.455 146.932 120.235 146.932 120.235Z" fill="white"/>
<path d="M138.431 111.155C138.431 111.155 144.871 102.46 143.39 93.6377C143.39 93.6377 138.624 96.0205 137.401 102.267C136.113 108.45 138.431 111.155 138.431 111.155Z" fill="#282828"/>
<path d="M168.12 110.897C168.12 110.897 160.649 101.881 162.13 93.0579C162.13 93.0579 167.282 96.0203 168.57 102.267C169.858 108.514 168.12 110.897 168.12 110.897Z" fill="#282828"/>
<path d="M139.011 97.1152C139.011 97.1152 146.417 107.033 169.021 105.487C169.021 105.487 166.445 91.3192 155.497 89.9024C155.433 89.9668 142.81 88.4212 139.011 97.1152Z" fill="#282828"/>
<path d="M118.403 251.353C118.081 251.868 137.207 168.084 131.54 169.372C131.025 169.501 121.043 170.403 119.562 173.429C115.247 182.123 112.22 250.774 112.22 250.774L118.403 251.353Z" fill="#BE733C"/>
<path d="M112.22 250.709C112.22 250.709 109.129 265.006 120.786 266.616C121.558 266.745 122.267 266.294 122.524 265.521L122.589 265.393C122.846 264.555 122.46 263.718 121.687 263.396C119.755 262.559 116.857 260.369 118.274 255.539C118.274 255.539 119.948 255.346 120.914 258.502C121.172 259.339 122.074 259.725 122.846 259.339C123.362 259.081 123.619 258.502 123.555 257.987C123.297 255.797 122.138 250.452 117.888 249.035L112.22 250.709Z" fill="#BE733C"/>
<path d="M116.149 193.522C116.149 193.522 127.161 209.043 127.226 208.721C127.29 208.399 131.09 186.889 131.09 186.889L117.695 181.093L116.149 193.522Z" fill="#A35B27"/>
<path d="M146.803 143.355C147.254 143.355 119.562 143.87 114.475 178.839L130.381 181.286L133.601 207.69H178.037L186.86 158.875C186.86 158.875 180.613 148.313 162.324 143.097L146.803 143.355Z" fill="white"/>
<path d="M133.215 147.605C133.215 147.605 137.143 152.821 153.179 152.821C169.086 152.821 173.143 147.347 173.143 147.347C173.143 147.347 163.74 142.131 152.857 140.392C152.921 140.392 143.197 142.131 133.215 147.605Z" fill="#BE733C"/>
<path d="M187.762 258.502L187.826 328.311H222.345L224.985 258.502H187.762Z" fill="#3E50F7"/>
<path d="M262.788 258.502L262.723 328.311H228.205L225.5 258.502H262.788Z" fill="#3E50F7"/>
<path d="M243.854 258.502H208.176V282.78H243.854V258.502Z" fill="#3E50F7"/>
<path d="M284.555 197.579C286.68 221.214 284.426 238.473 285.07 282.008L264.462 282.845L261.371 201.379L284.555 197.579Z" fill="#BE733C"/>
<path d="M263.947 215.998C263.947 215.998 276.698 214.839 285.457 209.043L285.199 203.955L263.947 206.853V215.998Z" fill="#A35B27"/>
<path d="M243.468 143.097C243.468 143.097 284.04 153.272 291.381 204.728C291.381 204.728 271.546 213.357 251.647 209.622L256.09 192.427L243.468 143.097Z" fill="#C98BD2"/>
<path d="M122.331 164.478L152.535 200.155L143.326 226.173C143.326 226.173 120.399 194.295 110.095 169.63L122.331 164.478Z" fill="#BE733C"/>
<path d="M123.362 165.766C123.362 165.766 112.736 171.755 110.095 169.565C105.394 165.765 101.466 151.92 101.466 151.92C101.466 151.92 121.301 144.449 121.108 144.707C120.915 145.093 123.362 165.766 123.362 165.766Z" fill="#BE733C"/>
<path d="M123.362 165.766C123.169 164.671 127.29 153.208 128.707 148.893C129.029 147.862 128.321 146.703 127.226 146.51C126.517 146.381 125.294 146.446 124.779 147.54L119.82 156.041L123.362 165.766Z" fill="#BE733C"/>
<path d="M122.975 153.336L119.562 136.335C119.369 135.176 118.21 134.403 117.115 134.66C116.149 134.854 115.505 135.691 115.634 136.721L117.115 149.344L122.975 153.336Z" fill="#BE733C"/>
<path d="M116.214 147.09L111.577 134.982C111.19 133.952 109.967 133.308 108.936 133.694C108.035 134.016 107.52 134.918 107.713 135.884L111.126 149.923L116.214 147.09Z" fill="#BE733C"/>
<path d="M111.19 150.632L105.33 138.718C104.815 137.623 103.462 137.108 102.367 137.558C101.337 138.009 100.886 139.168 101.337 140.263L106.038 151.533L111.19 150.632Z" fill="#BE733C"/>
<path d="M101.466 151.984L96.8933 144.707C96.5069 143.87 96.8933 142.904 97.6661 142.517C98.4389 142.131 99.4693 142.453 99.9845 143.161L106.038 151.533L101.466 151.984Z" fill="#BE733C"/>
<path d="M122.074 152.048C122.074 152.048 115.183 151.34 114.475 160.549" stroke="#282828" stroke-width="1.5317" stroke-miterlimit="10" stroke-linecap="round" stroke-linejoin="round"/>
<path d="M137.208 214.001C137.208 214.001 142.875 233.643 154.209 231.067C165.544 228.427 183.189 204.277 183.189 204.277L179.261 162.997L147.512 202.087L137.208 214.001Z" fill="#BE733C"/>
<path d="M157.3 189.916C157.3 189.916 167.991 206.08 177.2 211.812L183.189 204.277L160.069 186.438L157.3 189.916Z" fill="#A35B27"/>
<path d="M204.183 142.195C204.183 142.195 172.692 149.279 155.948 185.859C155.948 185.859 166.059 201.121 182.352 207.948L193.235 194.617L204.183 142.195Z" fill="#C98BD2"/>
<path d="M204.184 142.066C191.883 148.378 184.155 156.75 184.155 156.75L186.602 263.718H264.076L263.818 157.329C263.818 157.329 254.029 147.798 243.468 143.097C234.452 139.104 212.942 137.623 204.184 142.066Z" fill="#C98BD2"/>
<path d="M240.828 194.166C234.903 194.166 230.073 189.336 230.073 183.411V172.656H251.647V183.411C251.647 189.4 246.817 194.166 240.828 194.166Z" stroke="#282828" stroke-width="1.3968" stroke-miterlimit="10" stroke-linecap="round" stroke-linejoin="round"/>
<path d="M263.947 210.073L264.977 175.039" stroke="#282828" stroke-width="1.3968" stroke-miterlimit="10" stroke-linecap="round" stroke-linejoin="round"/>
<path d="M185.315 204.212L183.64 173.88" stroke="#282828" stroke-width="1.3968" stroke-miterlimit="10" stroke-linecap="round" stroke-linejoin="round"/>
<path d="M205.085 103.04L201.865 87.0689C201.672 85.7809 201.157 83.7845 201.801 81.8525C202.831 78.7613 206.566 72.7077 213.006 75.4769L214.423 81.7881C214.423 81.7881 207.726 83.1405 205.085 91.8345V103.04Z" fill="#282828"/>
<path d="M212.556 78.7612C212.427 80.8864 210.559 90.0312 204.055 93.38C204.055 93.38 198.323 81.144 212.556 78.7612Z" fill="#282828"/>
<path d="M235.353 139.169V112.056H210.366V139.169L202.896 142.582C202.896 142.582 204.634 153.852 223.117 154.109C241.6 154.367 243.467 143.161 243.467 143.161L235.353 139.169Z" fill="#BE733C"/>
<path d="M213.006 75.4769C213.006 75.4769 217.579 63.3697 231.747 69.8097C240.312 73.7381 242.695 78.9545 243.725 82.6253C244.047 83.8489 244.176 85.7809 244.112 86.9401L240.698 103.04L227.303 80.7577L214.359 81.7881L213.006 75.4769Z" fill="#282828"/>
<path d="M240.698 103.04C240.698 103.04 242.373 100.335 245.85 101.688C249.328 102.976 247.782 111.477 242.566 112.507C242.566 112.507 240.698 112.893 239.217 111.605C239.217 111.605 240.505 105.423 240.698 103.04Z" fill="#BE733C"/>
<path d="M245.142 104.65C245.142 104.65 242.244 103.684 240.183 107.999" stroke="#282828" stroke-width="1.3968" stroke-miterlimit="10" stroke-linecap="round" stroke-linejoin="round"/>
<path d="M205.085 103.04C205.085 103.04 203.411 100.335 199.933 101.688C196.455 102.976 198.001 111.477 203.217 112.507C203.217 112.507 205.085 112.893 206.566 111.605C206.566 111.605 205.278 105.423 205.085 103.04Z" fill="#BE733C"/>
<path d="M200.642 104.65C200.642 104.65 203.54 103.684 205.6 107.999" stroke="#282828" stroke-width="1.3968" stroke-miterlimit="10" stroke-linecap="round" stroke-linejoin="round"/>
<path d="M241.021 94.9902C241.021 100.078 240.505 110.768 237.414 117.079C234.452 123.004 229.622 126.224 223.246 126.417C216.871 126.611 212.105 124.163 208.305 116.435C204.506 108.707 204.699 95.119 204.699 95.119C204.699 95.119 204.699 76.9582 222.667 76.9582C241.6 76.8938 241.021 94.9902 241.021 94.9902Z" fill="#BE733C"/>
<path d="M210.559 120.235C210.559 120.235 212.684 130.861 221.893 132.084C232.519 133.501 235.353 120.492 235.353 120.492C235.353 120.492 230.652 126.417 223.181 126.417C214.938 126.417 210.559 120.235 210.559 120.235Z" fill="#A35B27"/>
<path d="M221.571 102.589V106.775C221.571 106.968 221.636 107.097 221.7 107.29C221.958 107.934 222.666 108.192 223.31 108.063L224.727 107.677" stroke="#282828" stroke-width="1.3968" stroke-miterlimit="10" stroke-linecap="round" stroke-linejoin="round"/>
<path d="M216.29 100.528C216.29 101.43 215.582 102.138 214.68 102.138C213.779 102.138 213.07 101.43 213.07 100.528C213.07 99.6269 213.779 98.9185 214.68 98.9185C215.518 98.9185 216.29 99.6269 216.29 100.528Z" fill="#282828"/>
<path d="M231.617 100.528C231.617 101.43 230.909 102.138 230.007 102.138C229.106 102.138 228.397 101.43 228.397 100.528C228.397 99.6269 229.106 98.9185 230.007 98.9185C230.909 98.9185 231.617 99.6269 231.617 100.528Z" fill="#282828"/>
<path d="M225.822 92.4139L236.834 95.2475C236.834 95.2475 236.319 92.1563 231.811 91.0615C227.303 89.9023 225.822 92.4139 225.822 92.4139Z" fill="#282828"/>
<path d="M218.931 92.4139L207.918 95.2475C207.918 95.2475 208.434 92.1563 212.942 91.0615C217.45 89.9023 218.931 92.4139 218.931 92.4139Z" fill="#282828"/>
<path d="M216.741 111.025C216.741 111.025 218.351 112.249 222.666 112.249C226.53 112.249 228.977 111.025 228.977 111.025" stroke="#282828" stroke-width="1.3968" stroke-miterlimit="10" stroke-linecap="round" stroke-linejoin="round"/>
<path d="M210.559 79.212C210.559 79.212 213.908 88.6788 228.977 88.4212C239.217 88.228 241.664 95.634 241.664 95.634C241.664 95.634 239.861 79.0832 239.41 79.212C238.96 79.3408 223.825 75.1548 223.825 75.1548L210.559 79.212Z" fill="#282828"/>
</g>
<defs>
<clipPath id="clip0">
<rect width="483" height="322" fill="white" transform="translate(-16)"/>
</clipPath>
</defs>
</svg>
