<svg width="40" height="40" viewBox="0 0 40 40" fill="none" xmlns="http://www.w3.org/2000/svg">
<path d="M18.334 6.66669H6.66732C5.78326 6.66669 4.93542 7.01788 4.31029 7.643C3.68517 8.26812 3.33398 9.11597 3.33398 10V33.3334C3.33398 34.2174 3.68517 35.0653 4.31029 35.6904C4.93542 36.3155 5.78326 36.6667 6.66732 36.6667H30.0006C30.8847 36.6667 31.7325 36.3155 32.3577 35.6904C32.9828 35.0653 33.334 34.2174 33.334 33.3334V21.6667" stroke="#A64153" stroke-width="2" stroke-linecap="round" stroke-linejoin="round"/>
<path d="M30.834 4.1667C31.497 3.50366 32.3963 3.13116 33.334 3.13116C34.2717 3.13116 35.1709 3.50366 35.834 4.1667C36.497 4.82974 36.8695 5.72902 36.8695 6.6667C36.8695 7.60438 36.497 8.50366 35.834 9.1667L20.0007 25L13.334 26.6667L15.0007 20L30.834 4.1667Z" stroke="#A64153" stroke-width="2" stroke-linecap="round" stroke-linejoin="round"/>
</svg>
