<svg width="231" height="160" viewBox="0 0 231 160" fill="none" xmlns="http://www.w3.org/2000/svg">
<rect width="231" height="160" rx="15" fill="url(#paint0_linear)"/>
<path d="M115.63 72.3233L106.5 67.9937L115.63 83.8988L124.76 67.9937L115.63 72.3233Z" fill="white"/>
<path d="M123.766 64.7674L115.63 50.6812L107.485 64.7836L115.63 60.932L123.766 64.7674Z" fill="white"/>
<path d="M108.191 66.6112L115.63 70.1237L123.082 66.6053L115.63 63.093L108.191 66.6112Z" fill="white"/>
<path d="M79.688 112.705V116.433H83.752V117.633H79.688V121.473H84.232V122.673H78.232V111.505H84.232V112.705H79.688ZM88.2111 115.105V120.273C88.2111 120.7 88.3018 121.004 88.4831 121.185C88.6645 121.356 88.9791 121.441 89.4271 121.441H90.4991V122.673H89.1871C88.3765 122.673 87.7685 122.486 87.3631 122.113C86.9578 121.74 86.7551 121.126 86.7551 120.273V115.105H85.6191V113.905H86.7551V111.697H88.2111V113.905H90.4991V115.105H88.2111ZM96.6153 113.745C97.2766 113.745 97.8739 113.889 98.4073 114.177C98.9406 114.454 99.3566 114.876 99.6553 115.441C99.9646 116.006 100.119 116.694 100.119 117.505V122.673H98.6793V117.713C98.6793 116.838 98.4606 116.172 98.0233 115.713C97.5859 115.244 96.9886 115.009 96.2313 115.009C95.4633 115.009 94.8499 115.249 94.3913 115.729C93.9433 116.209 93.7193 116.908 93.7193 117.825V122.673H92.2633V110.833H93.7193V115.153C94.0073 114.705 94.4019 114.358 94.9033 114.113C95.4153 113.868 95.9859 113.745 96.6153 113.745ZM110.498 117.953C110.498 118.23 110.482 118.524 110.45 118.833H103.442C103.495 119.697 103.788 120.374 104.322 120.865C104.866 121.345 105.522 121.585 106.29 121.585C106.919 121.585 107.442 121.441 107.858 121.153C108.284 120.854 108.583 120.46 108.754 119.969H110.322C110.087 120.812 109.618 121.5 108.914 122.033C108.21 122.556 107.335 122.817 106.29 122.817C105.458 122.817 104.711 122.63 104.05 122.257C103.399 121.884 102.887 121.356 102.514 120.673C102.14 119.98 101.954 119.18 101.954 118.273C101.954 117.366 102.135 116.572 102.498 115.889C102.86 115.206 103.367 114.684 104.018 114.321C104.679 113.948 105.436 113.761 106.29 113.761C107.122 113.761 107.858 113.942 108.498 114.305C109.138 114.668 109.628 115.169 109.97 115.809C110.322 116.438 110.498 117.153 110.498 117.953ZM108.994 117.649C108.994 117.094 108.871 116.62 108.626 116.225C108.38 115.82 108.044 115.516 107.618 115.313C107.202 115.1 106.738 114.993 106.226 114.993C105.49 114.993 104.86 115.228 104.338 115.697C103.826 116.166 103.532 116.817 103.458 117.649H108.994ZM113.876 115.329C114.132 114.828 114.494 114.438 114.964 114.161C115.444 113.884 116.025 113.745 116.708 113.745V115.249H116.324C114.692 115.249 113.876 116.134 113.876 117.905V122.673H112.42V113.905H113.876V115.329ZM126.388 117.953C126.388 118.23 126.372 118.524 126.34 118.833H119.332C119.386 119.697 119.679 120.374 120.212 120.865C120.756 121.345 121.412 121.585 122.18 121.585C122.81 121.585 123.332 121.441 123.748 121.153C124.175 120.854 124.474 120.46 124.644 119.969H126.212C125.978 120.812 125.508 121.5 124.804 122.033C124.1 122.556 123.226 122.817 122.18 122.817C121.348 122.817 120.602 122.63 119.94 122.257C119.29 121.884 118.778 121.356 118.404 120.673C118.031 119.98 117.844 119.18 117.844 118.273C117.844 117.366 118.026 116.572 118.388 115.889C118.751 115.206 119.258 114.684 119.908 114.321C120.57 113.948 121.327 113.761 122.18 113.761C123.012 113.761 123.748 113.942 124.388 114.305C125.028 114.668 125.519 115.169 125.86 115.809C126.212 116.438 126.388 117.153 126.388 117.953ZM124.884 117.649C124.884 117.094 124.762 116.62 124.516 116.225C124.271 115.82 123.935 115.516 123.508 115.313C123.092 115.1 122.628 114.993 122.116 114.993C121.38 114.993 120.751 115.228 120.228 115.697C119.716 116.166 119.423 116.817 119.348 117.649H124.884ZM136.086 113.905V122.673H134.63V121.377C134.353 121.825 133.963 122.177 133.462 122.433C132.971 122.678 132.427 122.801 131.83 122.801C131.147 122.801 130.534 122.662 129.99 122.385C129.446 122.097 129.014 121.67 128.694 121.105C128.385 120.54 128.23 119.852 128.23 119.041V113.905H129.67V118.849C129.67 119.713 129.889 120.38 130.326 120.849C130.763 121.308 131.361 121.537 132.118 121.537C132.897 121.537 133.51 121.297 133.958 120.817C134.406 120.337 134.63 119.638 134.63 118.721V113.905H136.086ZM149.089 113.745C149.771 113.745 150.379 113.889 150.913 114.177C151.446 114.454 151.867 114.876 152.177 115.441C152.486 116.006 152.641 116.694 152.641 117.505V122.673H151.201V117.713C151.201 116.838 150.982 116.172 150.545 115.713C150.118 115.244 149.537 115.009 148.801 115.009C148.043 115.009 147.441 115.254 146.993 115.745C146.545 116.225 146.321 116.924 146.321 117.841V122.673H144.881V117.713C144.881 116.838 144.662 116.172 144.225 115.713C143.798 115.244 143.217 115.009 142.481 115.009C141.723 115.009 141.121 115.254 140.673 115.745C140.225 116.225 140.001 116.924 140.001 117.841V122.673H138.545V113.905H140.001V115.169C140.289 114.71 140.673 114.358 141.153 114.113C141.643 113.868 142.182 113.745 142.769 113.745C143.505 113.745 144.155 113.91 144.721 114.241C145.286 114.572 145.707 115.057 145.985 115.697C146.23 115.078 146.635 114.598 147.201 114.257C147.766 113.916 148.395 113.745 149.089 113.745Z" fill="white"/>
<defs>
<linearGradient id="paint0_linear" x1="136.889" y1="-38.7879" x2="238.837" y2="176.468" gradientUnits="userSpaceOnUse">
<stop stop-color="#00E0FF"/>
<stop offset="1" stop-color="#0047FF"/>
</linearGradient>
</defs>
</svg>
