<svg width="26" height="26" viewBox="0 0 26 26" fill="none" xmlns="http://www.w3.org/2000/svg">
<path d="M13 25.5C11.3585 25.5 9.73303 25.1767 8.21646 24.5485C6.69989 23.9203 5.3219 22.9996 4.16117 21.8388C1.81696 19.4946 0.5 16.3152 0.5 13C0.5 9.68479 1.81696 6.50537 4.16117 4.16117C6.50537 1.81696 9.68479 0.5 13 0.5C14.6415 0.5 16.267 0.823322 17.7835 1.45151C19.3001 2.07969 20.6781 3.00043 21.8388 4.16117C22.9996 5.3219 23.9203 6.69989 24.5485 8.21646C25.1767 9.73303 25.5 11.3585 25.5 13C25.5 16.3152 24.183 19.4946 21.8388 21.8388C19.4946 24.183 16.3152 25.5 13 25.5ZM13 23C15.6522 23 18.1957 21.9464 20.0711 20.0711C21.9464 18.1957 23 15.6522 23 13C23 10.3478 21.9464 7.8043 20.0711 5.92893C18.1957 4.05357 15.6522 3 13 3C10.3478 3 7.8043 4.05357 5.92893 5.92893C4.05357 7.8043 3 10.3478 3 13C3 15.6522 4.05357 18.1957 5.92893 20.0711C7.8043 21.9464 10.3478 23 13 23ZM13 11.75C13.3315 11.75 13.6495 11.8817 13.8839 12.1161C14.1183 12.3505 14.25 12.6685 14.25 13C14.25 13.3315 14.1183 13.6495 13.8839 13.8839C13.6495 14.1183 13.3315 14.25 13 14.25C12.6685 14.25 12.3505 14.1183 12.1161 13.8839C11.8817 13.6495 11.75 13.3315 11.75 13C11.75 12.6685 11.8817 12.3505 12.1161 12.1161C12.3505 11.8817 12.6685 11.75 13 11.75ZM13 8C16.2875 8 19.25 9.9625 20.5 13C18.775 17.1375 14.0125 19.1 9.875 17.375C7.9 16.55 6.325 14.975 5.5 13C6.75 9.9625 9.7125 8 13 8ZM13 9.875C12.1712 9.875 11.3763 10.2042 10.7903 10.7903C10.2042 11.3763 9.875 12.1712 9.875 13C9.875 13.8288 10.2042 14.6237 10.7903 15.2097C11.3763 15.7958 12.1712 16.125 13 16.125C13.8288 16.125 14.6237 15.7958 15.2097 15.2097C15.7958 14.6237 16.125 13.8288 16.125 13C16.125 12.1712 15.7958 11.3763 15.2097 10.7903C14.6237 10.2042 13.8288 9.875 13 9.875Z" fill="#C5C7CD"/>
</svg>
