<svg width="23" height="23" viewBox="0 0 23 23" fill="none" xmlns="http://www.w3.org/2000/svg">
<g clip-path="url(#clip0)">
<path d="M13.055 22.3239H3.94141C3.48039 22.3239 3.10537 21.9491 3.10537 21.4884V16.976C3.10537 16.7892 2.95407 16.6379 2.76734 16.6379C2.58062 16.6379 2.42932 16.7892 2.42932 16.976V21.4884C2.42932 22.3219 3.10767 23 3.94141 23H13.055C13.2417 23 13.393 22.8487 13.393 22.662C13.393 22.4752 13.2417 22.3239 13.055 22.3239Z" fill="black"/>
<path d="M14.623 20.7369C14.623 20.5501 14.4717 20.3988 14.285 20.3988H5.73292C5.5462 20.3988 5.3949 20.5501 5.3949 20.7369C5.3949 20.9236 5.5462 21.0749 5.73292 21.0749H14.285C14.4717 21.0749 14.623 20.9236 14.623 20.7369Z" fill="black"/>
<path d="M20.5681 14.6317C20.5677 14.4452 20.4165 14.2944 20.2301 14.2944C20.2298 14.2944 20.2296 14.2944 20.2294 14.2944C20.0427 14.2947 19.8917 14.4464 19.8921 14.6331L19.8948 15.978C19.895 16.2887 19.643 16.5419 19.3331 16.5424L9.82144 16.5568V10.8239H19.885L19.8893 13.1006C19.8897 13.2871 20.041 13.438 20.2274 13.438H20.228C20.4147 13.4376 20.5658 13.286 20.5654 13.0993L20.5537 6.94745C20.5518 6.265 19.9964 5.71078 19.3152 5.71078C19.3145 5.71078 19.3137 5.71078 19.3129 5.71078L17.5885 5.71276V1.51163C17.5885 0.678112 16.9104 -7.62939e-06 16.0769 -7.62939e-06H3.94141C3.10767 -7.62939e-06 2.42932 0.678112 2.42932 1.51163V15.4436C2.42932 15.6303 2.58062 15.7816 2.76734 15.7816C2.95407 15.7816 3.10537 15.6303 3.10537 15.4436V1.51163C3.10537 1.05088 3.48044 0.676039 3.94141 0.676039H5.15144V1.67334C5.15144 2.31297 5.67187 2.83339 6.3115 2.83339H13.7068C14.3463 2.83339 14.8664 2.31297 14.8664 1.67334V0.676039H16.0769C16.5376 0.676039 16.9124 1.05088 16.9124 1.51163V5.71353L9.82139 5.72164V5.03248C9.82139 4.84576 9.67009 4.69446 9.48337 4.69446C9.29665 4.69446 9.14535 4.84576 9.14535 5.03248V18.0126C9.14535 18.1993 9.29665 18.3506 9.48337 18.3506C9.67009 18.3506 9.82139 18.1993 9.82139 18.0126V17.2328L16.9124 17.2221V21.4884C16.9124 21.9491 16.5376 22.3239 16.0769 22.3239H14.6324C14.4456 22.3239 14.2943 22.4752 14.2943 22.662C14.2943 22.8487 14.4456 23 14.6324 23H16.0769C16.9104 23 17.5885 22.3219 17.5885 21.4884V17.2211L19.3342 17.2184C20.0166 17.2173 20.5713 16.6605 20.5708 15.977L20.5681 14.6317ZM14.1904 1.67334C14.1904 1.94025 13.9735 2.15735 13.7069 2.15735H6.3115C6.04459 2.15735 5.82749 1.94025 5.82749 1.67334V0.676039H14.1904V1.67334ZM9.82144 10.1479V8.30004H19.8802L19.8837 10.1479H9.82144ZM19.314 6.38683H19.3149C19.6244 6.38683 19.8768 6.63895 19.8776 6.94907L19.8789 7.62404H9.82144V6.39773L19.314 6.38683Z" fill="black"/>
<path d="M15.6901 12.4347C15.2933 12.4347 14.9705 12.7575 14.9705 13.1544V14.476C14.9705 14.8729 15.2933 15.1957 15.6901 15.1957H18.3521C18.749 15.1957 19.0718 14.8729 19.0718 14.476V13.1544C19.0718 12.7575 18.749 12.4347 18.3521 12.4347H15.6901ZM18.3958 13.1544V14.476C18.3958 14.5001 18.3762 14.5197 18.3521 14.5197H15.6901C15.6661 14.5197 15.6465 14.5001 15.6465 14.476V13.1544C15.6465 13.1303 15.6661 13.1107 15.6901 13.1107H18.3521C18.3762 13.1107 18.3958 13.1303 18.3958 13.1544Z" fill="black"/>
</g>
<defs>
<clipPath id="clip0">
<rect width="23" height="23" fill="white"/>
</clipPath>
</defs>
</svg>
