<svg width="232" height="162" viewBox="0 0 232 162" fill="none" xmlns="http://www.w3.org/2000/svg">
<rect y="0.327148" width="231.525" height="160.865" rx="15" fill="url(#paint0_linear)"/>
<path d="M135.861 64.676L127.224 59.6877L115.39 68.5295L127.223 77.3712L135.89 72.3659C137.241 71.5449 138.048 70.1104 138.048 68.5297C138.048 66.949 137.241 65.5146 135.861 64.676Z" fill="#FF9100"/>
<path d="M118.382 68.5299C118.369 68.5465 107.919 81.9821 107.911 81.9929L94.298 92.7135C93.4602 91.8757 92.9517 90.7391 92.9517 89.4823V47.5033C92.9517 46.2468 93.4602 45.1098 94.298 44.2722L107.911 55.0668C107.919 55.0777 118.369 68.5132 118.382 68.5299Z" fill="#25D9F8"/>
<path d="M118.382 68.5299L115.39 72.3892V64.6704L118.382 68.5299Z" fill="#00C0F1"/>
<path d="M127.239 59.6741L118.383 68.5299L94.2993 44.2724C94.5984 44.003 94.8977 43.7936 95.2268 43.5842C96.6627 42.7765 98.3682 42.8063 99.7744 43.674L115.391 52.8529L127.239 59.6741Z" fill="#7FE881"/>
<path d="M127.238 59.674L118.382 68.5298L115.39 65.538V52.8528L127.238 59.674Z" fill="#5BC980"/>
<path d="M127.239 77.3852L115.391 84.2065L99.7445 93.3415C99.0264 93.7602 98.2486 93.9996 97.4407 93.9996C96.6927 93.9996 95.9448 93.7902 95.2268 93.4012C94.8977 93.1918 94.5984 92.9825 94.2993 92.7132L118.383 68.5295L127.239 77.3852Z" fill="#FF637B"/>
<path d="M127.238 77.3851L115.39 84.2065V71.5213L118.382 68.5295L127.238 77.3851Z" fill="#E63950"/>
<g clip-path="url(#clip0)">
<path d="M214.893 13.6755L213.03 12.5996L210.478 14.5067L213.03 16.4137L214.899 15.3341C215.191 15.157 215.364 14.8476 215.364 14.5067C215.364 14.1658 215.191 13.8564 214.893 13.6755Z" fill="#FF9100"/>
<path d="M211.122 14.5062C211.119 14.5098 208.865 17.4077 208.864 17.41L205.927 19.7223C205.747 19.5416 205.637 19.2964 205.637 19.0254V9.97106C205.637 9.70006 205.747 9.45483 205.927 9.27417L208.864 11.6024C208.865 11.6048 211.119 14.5026 211.122 14.5062Z" fill="#25D9F8"/>
<path d="M211.123 14.506L210.478 15.3384V13.6736L211.123 14.506Z" fill="#00C0F1"/>
<path d="M213.033 12.5964L211.122 14.5065L205.928 9.27443C205.992 9.21633 206.057 9.17116 206.128 9.12599C206.438 8.95179 206.805 8.95822 207.109 9.14537L210.477 11.1251L213.033 12.5964Z" fill="#7FE881"/>
<path d="M213.033 12.5967L211.123 14.5068L210.478 13.8615V11.1255L213.033 12.5967Z" fill="#5BC980"/>
<path d="M213.033 16.4166L210.477 17.8879L207.102 19.8582C206.947 19.9485 206.78 20.0001 206.605 20.0001C206.444 20.0001 206.283 19.955 206.128 19.8711C206.057 19.8259 205.992 19.7808 205.928 19.7227L211.122 14.5066L213.033 16.4166Z" fill="#FF637B"/>
<path d="M213.033 16.4166L210.478 17.8879V15.1519L211.123 14.5066L213.033 16.4166Z" fill="#E63950"/>
</g>
<path d="M78.1241 120.714H82.8464C82.8464 120.798 82.8491 120.915 82.8546 121.066C82.8709 121.463 82.879 121.732 82.879 121.872C82.879 123.601 82.3986 124.943 81.4379 125.9C80.4771 126.857 79.1229 127.335 77.3751 127.335C76.3981 127.335 75.5269 127.187 74.7615 126.89C73.9962 126.594 73.3259 126.146 72.7505 125.548C72.186 124.955 71.7518 124.258 71.4478 123.458C71.1493 122.658 71 121.802 71 120.89C71 119.961 71.152 119.105 71.4559 118.322C71.7653 117.539 72.2213 116.848 72.8238 116.249C73.4046 115.662 74.0858 115.214 74.8674 114.906C75.649 114.599 76.4849 114.445 77.3751 114.445C78.3141 114.445 79.1527 114.621 79.8909 114.973C80.6346 115.326 81.2968 115.866 81.8775 116.593L80.4609 117.693C80.0592 117.211 79.606 116.853 79.1012 116.618C78.5964 116.383 78.0319 116.266 77.4077 116.266C76.1158 116.266 75.0601 116.694 74.2405 117.55C73.4263 118.4 73.0192 119.508 73.0192 120.873C73.0192 122.261 73.4263 123.388 74.2405 124.255C75.0601 125.117 76.1212 125.548 77.4239 125.548C78.5312 125.548 79.4024 125.282 80.0375 124.75C80.6725 124.219 80.9901 123.494 80.9901 122.577V122.401H78.1241V120.714Z" fill="#FFFBF7"/>
<path d="M90.8417 123.055C90.8417 122.317 90.6111 121.693 90.1497 121.184C89.6883 120.669 89.1238 120.412 88.4562 120.412C87.794 120.412 87.2295 120.669 86.7627 121.184C86.3013 121.693 86.0706 122.317 86.0706 123.055C86.0706 123.794 86.3013 124.42 86.7627 124.935C87.2295 125.444 87.794 125.699 88.4562 125.699C89.1184 125.699 89.6802 125.444 90.1415 124.935C90.6083 124.42 90.8417 123.794 90.8417 123.055ZM84.2061 123.038C84.2061 122.457 84.312 121.908 84.5237 121.394C84.7408 120.873 85.0502 120.412 85.4518 120.009C85.8481 119.612 86.304 119.307 86.8197 119.094C87.3353 118.881 87.8754 118.775 88.4399 118.775C89.0207 118.775 89.5662 118.881 90.0764 119.094C90.5921 119.307 91.0534 119.62 91.4605 120.034C91.8676 120.442 92.177 120.904 92.3887 121.419C92.6004 121.933 92.7062 122.473 92.7062 123.038C92.7062 123.626 92.6004 124.177 92.3887 124.692C92.1824 125.206 91.8785 125.662 91.4768 126.06C91.0534 126.479 90.5839 126.795 90.0683 127.008C89.5526 127.226 89.0098 127.335 88.4399 127.335C87.8808 127.335 87.3435 127.226 86.8278 127.008C86.3122 126.795 85.8535 126.485 85.4518 126.076C85.0447 125.662 84.7353 125.198 84.5237 124.683C84.312 124.169 84.2061 123.62 84.2061 123.038Z" fill="#FFFBF7"/>
<path d="M100.645 123.055C100.645 122.317 100.414 121.693 99.9525 121.184C99.4911 120.669 98.9266 120.412 98.259 120.412C97.5968 120.412 97.0323 120.669 96.5655 121.184C96.1041 121.693 95.8734 122.317 95.8734 123.055C95.8734 123.794 96.1041 124.42 96.5655 124.935C97.0323 125.444 97.5968 125.699 98.259 125.699C98.9212 125.699 99.483 125.444 99.9444 124.935C100.411 124.42 100.645 123.794 100.645 123.055ZM94.0089 123.038C94.0089 122.457 94.1148 121.908 94.3265 121.394C94.5436 120.873 94.853 120.412 95.2546 120.009C95.6509 119.612 96.1068 119.307 96.6225 119.094C97.1381 118.881 97.6782 118.775 98.2427 118.775C98.8235 118.775 99.369 118.881 99.8792 119.094C100.395 119.307 100.856 119.62 101.263 120.034C101.67 120.442 101.98 120.904 102.192 121.419C102.403 121.933 102.509 122.473 102.509 123.038C102.509 123.626 102.403 124.177 102.192 124.692C101.985 125.206 101.681 125.662 101.28 126.06C100.856 126.479 100.387 126.795 99.8711 127.008C99.3554 127.226 98.8126 127.335 98.2427 127.335C97.6836 127.335 97.1463 127.226 96.6306 127.008C96.115 126.795 95.6563 126.485 95.2546 126.076C94.8475 125.662 94.5382 125.198 94.3265 124.683C94.1148 124.169 94.0089 123.62 94.0089 123.038Z" fill="#FFFBF7"/>
<path d="M109.926 123.005C109.926 122.182 109.739 121.542 109.365 121.083C108.995 120.624 108.477 120.395 107.809 120.395C107.142 120.395 106.615 120.633 106.23 121.108C105.85 121.578 105.66 122.233 105.66 123.072C105.66 123.917 105.845 124.569 106.214 125.027C106.583 125.486 107.104 125.715 107.777 125.715C108.412 125.715 108.928 125.467 109.324 124.969C109.725 124.471 109.926 123.816 109.926 123.005ZM111.644 126.513C111.644 128.068 111.343 129.162 110.74 129.794C110.138 130.432 109.123 130.751 107.695 130.751C106.632 130.751 105.782 130.519 105.147 130.054C104.512 129.595 104.189 128.983 104.178 128.216L106.075 128.208C106.102 128.549 106.257 128.809 106.539 128.988C106.822 129.167 107.218 129.257 107.728 129.257C108.482 129.257 109.025 129.086 109.356 128.745C109.687 128.404 109.856 127.833 109.861 127.033L109.877 125.976C109.563 126.434 109.194 126.776 108.77 127C108.352 127.223 107.872 127.335 107.329 127.335C106.238 127.335 105.378 126.952 104.748 126.185C104.124 125.413 103.812 124.359 103.812 123.022C103.812 121.752 104.132 120.728 104.772 119.95C105.413 119.167 106.249 118.775 107.28 118.775C107.91 118.775 108.447 118.912 108.892 119.186C109.343 119.455 109.671 119.844 109.877 120.353V119.052H111.644V126.513Z" fill="#FFFBF7"/>
<path d="M114.168 127.008V114H115.935V127.008H114.168Z" fill="#FFFBF7"/>
<path d="M125.901 123.299H119.729C119.773 124.043 119.987 124.625 120.372 125.044C120.758 125.458 121.271 125.665 121.911 125.665C122.481 125.665 122.956 125.542 123.336 125.296C123.716 125.05 124.047 124.652 124.329 124.104L125.819 124.96C125.385 125.76 124.848 126.356 124.207 126.748C123.567 127.139 122.815 127.335 121.952 127.335C120.714 127.335 119.729 126.946 118.996 126.169C118.264 125.391 117.897 124.353 117.897 123.055C117.897 121.808 118.274 120.784 119.029 119.984C119.789 119.178 120.763 118.775 121.952 118.775C123.195 118.775 124.164 119.142 124.858 119.875C125.553 120.607 125.901 121.634 125.901 122.954V123.299ZM124.069 122.073C123.998 121.503 123.786 121.069 123.434 120.772C123.081 120.47 122.598 120.319 121.984 120.319C121.404 120.319 120.937 120.465 120.584 120.756C120.231 121.047 119.984 121.486 119.843 122.073H124.069Z" fill="#FFFBF7"/>
<path d="M134.865 119.858H135.362C136.436 119.858 137.153 119.737 137.511 119.497C137.869 119.256 138.048 118.831 138.048 118.221C138.048 117.567 137.856 117.105 137.47 116.837C137.09 116.568 136.387 116.434 135.362 116.434H134.865V119.858ZM134.743 121.494V127.008H132.927V114.722H135.858C136.727 114.722 137.364 114.772 137.772 114.873C138.184 114.968 138.542 115.127 138.846 115.351C139.221 115.636 139.514 116.023 139.726 116.509C139.937 116.99 140.043 117.522 140.043 118.104C140.043 118.686 139.937 119.223 139.726 119.715C139.514 120.207 139.221 120.593 138.846 120.873C138.542 121.097 138.184 121.256 137.772 121.352C137.364 121.447 136.727 121.494 135.858 121.494H134.743Z" fill="#FFFBF7"/>
<path d="M141.737 127.008V114H143.503V127.008H141.737Z" fill="#FFFBF7"/>
<path d="M153.298 127.008H151.531V125.976C151.216 126.434 150.847 126.776 150.424 127C150.006 127.223 149.526 127.335 148.983 127.335C147.892 127.335 147.032 126.952 146.402 126.185C145.778 125.413 145.466 124.359 145.466 123.022C145.466 121.752 145.786 120.728 146.426 119.95C147.067 119.167 147.903 118.775 148.934 118.775C149.564 118.775 150.101 118.912 150.546 119.186C150.997 119.455 151.325 119.844 151.531 120.353V119.052H153.298V127.008ZM151.58 123.005C151.58 122.182 151.393 121.542 151.018 121.083C150.649 120.624 150.131 120.395 149.463 120.395C148.796 120.395 148.269 120.633 147.884 121.108C147.504 121.578 147.314 122.233 147.314 123.072C147.314 123.917 147.498 124.569 147.867 125.027C148.237 125.486 148.758 125.715 149.431 125.715C150.066 125.715 150.581 125.467 150.978 124.969C151.379 124.471 151.58 123.816 151.58 123.005Z" fill="#FFFBF7"/>
<path d="M157.068 130.751H155.252L157.369 126.32L154.536 119.052H156.49L157.906 123.173C157.988 123.424 158.058 123.682 158.118 123.945C158.183 124.202 158.235 124.465 158.273 124.734C158.343 124.454 158.512 124.009 158.778 123.399L158.818 123.299L160.723 119.052H162.637L157.068 130.751Z" fill="#FFFBF7"/>
<defs>
<linearGradient id="paint0_linear" x1="137.2" y1="-38.6704" x2="239.902" y2="177.501" gradientUnits="userSpaceOnUse">
<stop offset="0.104167" stop-color="#99FDD9"/>
<stop offset="1" stop-color="#1E62A2"/>
</linearGradient>
<clipPath id="clip0">
<rect width="11" height="11" fill="white" transform="translate(205 9)"/>
</clipPath>
</defs>
</svg>
