<svg width="21" height="21" viewBox="0 0 21 21" fill="none" xmlns="http://www.w3.org/2000/svg">
<path d="M20.3336 9.22091L10.9894 0.199024C10.7171 -0.0663209 10.283 -0.0663209 10.0108 0.199024L0.666895 9.22056C0.529335 9.35332 0.45166 9.53628 0.45166 9.72747C0.45166 10.1166 0.767115 10.432 1.15619 10.432H2.39793V20.2955C2.39793 20.6846 2.71334 21 3.10246 21H8.03419C8.42331 21 8.73872 20.6846 8.73872 20.2955V14.6592H12.2614V20.2955C12.2614 20.6846 12.5768 21 12.9659 21H17.8976C18.2868 21 18.6022 20.6846 18.6022 20.2955V10.432H19.8439C20.0349 10.432 20.2177 10.3545 20.3505 10.2171C20.6209 9.93734 20.6133 9.49132 20.3336 9.22091ZM18.6022 9.72747C18.2131 9.72747 17.8976 10.0429 17.8976 10.432V20.2955H12.9659V14.6592C12.9659 14.2701 12.6505 13.9547 12.2614 13.9547H8.73872C8.3496 13.9547 8.03419 14.2701 8.03419 14.6592V20.2955H3.10246V10.432C3.10246 10.0429 2.78705 9.72747 2.39793 9.72747H1.15619L10.5001 0.705935L19.8474 9.72747H18.6022Z" fill="black"/>
</svg>
