<svg width="23" height="23" viewBox="0 0 23 23" fill="none" xmlns="http://www.w3.org/2000/svg">
<path d="M13.5743 17.5047C13.2643 17.4597 12.9993 17.6997 12.9993 17.9997V21.4995H0.999931V1.50054H12.9993V4.98537C12.9993 5.23534 13.1793 5.46033 13.4243 5.49534C13.7342 5.54034 13.9993 5.30035 13.9993 5.00037V1.0006C13.9993 0.725598 13.7743 0.50061 13.4993 0.50061H0.499989C0.224988 0.50061 0 0.725598 0 1.0006V21.9995C0 22.2745 0.224988 22.4995 0.499989 22.4995H13.4993C13.7743 22.4995 13.9993 22.2745 13.9993 21.9995V18.0147C13.9993 17.7647 13.8193 17.5397 13.5743 17.5047Z" fill="black"/>
<path d="M22.8537 11.15L17.854 6.15029C17.654 5.96031 17.3391 5.96528 17.1491 6.16027C16.9641 6.35526 16.9641 6.66026 17.1491 6.85525L21.2939 11.0001H6.01467C5.76966 11.0001 5.54969 11.1701 5.50971 11.415C5.45473 11.73 5.69968 12 6.00468 12H21.2988L17.1491 16.1448C16.9491 16.3348 16.9441 16.6548 17.1391 16.8498C17.3291 17.0498 17.6491 17.0547 17.8441 16.8597C17.8491 16.8547 17.854 16.8498 17.854 16.8498L22.8538 11.85C23.0487 11.665 23.0487 11.345 22.8537 11.15Z" fill="black"/>
</svg>
