<svg width="232" height="161" viewBox="0 0 232 161" fill="none" xmlns="http://www.w3.org/2000/svg">
<rect width="231.525" height="160.865" rx="15" fill="url(#paint0_linear)"/>
<path d="M94.4355 119.669C94.4355 121.535 93.9718 123.002 93.0444 124.07C92.1221 125.139 90.8378 125.673 89.1914 125.673C87.5085 125.673 86.2085 125.149 85.2915 124.102C84.3797 123.05 83.9238 121.567 83.9238 119.653C83.9238 117.755 84.3823 116.285 85.2993 115.244C86.2163 114.196 87.5189 113.673 89.207 113.673C90.8482 113.673 92.13 114.204 93.0522 115.268C93.9744 116.331 94.4355 117.798 94.4355 119.669ZM85.3306 119.669C85.3306 121.248 85.6588 122.446 86.3153 123.265C86.977 124.078 87.9357 124.485 89.1914 124.485C90.4575 124.485 91.4135 124.078 92.0596 123.265C92.7057 122.452 93.0287 121.253 93.0287 119.669C93.0287 118.101 92.7057 116.913 92.0596 116.105C91.4188 115.291 90.4679 114.885 89.207 114.885C87.9409 114.885 86.977 115.294 86.3153 116.113C85.6588 116.926 85.3306 118.111 85.3306 119.669Z" fill="white"/>
<path d="M101.508 125.513H100.18V115.06H96.5613V113.856H105.127V115.06H101.508V125.513Z" fill="white"/>
<path d="M116.53 125.513H115.201V120.028H109.183V125.513H107.854V113.856H109.183V118.816H115.201V113.856H116.53V125.513Z" fill="white"/>
<path d="M127.041 125.513H120.672V113.856H127.041V115.06H122V118.816H126.736V120.012H122V124.301H127.041V125.513Z" fill="white"/>
<path d="M131.91 120.666V125.513H130.582V113.856H133.715C135.117 113.856 136.151 114.13 136.818 114.678C137.49 115.225 137.826 116.049 137.826 117.149C137.826 118.691 137.06 119.733 135.529 120.275L138.631 125.513H137.06L134.294 120.666H131.91ZM131.91 119.501H133.731C134.669 119.501 135.357 119.313 135.794 118.935C136.232 118.553 136.451 117.981 136.451 117.221C136.451 116.45 136.227 115.895 135.779 115.555C135.336 115.214 134.622 115.044 133.637 115.044H131.91V119.501Z" fill="white"/>
<path d="M147.924 122.412C147.924 123.438 147.559 124.238 146.83 124.812C146.1 125.386 145.11 125.673 143.86 125.673C142.505 125.673 141.463 125.495 140.734 125.139V123.831C141.203 124.033 141.713 124.192 142.266 124.309C142.818 124.426 143.365 124.485 143.907 124.485C144.792 124.485 145.459 124.315 145.907 123.975C146.356 123.629 146.58 123.151 146.58 122.539C146.58 122.135 146.499 121.806 146.337 121.551C146.181 121.29 145.915 121.051 145.54 120.833C145.17 120.615 144.605 120.368 143.844 120.091C142.781 119.703 142.021 119.244 141.562 118.712C141.109 118.18 140.882 117.487 140.882 116.631C140.882 115.733 141.213 115.018 141.875 114.486C142.536 113.955 143.412 113.689 144.501 113.689C145.637 113.689 146.681 113.901 147.635 114.327L147.22 115.507C146.277 115.103 145.36 114.901 144.469 114.901C143.766 114.901 143.216 115.055 142.82 115.363C142.424 115.672 142.226 116.099 142.226 116.647C142.226 117.051 142.299 117.383 142.445 117.644C142.591 117.899 142.836 118.135 143.18 118.353C143.529 118.566 144.06 118.802 144.774 119.063C145.973 119.499 146.796 119.967 147.244 120.466C147.697 120.966 147.924 121.614 147.924 122.412Z" fill="white"/>
<path d="M146.286 60.4185C147.009 60.4185 147.595 59.8329 147.595 59.1101L147.595 53.0074C147.595 51.7682 146.591 50.7633 145.351 50.7633L87.8693 50.759C86.6296 50.759 85.6252 51.7639 85.6247 53.0031V59.1054C85.6247 59.8282 86.2102 60.4142 86.933 60.4147C87.6563 60.4147 88.2418 61.0007 88.2418 61.7234L88.2408 73.75C88.2408 74.4728 87.6548 75.0588 86.9321 75.0588C86.2093 75.0588 85.6233 75.6448 85.6233 76.3676L85.6228 82.4704C85.6228 83.7095 86.6277 84.714 87.8669 84.7144L145.349 84.7182C146.588 84.7182 147.593 83.7138 147.593 82.4746L147.594 76.3719C147.594 75.6491 147.008 75.0631 146.285 75.0631C145.562 75.0631 144.976 74.4771 144.976 73.7538L144.977 61.7272C144.977 61.0044 145.563 60.4185 146.286 60.4185Z" fill="url(#paint1_linear)"/>
<path d="M85.6233 76.7942L85.6228 82.4705C85.6228 83.7097 86.6272 84.7141 87.8664 84.7146L145.349 84.7184C146.588 84.7184 147.593 83.7139 147.593 82.4747L147.593 76.7947H85.6233V76.7942Z" fill="url(#paint2_linear)"/>
<path d="M88.1436 68.1194L92.264 72.2398V68.1194H88.1436Z" fill="url(#paint3_linear)"/>
<path d="M104.887 50.8848L109.348 55.346H104.887V50.8848Z" fill="url(#paint4_linear)"/>
<path d="M141.285 80.5673H92.4911C91.6784 80.5673 91.0195 79.9089 91.0195 79.0957V56.3835C91.0195 55.5703 91.6784 54.9114 92.4911 54.9114H141.285C142.097 54.9114 142.756 55.5703 142.756 56.3835V79.0957C142.756 79.9084 142.097 80.5673 141.285 80.5673Z" fill="url(#paint5_linear)"/>
<path d="M111.368 58.8598C110.528 57.9164 109.13 57.5519 107.884 58.1086C106.665 58.6539 105.494 59.3662 104.422 59.9617C103.774 60.3219 103.243 60.6854 102.769 61.0475C102.257 60.8104 101.686 60.6774 101.084 60.6774C100.452 60.6774 99.8553 60.8232 99.3232 61.0826C98.8551 60.7337 98.3302 60.3844 97.695 60.0389C96.6176 59.4533 95.44 58.7518 94.2159 58.2184C92.5067 57.4734 90.5291 58.4489 90.0856 60.2599C89.7675 61.5592 91.2121 62.8453 91.1984 64.1375C91.1984 64.1375 89.7519 67.0589 90.1244 68.5211C90.2782 69.1255 90.6039 69.6339 91.0322 70.0154L103.173 82.1561C103.251 82.2441 103.334 82.3265 103.42 82.4041C103.663 82.6772 103.952 82.9021 104.27 83.0701C104.318 83.0961 104.368 83.1203 104.417 83.143C104.419 83.1439 104.421 83.1449 104.423 83.1453C104.471 83.1676 104.519 83.1884 104.568 83.2078C104.572 83.2092 104.576 83.2107 104.58 83.2121C104.627 83.2306 104.674 83.2481 104.722 83.2642C104.728 83.2661 104.733 83.2679 104.74 83.2698C104.785 83.285 104.831 83.2987 104.878 83.312C104.886 83.3139 104.894 83.3162 104.902 83.3181C104.946 83.3304 104.991 83.3413 105.036 83.3513C105.046 83.3536 105.056 83.3555 105.066 83.3579C105.11 83.3669 105.153 83.3749 105.197 83.382C105.209 83.3839 105.221 83.3858 105.232 83.3877C105.275 83.3943 105.317 83.3995 105.359 83.4043C105.373 83.4057 105.386 83.4071 105.4 83.4085C105.441 83.4128 105.481 83.4152 105.523 83.4175C105.538 83.4185 105.553 83.4194 105.568 83.4199C105.608 83.4218 105.647 83.4223 105.687 83.4223C105.703 83.4223 105.72 83.4223 105.737 83.4218C105.775 83.4213 105.814 83.4194 105.852 83.4175C105.87 83.4161 105.888 83.4156 105.907 83.4142C105.944 83.4114 105.98 83.4076 106.017 83.4033C106.037 83.401 106.056 83.3991 106.076 83.3967C106.112 83.392 106.148 83.3858 106.183 83.3797C106.204 83.3763 106.225 83.3735 106.245 83.3692C106.28 83.3626 106.315 83.3546 106.35 83.3465C106.371 83.3418 106.392 83.3375 106.413 83.3323C106.448 83.3233 106.483 83.3129 106.518 83.3025C106.539 83.2968 106.56 83.2916 106.58 83.285C106.618 83.2732 106.655 83.2594 106.692 83.2462C106.71 83.24 106.728 83.2343 106.746 83.2277C106.801 83.2069 106.855 83.1842 106.91 83.16C107.672 82.8197 108.415 82.4136 109.127 82.0112C109.269 81.9308 109.411 81.8508 109.55 81.7712C109.83 81.6122 110.104 81.456 110.372 81.3069C110.749 81.0972 111.087 80.8866 111.397 80.6759C111.412 80.6655 111.426 80.6551 111.441 80.6447C112.089 81.0915 112.874 81.3538 113.72 81.3538C114.593 81.3538 115.401 81.0745 116.06 80.6021C116.374 80.8123 116.717 81.022 117.099 81.2297C117.234 81.3031 117.37 81.3784 117.508 81.4551C118.334 81.9123 119.213 82.415 120.121 82.8429C120.273 82.9144 120.425 82.9839 120.578 83.0502C120.633 83.0743 120.688 83.0961 120.743 83.1165C120.76 83.1231 120.778 83.1283 120.795 83.1345C120.797 83.1349 120.798 83.1354 120.8 83.1359C120.817 83.142 120.834 83.1477 120.852 83.1534C120.871 83.1595 120.89 83.1666 120.909 83.1723C120.929 83.1785 120.95 83.1837 120.969 83.1894C121.004 83.1988 121.038 83.2088 121.073 83.2173C121.076 83.2182 121.078 83.2187 121.082 83.2197C121.101 83.2239 121.12 83.2272 121.138 83.2315C121.174 83.2395 121.209 83.2471 121.245 83.2537C121.264 83.2575 121.283 83.2599 121.303 83.2632C121.319 83.2656 121.334 83.2684 121.351 83.2708C121.372 83.2736 121.393 83.2769 121.414 83.2793C121.433 83.2817 121.453 83.2836 121.472 83.2855C121.506 83.2888 121.54 83.2926 121.574 83.2949C121.58 83.2954 121.585 83.2959 121.59 83.2959C121.607 83.2968 121.622 83.2973 121.638 83.2978C121.677 83.2997 121.715 83.3011 121.753 83.3016C121.77 83.3016 121.786 83.3016 121.804 83.3011H121.809C121.822 83.3011 121.835 83.3011 121.848 83.3006C121.873 83.3001 121.897 83.2992 121.922 83.2982C121.937 83.2973 121.953 83.2963 121.968 83.2954C122.003 83.293 122.037 83.2907 122.072 83.2874C122.08 83.2864 122.088 83.2855 122.096 83.2845C122.107 83.2836 122.119 83.2821 122.131 83.2803C122.173 83.2755 122.215 83.2698 122.257 83.2627C122.269 83.2608 122.281 83.259 122.292 83.2571C122.299 83.2556 122.306 83.2547 122.313 83.2533C122.32 83.2523 122.327 83.2509 122.335 83.2495C122.364 83.2443 122.394 83.2376 122.424 83.231C122.433 83.2291 122.443 83.2268 122.452 83.2244C122.488 83.2164 122.523 83.2078 122.559 83.1984C122.567 83.196 122.576 83.1936 122.584 83.1913C122.585 83.1908 122.586 83.1903 122.587 83.1903C122.595 83.188 122.603 83.1856 122.611 83.1837C122.657 83.1704 122.704 83.1558 122.75 83.1401C122.755 83.1382 122.761 83.1364 122.766 83.1345C122.814 83.1179 122.861 83.0999 122.909 83.081C122.913 83.0796 122.916 83.0781 122.92 83.0762C122.955 83.062 122.99 83.0474 123.024 83.0317C123.029 83.0289 123.035 83.0265 123.041 83.0242C123.049 83.0204 123.056 83.0166 123.064 83.0128C123.066 83.0119 123.068 83.0114 123.07 83.0104C123.204 82.947 123.333 82.8741 123.456 82.7918C123.459 82.7899 123.462 82.788 123.465 82.7861C123.599 82.6962 123.727 82.5949 123.845 82.4841C123.846 82.4831 123.847 82.4822 123.848 82.4813C124.256 82.0993 124.564 81.599 124.708 81.0092C125.067 79.5442 123.593 76.636 123.593 76.636C123.568 75.3438 125 74.0445 124.67 72.7485C124.515 72.1412 124.187 71.6309 123.757 71.2485L111.368 58.8598Z" fill="url(#paint6_linear)"/>
<path d="M85.5859 66.9087V61.7242C85.5859 61.0554 86.1279 60.5134 86.7972 60.5134H146.416C147.085 60.5134 147.627 61.0554 147.627 61.7242V66.9087C147.627 67.5775 147.085 68.12 146.416 68.12H86.7972C86.1279 68.12 85.5859 67.5775 85.5859 66.9087V66.9087Z" fill="url(#paint7_linear)"/>
<path d="M107.459 68.12H119.631L112.024 60.5134H107.459V68.12Z" fill="url(#paint8_linear)"/>
<path d="M103.678 85.8052H98.493C97.8242 85.8052 97.2822 85.2627 97.2822 84.5939V50.8841C97.2822 50.2153 97.8242 49.6729 98.493 49.6729H103.678C104.346 49.6729 104.889 50.2148 104.889 50.8841V84.5939C104.889 85.2627 104.346 85.8052 103.678 85.8052Z" fill="url(#paint9_linear)"/>
<path d="M97.2822 68.8898L104.889 76.4968V65.5845H97.2822V68.8898Z" fill="url(#paint10_linear)"/>
<path d="M100.104 61.698C99.4373 61.1471 98.7051 60.5871 97.695 60.038C96.6176 59.452 95.4395 58.7506 94.2154 58.2171C92.5062 57.4725 90.5291 58.4481 90.0856 60.2591C89.7675 61.5584 91.2121 62.8445 91.1984 64.1367C91.1984 64.1367 89.7519 67.0581 90.1244 68.5198C90.5845 70.3265 92.5711 71.2836 94.2732 70.523C95.492 69.9781 96.6635 69.2658 97.7352 68.6698C98.7401 68.1108 99.4671 67.5442 100.129 66.9871C101.772 65.6031 101.76 63.0665 100.104 61.698Z" fill="url(#paint11_linear)"/>
<path d="M110.958 63.9993C110.932 62.7071 112.365 61.4073 112.034 60.1113C111.574 58.3046 109.588 57.3475 107.885 58.1082C106.667 58.653 105.495 59.3653 104.423 59.9613C103.419 60.5203 102.691 61.0869 102.03 61.6435C100.386 63.028 100.399 65.5647 102.055 66.9331C102.721 67.4836 103.454 68.0435 104.464 68.5931C105.541 69.1791 106.719 69.8801 107.943 70.4135C109.652 71.1586 111.63 70.183 112.073 68.372C112.432 66.9071 110.958 63.9993 110.958 63.9993Z" fill="url(#paint12_linear)"/>
<path d="M100.128 66.9881C100.652 66.5469 101.006 65.9889 101.194 65.3892C98.1542 65.676 93.4081 66.7287 91.6326 70.4335C92.4183 70.8491 93.3839 70.9206 94.2724 70.5235C95.4912 69.9786 96.6627 69.2663 97.7344 68.6708C98.7397 68.1118 99.4663 67.5447 100.128 66.9881Z" fill="url(#paint13_linear)"/>
<path d="M92.4568 64.1393C92.4625 65.3558 92.6225 68.7018 95.978 69.6613C96.5862 69.3261 97.1746 68.9825 97.7355 68.6706C98.7409 68.112 99.4674 67.545 100.129 66.9883C101.05 66.2125 101.451 65.0746 101.334 63.9831C101.334 63.9831 99.573 63.0426 98.791 62.6686C94.5665 60.6465 92.4488 62.4277 92.4568 64.1393Z" fill="url(#paint14_linear)"/>
<path d="M102.054 66.9337C101.526 66.4973 101.166 65.943 100.972 65.3447C104.015 65.6032 108.771 66.6114 110.581 70.2996C109.799 70.7223 108.834 70.8028 107.942 70.4142C106.718 69.8807 105.54 69.1792 104.463 68.5937C103.452 68.0442 102.72 67.4842 102.054 66.9337Z" fill="url(#paint15_linear)"/>
<path d="M109.7 64.0129C109.705 65.2293 109.577 68.5768 106.231 69.5675C105.62 69.238 105.028 68.9001 104.464 68.5933C103.454 68.0443 102.721 67.4843 102.055 66.9333C101.126 66.1665 100.715 65.0324 100.821 63.9395C100.821 63.9395 102.574 62.9829 103.352 62.6014C107.558 60.54 109.692 62.3017 109.7 64.0129Z" fill="url(#paint16_linear)"/>
<path d="M111.546 69.4761L104.023 61.9533C103.67 61.5756 103.245 61.267 102.77 61.0469C102.509 61.2466 102.265 61.4459 102.03 61.6438C100.387 63.0278 100.398 65.5644 102.055 66.9333C102.722 67.4838 103.454 68.0438 104.464 68.5933C105.541 69.1788 106.719 69.8803 107.943 70.4138C109.26 70.9875 110.735 70.5397 111.546 69.4761Z" fill="url(#paint17_linear)"/>
<path d="M105.102 64.6976C105.102 66.9175 103.302 68.7176 101.082 68.7176C98.8614 68.7176 97.0613 66.9175 97.0613 64.6976C97.0613 62.4771 98.8614 60.6775 101.082 60.6775C103.302 60.6775 105.102 62.4771 105.102 64.6976Z" fill="url(#paint18_linear)"/>
<path d="M106.25 72.2088C106.25 72.1 106.314 72.0062 106.441 71.9272C106.568 71.8486 106.705 71.8093 106.85 71.8093C107.032 71.8093 107.143 71.8761 107.186 72.0091L108.685 77.186L110.174 72.0091C110.216 71.8761 110.324 71.8093 110.499 71.8093C110.643 71.8093 110.78 71.8486 110.91 71.9272C111.039 72.0053 111.104 72.099 111.104 72.2074C111.104 72.2254 111.098 72.2528 111.086 72.2888L109.289 78.1748C109.258 78.278 109.186 78.3589 109.072 78.4167C108.958 78.4744 108.829 78.5033 108.685 78.5033C108.351 78.5033 108.149 78.3939 108.076 78.1762L106.259 72.2907C106.254 72.2723 106.25 72.2453 106.25 72.2088Z" fill="url(#paint19_linear)"/>
<path d="M111.766 76.4779V73.8347C111.766 73.1385 111.95 72.6268 112.32 72.2997C112.689 71.9726 113.183 71.8093 113.8 71.8093C114.418 71.8093 114.913 71.9726 115.285 72.2997C115.658 72.6268 115.844 73.1385 115.844 73.8347V76.4779C115.844 77.1741 115.658 77.6858 115.285 78.0124C114.913 78.3395 114.418 78.5033 113.8 78.5033C113.183 78.5033 112.689 78.3395 112.32 78.0124C111.95 77.6858 111.766 77.1741 111.766 76.4779ZM112.728 76.4779C112.728 77.2589 113.086 77.6494 113.8 77.6494C114.145 77.6494 114.412 77.5523 114.599 77.3587C114.787 77.1652 114.881 76.8712 114.881 76.4779V73.8347C114.881 73.4409 114.787 73.1475 114.599 72.9539C114.412 72.7598 114.145 72.6632 113.8 72.6632C113.086 72.6632 112.728 73.0537 112.728 73.8347V76.4779Z" fill="url(#paint20_linear)"/>
<path d="M116.943 76.4783V72.1184C116.943 72.0157 116.99 71.9381 117.084 71.887C117.178 71.8354 117.291 71.8098 117.425 71.8098C117.558 71.8098 117.671 71.8354 117.765 71.887C117.859 71.9381 117.906 72.0157 117.906 72.1184V76.4783C117.906 76.8717 118.003 77.1656 118.197 77.3592C118.39 77.5528 118.663 77.6499 119.014 77.6499C119.759 77.6499 120.131 77.2593 120.131 76.4779V72.1184C120.131 72.0152 120.178 71.9381 120.272 71.8865C120.366 71.8354 120.479 71.8093 120.613 71.8093C120.746 71.8093 120.859 71.8354 120.953 71.8865C121.047 71.9381 121.094 72.0152 121.094 72.1184V76.4779C121.094 77.1746 120.905 77.6858 120.527 78.0129C120.148 78.34 119.644 78.5033 119.014 78.5033C118.39 78.5033 117.89 78.34 117.511 78.0129C117.132 77.6863 116.943 77.1746 116.943 76.4783Z" fill="url(#paint21_linear)"/>
<path d="M122.201 76.4779V73.8347C122.201 73.1385 122.387 72.6268 122.76 72.2997C123.132 71.9726 123.618 71.8093 124.218 71.8093C124.835 71.8093 125.333 71.9622 125.711 72.2675C126.09 72.5738 126.279 72.9685 126.279 73.4528C126.279 73.6468 126.243 73.7784 126.17 73.848C126.098 73.9176 125.973 73.9526 125.798 73.9526C125.483 73.9526 125.322 73.8466 125.316 73.6345C125.28 72.987 124.926 72.6628 124.254 72.6628C123.527 72.6628 123.164 73.0533 123.164 73.8347V76.4779C123.164 77.2589 123.533 77.6494 124.272 77.6494C124.49 77.6494 124.672 77.6177 124.817 77.5542C124.962 77.4903 125.067 77.398 125.13 77.2769C125.194 77.1562 125.238 77.0501 125.262 76.9593C125.286 76.8684 125.304 76.7562 125.316 76.6232C125.335 76.4111 125.492 76.3051 125.789 76.3051C125.964 76.3051 126.09 76.3401 126.166 76.4097C126.241 76.4793 126.279 76.6109 126.279 76.8049C126.279 77.3076 126.088 77.7161 125.707 78.0309C125.326 78.3457 124.826 78.5033 124.209 78.5033C123.609 78.5033 123.125 78.3395 122.755 78.0124C122.386 77.6858 122.201 77.1741 122.201 76.4779Z" fill="url(#paint22_linear)"/>
<path d="M127.177 78.1308V72.1179C127.177 72.0152 127.224 71.9381 127.318 71.8865C127.412 71.8354 127.525 71.8093 127.659 71.8093C127.792 71.8093 127.905 71.8349 127.999 71.8865C128.093 71.9381 128.14 72.0152 128.14 72.1179V74.6247H130.402V72.1179C130.402 72.0152 130.449 71.9381 130.542 71.8865C130.636 71.8354 130.75 71.8093 130.883 71.8093C131.016 71.8093 131.13 71.8349 131.224 71.8865C131.317 71.9381 131.364 72.0152 131.364 72.1179V78.1308C131.364 78.2278 131.317 78.305 131.224 78.3622C131.13 78.42 131.016 78.4488 130.883 78.4488C130.756 78.4488 130.644 78.42 130.547 78.3622C130.45 78.305 130.402 78.2278 130.402 78.1308V75.3878H128.14V78.1308C128.14 78.2278 128.093 78.305 127.999 78.3622C127.905 78.42 127.792 78.4488 127.659 78.4488C127.532 78.4488 127.419 78.42 127.323 78.3622C127.226 78.305 127.177 78.2278 127.177 78.1308Z" fill="url(#paint23_linear)"/>
<path d="M132.564 78.1308V72.1269C132.564 72.0304 132.607 71.9532 132.692 71.8955C132.776 71.8377 132.876 71.8093 132.991 71.8093H136.225C136.328 71.8093 136.406 71.8515 136.461 71.9362C136.515 72.0209 136.543 72.1179 136.543 72.2268C136.543 72.348 136.514 72.4512 136.456 72.5359C136.399 72.6206 136.322 72.6628 136.225 72.6628H133.527V74.7431H134.926C135.023 74.7431 135.1 74.7809 135.158 74.8562C135.215 74.9324 135.244 75.0242 135.244 75.1336C135.244 75.2301 135.216 75.3168 135.162 75.3925C135.107 75.4682 135.029 75.5056 134.926 75.5056H133.527V77.5949H136.225C136.322 77.5949 136.399 77.6371 136.456 77.7218C136.514 77.807 136.543 77.9097 136.543 78.0309C136.543 78.1398 136.515 78.2368 136.461 78.3215C136.406 78.4062 136.328 78.4484 136.225 78.4484H132.991C132.876 78.4484 132.776 78.42 132.692 78.3622C132.607 78.305 132.564 78.2278 132.564 78.1308Z" fill="url(#paint24_linear)"/>
<path d="M137.314 78.1308V72.1179C137.314 72.0332 137.344 71.9608 137.405 71.9002C137.465 71.8396 137.542 71.8093 137.632 71.8093H139.358C140.75 71.8093 141.447 72.427 141.447 73.662C141.447 74.1746 141.332 74.5769 141.102 74.8695C140.872 75.162 140.56 75.3565 140.166 75.4531L141.438 77.8472C141.462 77.8898 141.474 77.9353 141.474 77.984C141.474 78.1052 141.412 78.2174 141.288 78.321C141.164 78.4242 141.032 78.4758 140.893 78.4758C140.735 78.4758 140.608 78.3816 140.511 78.1937L139.185 75.5875H138.268V78.1298C138.268 78.2269 138.221 78.3045 138.127 78.3622C138.033 78.42 137.92 78.4488 137.786 78.4488C137.66 78.4488 137.549 78.42 137.455 78.3622C137.361 78.305 137.314 78.2278 137.314 78.1308ZM138.268 74.8245H139.358C140.109 74.8245 140.484 74.4648 140.484 73.7439C140.484 73.0234 140.109 72.6628 139.358 72.6628H138.268V74.8245Z" fill="url(#paint25_linear)"/>
<path d="M218.586 14.0913C218.748 14.0913 218.88 13.9595 218.88 13.7968L218.88 12.4233C218.88 12.1444 218.654 11.9182 218.375 11.9182L205.438 11.9172C205.159 11.9172 204.933 12.1434 204.933 12.4223V13.7958C204.933 13.9584 205.064 14.0903 205.227 14.0904C205.39 14.0904 205.522 14.2223 205.522 14.385L205.521 17.0918C205.521 17.2545 205.389 17.3864 205.227 17.3864C205.064 17.3864 204.932 17.5183 204.932 17.681L204.932 19.0545C204.932 19.3334 205.158 19.5595 205.437 19.5596L218.375 19.5604C218.654 19.5604 218.88 19.3344 218.88 19.0555L218.88 17.6819C218.88 17.5192 218.748 17.3873 218.585 17.3873C218.423 17.3873 218.291 17.2555 218.291 17.0927L218.291 14.3859C218.291 14.2232 218.423 14.0913 218.586 14.0913Z" fill="url(#paint26_linear)"/>
<path d="M204.932 17.7771L204.932 19.0547C204.932 19.3336 205.158 19.5596 205.437 19.5597L218.375 19.5606C218.654 19.5606 218.88 19.3345 218.88 19.0556L218.88 17.7772H204.932V17.7771Z" fill="url(#paint27_linear)"/>
<path d="M205.5 15.8245L206.427 16.7518V15.8245H205.5Z" fill="url(#paint28_linear)"/>
<path d="M209.268 11.9456L210.272 12.9496H209.268V11.9456Z" fill="url(#paint29_linear)"/>
<path d="M217.46 18.6262H206.478C206.295 18.6262 206.147 18.478 206.147 18.295V13.1831C206.147 13.0001 206.295 12.8518 206.478 12.8518H217.46C217.643 12.8518 217.791 13.0001 217.791 13.1831V18.295C217.791 18.4779 217.643 18.6262 217.46 18.6262Z" fill="url(#paint30_linear)"/>
<path d="M210.726 13.7404C210.537 13.5281 210.223 13.446 209.942 13.5713C209.668 13.694 209.404 13.8544 209.163 13.9884C209.017 14.0695 208.898 14.1513 208.791 14.2328C208.676 14.1794 208.547 14.1495 208.412 14.1495C208.27 14.1495 208.135 14.1823 208.015 14.2407C207.91 14.1622 207.792 14.0835 207.649 14.0058C207.407 13.874 207.141 13.7161 206.866 13.596C206.481 13.4283 206.036 13.6479 205.936 14.0555C205.865 14.348 206.19 14.6374 206.187 14.9282C206.187 14.9282 205.861 15.5858 205.945 15.9149C205.98 16.0509 206.053 16.1653 206.149 16.2512L208.882 18.9837C208.899 19.0035 208.918 19.022 208.938 19.0395C208.992 19.101 209.057 19.1516 209.129 19.1894C209.14 19.1953 209.151 19.2007 209.162 19.2058C209.162 19.206 209.163 19.2062 209.163 19.2063C209.174 19.2114 209.185 19.216 209.196 19.2204C209.197 19.2207 209.198 19.221 209.199 19.2214C209.209 19.2255 209.22 19.2295 209.23 19.2331C209.232 19.2335 209.233 19.2339 209.235 19.2344C209.245 19.2378 209.255 19.2409 209.266 19.2438C209.267 19.2443 209.269 19.2448 209.271 19.2452C209.281 19.248 209.291 19.2505 209.301 19.2527C209.304 19.2532 209.306 19.2536 209.308 19.2542C209.318 19.2562 209.328 19.258 209.337 19.2596C209.34 19.26 209.343 19.2605 209.345 19.2609C209.355 19.2624 209.364 19.2636 209.374 19.2646C209.377 19.2649 209.38 19.2653 209.383 19.2656C209.392 19.2665 209.401 19.2671 209.411 19.2676C209.414 19.2678 209.418 19.268 209.421 19.2681C209.43 19.2686 209.439 19.2687 209.448 19.2687C209.451 19.2687 209.455 19.2687 209.459 19.2686C209.468 19.2685 209.476 19.268 209.485 19.2676C209.489 19.2673 209.493 19.2672 209.497 19.2669C209.506 19.2662 209.514 19.2654 209.522 19.2644C209.527 19.2639 209.531 19.2634 209.535 19.2629C209.543 19.2619 209.551 19.2605 209.559 19.2591C209.564 19.2583 209.569 19.2577 209.573 19.2567C209.581 19.2552 209.589 19.2534 209.597 19.2516C209.602 19.2506 209.606 19.2496 209.611 19.2484C209.619 19.2464 209.627 19.2441 209.635 19.2417C209.639 19.2404 209.644 19.2393 209.649 19.2378C209.657 19.2351 209.666 19.232 209.674 19.229C209.678 19.2277 209.682 19.2264 209.686 19.2249C209.698 19.2202 209.711 19.2151 209.723 19.2096C209.894 19.1331 210.062 19.0416 210.222 18.9511C210.254 18.933 210.286 18.915 210.317 18.8971C210.38 18.8613 210.442 18.8261 210.502 18.7926C210.587 18.7454 210.663 18.698 210.733 18.6506C210.736 18.6482 210.739 18.6459 210.743 18.6435C210.889 18.7441 211.065 18.8031 211.256 18.8031C211.452 18.8031 211.634 18.7403 211.782 18.6339C211.853 18.6812 211.93 18.7284 212.016 18.7752C212.047 18.7917 212.077 18.8087 212.108 18.8259C212.294 18.9288 212.492 19.042 212.696 19.1383C212.731 19.1544 212.765 19.17 212.799 19.1849C212.812 19.1904 212.824 19.1953 212.836 19.1998C212.84 19.2013 212.844 19.2025 212.848 19.2039C212.848 19.204 212.849 19.2041 212.849 19.2042C212.853 19.2056 212.857 19.2069 212.861 19.2082C212.865 19.2095 212.869 19.2111 212.874 19.2124C212.878 19.2138 212.883 19.215 212.887 19.2163C212.895 19.2184 212.903 19.2206 212.911 19.2225C212.911 19.2228 212.912 19.2229 212.913 19.2231C212.917 19.224 212.921 19.2248 212.925 19.2257C212.933 19.2275 212.941 19.2293 212.949 19.2307C212.954 19.2316 212.958 19.2321 212.962 19.2329C212.966 19.2334 212.97 19.234 212.973 19.2346C212.978 19.2352 212.983 19.236 212.987 19.2365C212.992 19.237 212.996 19.2375 213.001 19.2379C213.008 19.2386 213.016 19.2395 213.023 19.24C213.025 19.2401 213.026 19.2402 213.027 19.2402C213.031 19.2404 213.034 19.2405 213.038 19.2407C213.047 19.2411 213.055 19.2414 213.064 19.2415C213.068 19.2415 213.071 19.2415 213.075 19.2414H213.076C213.079 19.2414 213.082 19.2414 213.085 19.2413C213.091 19.2412 213.096 19.241 213.102 19.2408C213.105 19.2405 213.109 19.2403 213.112 19.2401C213.12 19.2396 213.128 19.2391 213.136 19.2383C213.137 19.2381 213.139 19.2379 213.141 19.2377C213.143 19.2375 213.146 19.2371 213.149 19.2367C213.158 19.2356 213.168 19.2344 213.177 19.2328C213.18 19.2323 213.182 19.2319 213.185 19.2315C213.187 19.2312 213.188 19.231 213.19 19.2306C213.191 19.2304 213.193 19.2301 213.195 19.2298C213.201 19.2286 213.208 19.2271 213.215 19.2256C213.217 19.2252 213.219 19.2247 213.221 19.2241C213.229 19.2223 213.237 19.2204 213.245 19.2183C213.247 19.2177 213.249 19.2172 213.251 19.2167C213.251 19.2166 213.251 19.2165 213.252 19.2165C213.253 19.2159 213.255 19.2154 213.257 19.215C213.267 19.212 213.278 19.2087 213.288 19.2052C213.289 19.2047 213.291 19.2043 213.292 19.2039C213.303 19.2002 213.313 19.1961 213.324 19.1919C213.325 19.1915 213.326 19.1912 213.326 19.1908C213.334 19.1876 213.342 19.1843 213.35 19.1808C213.351 19.1801 213.352 19.1796 213.354 19.1791C213.355 19.1782 213.357 19.1774 213.359 19.1765C213.359 19.1763 213.36 19.1762 213.36 19.176C213.39 19.1617 213.419 19.1453 213.447 19.1268C213.448 19.1263 213.448 19.1259 213.449 19.1255C213.479 19.1052 213.508 19.0824 213.535 19.0575C213.535 19.0573 213.535 19.0571 213.535 19.0569C213.627 18.9709 213.696 18.8583 213.729 18.7256C213.81 18.3958 213.478 17.7413 213.478 17.7413C213.472 17.4504 213.795 17.158 213.72 16.8663C213.685 16.7296 213.612 16.6148 213.515 16.5287L210.726 13.7404Z" fill="url(#paint31_linear)"/>
<path d="M204.924 15.5522V14.3853C204.924 14.2348 205.046 14.1128 205.196 14.1128H218.615C218.765 14.1128 218.888 14.2348 218.888 14.3853V15.5522C218.888 15.7027 218.766 15.8248 218.615 15.8248H205.196C205.046 15.8248 204.924 15.7027 204.924 15.5522V15.5522Z" fill="url(#paint32_linear)"/>
<path d="M209.847 15.8248H212.586L210.874 14.1128H209.847V15.8248Z" fill="url(#paint33_linear)"/>
<path d="M208.996 19.8052H207.829C207.679 19.8052 207.557 19.6831 207.557 19.5325V11.9455C207.557 11.7949 207.679 11.6729 207.829 11.6729H208.996C209.147 11.6729 209.269 11.7948 209.269 11.9455V19.5325C209.269 19.6831 209.147 19.8052 208.996 19.8052Z" fill="url(#paint34_linear)"/>
<path d="M207.557 15.9978L209.269 17.7099V15.2539H207.557V15.9978Z" fill="url(#paint35_linear)"/>
<path d="M208.191 14.3794C208.041 14.2554 207.876 14.1293 207.649 14.0058C207.407 13.8739 207.141 13.716 206.866 13.5959C206.481 13.4283 206.036 13.6479 205.936 14.0555C205.865 14.3479 206.19 14.6374 206.187 14.9282C206.187 14.9282 205.861 15.5858 205.945 15.9147C206.049 16.3214 206.496 16.5368 206.879 16.3656C207.153 16.243 207.417 16.0826 207.658 15.9485C207.884 15.8227 208.048 15.6952 208.197 15.5698C208.567 15.2583 208.564 14.6874 208.191 14.3794Z" fill="url(#paint36_linear)"/>
<path d="M210.634 14.8973C210.628 14.6065 210.951 14.3139 210.876 14.0222C210.773 13.6156 210.326 13.4002 209.943 13.5714C209.668 13.694 209.405 13.8543 209.164 13.9885C208.937 14.1143 208.774 14.2418 208.625 14.3671C208.255 14.6787 208.258 15.2496 208.63 15.5576C208.78 15.6815 208.945 15.8075 209.173 15.9312C209.415 16.0631 209.68 16.2209 209.956 16.341C210.34 16.5086 210.786 16.2891 210.885 15.8815C210.966 15.5518 210.634 14.8973 210.634 14.8973Z" fill="url(#paint37_linear)"/>
<path d="M208.197 15.5701C208.315 15.4708 208.395 15.3452 208.437 15.2102C207.753 15.2748 206.685 15.5117 206.285 16.3455C206.462 16.4391 206.679 16.4552 206.879 16.3658C207.153 16.2432 207.417 16.0828 207.658 15.9488C207.885 15.823 208.048 15.6954 208.197 15.5701Z" fill="url(#paint38_linear)"/>
<path d="M206.47 14.9288C206.471 15.2026 206.508 15.9557 207.263 16.1716C207.4 16.0962 207.532 16.0189 207.658 15.9486C207.885 15.8229 208.048 15.6953 208.197 15.57C208.404 15.3954 208.495 15.1393 208.468 14.8936C208.468 14.8936 208.072 14.682 207.896 14.5978C206.945 14.1427 206.468 14.5436 206.47 14.9288Z" fill="url(#paint39_linear)"/>
<path d="M208.63 15.5578C208.512 15.4596 208.431 15.3349 208.387 15.2002C209.072 15.2584 210.142 15.4853 210.55 16.3154C210.374 16.4105 210.156 16.4286 209.956 16.3412C209.68 16.2211 209.415 16.0632 209.173 15.9314C208.945 15.8078 208.78 15.6817 208.63 15.5578Z" fill="url(#paint40_linear)"/>
<path d="M210.351 14.9004C210.352 15.1742 210.323 15.9276 209.57 16.1506C209.433 16.0764 209.3 16.0003 209.173 15.9313C208.945 15.8077 208.78 15.6817 208.63 15.5577C208.421 15.3851 208.329 15.1298 208.353 14.8839C208.353 14.8839 208.747 14.6686 208.922 14.5827C209.869 14.1187 210.349 14.5152 210.351 14.9004Z" fill="url(#paint41_linear)"/>
<path d="M210.767 16.1301L209.073 14.4369C208.994 14.3519 208.898 14.2824 208.791 14.2329C208.733 14.2779 208.678 14.3227 208.625 14.3672C208.255 14.6788 208.258 15.2497 208.63 15.5578C208.78 15.6817 208.945 15.8077 209.173 15.9314C209.415 16.0632 209.68 16.2211 209.956 16.3411C210.252 16.4702 210.584 16.3695 210.767 16.1301Z" fill="url(#paint42_linear)"/>
<path d="M209.316 15.0545C209.316 15.5541 208.911 15.9593 208.411 15.9593C207.911 15.9593 207.506 15.5541 207.506 15.0545C207.506 14.5547 207.911 14.1497 208.411 14.1497C208.911 14.1497 209.316 14.5547 209.316 15.0545Z" fill="url(#paint43_linear)"/>
<path d="M209.575 16.7452C209.575 16.7207 209.589 16.6996 209.618 16.6818C209.646 16.6641 209.677 16.6553 209.71 16.6553C209.751 16.6553 209.776 16.6703 209.785 16.7002L210.123 17.8654L210.458 16.7002C210.467 16.6703 210.492 16.6553 210.531 16.6553C210.563 16.6553 210.594 16.6641 210.623 16.6818C210.653 16.6994 210.667 16.7205 210.667 16.7449C210.667 16.7489 210.666 16.7551 210.663 16.7632L210.259 18.0879C210.252 18.1112 210.235 18.1294 210.21 18.1424C210.184 18.1554 210.155 18.1619 210.123 18.1619C210.048 18.1619 210.002 18.1373 209.986 18.0883L209.577 16.7636C209.575 16.7595 209.575 16.7534 209.575 16.7452Z" fill="url(#paint44_linear)"/>
<path d="M210.816 17.706V17.1111C210.816 16.9544 210.858 16.8393 210.941 16.7656C211.024 16.692 211.135 16.6553 211.274 16.6553C211.413 16.6553 211.524 16.692 211.608 16.7656C211.692 16.8393 211.734 16.9544 211.734 17.1111V17.706C211.734 17.8627 211.692 17.9779 211.608 18.0514C211.524 18.125 211.413 18.1619 211.274 18.1619C211.135 18.1619 211.024 18.125 210.941 18.0514C210.858 17.9779 210.816 17.8627 210.816 17.706ZM211.033 17.706C211.033 17.8818 211.113 17.9697 211.274 17.9697C211.352 17.9697 211.412 17.9479 211.454 17.9043C211.496 17.8607 211.517 17.7946 211.517 17.706V17.1111C211.517 17.0225 211.496 16.9564 211.454 16.9129C211.412 16.8692 211.352 16.8475 211.274 16.8475C211.113 16.8475 211.033 16.9354 211.033 17.1111V17.706Z" fill="url(#paint45_linear)"/>
<path d="M211.981 17.7061V16.7248C211.981 16.7017 211.992 16.6843 212.013 16.6727C212.034 16.6611 212.06 16.6554 212.09 16.6554C212.12 16.6554 212.145 16.6611 212.166 16.6727C212.188 16.6843 212.198 16.7017 212.198 16.7248V17.7061C212.198 17.7947 212.22 17.8608 212.264 17.9044C212.307 17.948 212.368 17.9698 212.448 17.9698C212.615 17.9698 212.699 17.8819 212.699 17.706V16.7248C212.699 16.7016 212.71 16.6843 212.731 16.6726C212.752 16.6611 212.777 16.6553 212.807 16.6553C212.837 16.6553 212.863 16.6611 212.884 16.6726C212.905 16.6843 212.916 16.7016 212.916 16.7248V17.706C212.916 17.8628 212.873 17.9779 212.788 18.0515C212.703 18.1251 212.589 18.1619 212.448 18.1619C212.307 18.1619 212.194 18.1251 212.109 18.0515C212.024 17.978 211.981 17.8628 211.981 17.7061Z" fill="url(#paint46_linear)"/>
<path d="M213.165 17.706V17.1111C213.165 16.9544 213.207 16.8393 213.291 16.7656C213.374 16.692 213.484 16.6553 213.619 16.6553C213.758 16.6553 213.87 16.6897 213.955 16.7584C214.04 16.8273 214.083 16.9162 214.083 17.0252C214.083 17.0688 214.074 17.0985 214.058 17.1141C214.042 17.1298 214.014 17.1377 213.974 17.1377C213.903 17.1377 213.867 17.1138 213.866 17.0661C213.858 16.9203 213.778 16.8474 213.627 16.8474C213.463 16.8474 213.381 16.9352 213.381 17.1111V17.706C213.381 17.8818 213.465 17.9697 213.631 17.9697C213.68 17.9697 213.721 17.9626 213.754 17.9483C213.786 17.9339 213.81 17.9131 213.824 17.8859C213.838 17.8587 213.848 17.8348 213.854 17.8144C213.859 17.7939 213.863 17.7687 213.866 17.7387C213.87 17.691 213.905 17.6671 213.972 17.6671C214.012 17.6671 214.04 17.675 214.057 17.6907C214.074 17.7063 214.083 17.736 214.083 17.7796C214.083 17.8928 214.04 17.9847 213.954 18.0556C213.868 18.1264 213.756 18.1619 213.617 18.1619C213.482 18.1619 213.373 18.125 213.29 18.0514C213.206 17.9779 213.165 17.8627 213.165 17.706Z" fill="url(#paint47_linear)"/>
<path d="M214.285 18.078V16.7247C214.285 16.7016 214.295 16.6843 214.317 16.6726C214.338 16.6611 214.363 16.6553 214.393 16.6553C214.423 16.6553 214.449 16.661 214.47 16.6726C214.491 16.6843 214.502 16.7016 214.502 16.7247V17.2889H215.011V16.7247C215.011 16.7016 215.021 16.6843 215.042 16.6726C215.063 16.6611 215.089 16.6553 215.119 16.6553C215.149 16.6553 215.174 16.661 215.196 16.6726C215.217 16.6843 215.227 16.7016 215.227 16.7247V18.078C215.227 18.0999 215.217 18.1172 215.196 18.1301C215.174 18.1431 215.149 18.1496 215.119 18.1496C215.09 18.1496 215.065 18.1431 215.043 18.1301C215.021 18.1172 215.011 18.0999 215.011 18.078V17.4607H214.502V18.078C214.502 18.0999 214.491 18.1172 214.47 18.1301C214.449 18.1431 214.423 18.1496 214.393 18.1496C214.365 18.1496 214.339 18.1431 214.318 18.1301C214.296 18.1172 214.285 18.0999 214.285 18.078Z" fill="url(#paint48_linear)"/>
<path d="M215.497 18.078V16.7268C215.497 16.705 215.507 16.6877 215.526 16.6747C215.545 16.6617 215.568 16.6553 215.593 16.6553H216.321C216.344 16.6553 216.362 16.6648 216.374 16.6838C216.387 16.7029 216.393 16.7247 216.393 16.7492C216.393 16.7765 216.386 16.7997 216.373 16.8188C216.36 16.8379 216.343 16.8474 216.321 16.8474H215.714V17.3156H216.029C216.051 17.3156 216.068 17.3241 216.081 17.341C216.094 17.3582 216.1 17.3789 216.1 17.4035C216.1 17.4252 216.094 17.4447 216.082 17.4617C216.07 17.4788 216.052 17.4872 216.029 17.4872H215.714V17.9574H216.321C216.343 17.9574 216.36 17.9669 216.373 17.986C216.386 18.0052 216.393 18.0283 216.393 18.0556C216.393 18.0801 216.387 18.1019 216.374 18.121C216.362 18.14 216.344 18.1495 216.321 18.1495H215.593C215.568 18.1495 215.545 18.1431 215.526 18.1301C215.507 18.1172 215.497 18.0999 215.497 18.078Z" fill="url(#paint49_linear)"/>
<path d="M216.566 18.078V16.7247C216.566 16.7057 216.573 16.6894 216.587 16.6757C216.6 16.6621 216.618 16.6553 216.638 16.6553H217.026C217.34 16.6553 217.496 16.7943 217.496 17.0722C217.496 17.1876 217.471 17.2782 217.419 17.344C217.367 17.4099 217.297 17.4536 217.208 17.4754L217.494 18.0142C217.5 18.0238 217.503 18.034 217.503 18.045C217.503 18.0723 217.489 18.0975 217.461 18.1209C217.433 18.1441 217.403 18.1557 217.372 18.1557C217.336 18.1557 217.308 18.1345 217.286 18.0922L216.987 17.5056H216.781V18.0778C216.781 18.0997 216.77 18.1171 216.749 18.1301C216.728 18.1431 216.703 18.1496 216.673 18.1496C216.644 18.1496 216.619 18.1431 216.598 18.1301C216.577 18.1172 216.566 18.0999 216.566 18.078ZM216.781 17.3339H217.026C217.195 17.3339 217.28 17.2529 217.28 17.0907C217.28 16.9285 217.195 16.8474 217.026 16.8474H216.781V17.3339Z" fill="url(#paint50_linear)"/>
<defs>
<linearGradient id="paint0_linear" x1="127.339" y1="-25.3213" x2="133.648" y2="259.797" gradientUnits="userSpaceOnUse">
<stop stop-color="#FD749B"/>
<stop offset="1" stop-color="#281AC8"/>
</linearGradient>
<linearGradient id="paint1_linear" x1="100.537" y1="51.667" x2="142.481" y2="93.6106" gradientUnits="userSpaceOnUse">
<stop stop-color="#FFD459"/>
<stop offset="0.2296" stop-color="#FFD355"/>
<stop offset="0.4362" stop-color="#FFCF4A"/>
<stop offset="0.634" stop-color="#FFC838"/>
<stop offset="0.825" stop-color="#FFBF1F"/>
<stop offset="1" stop-color="#FFB400"/>
</linearGradient>
<linearGradient id="paint2_linear" x1="116.608" y1="80.2966" x2="116.608" y2="86.5238" gradientUnits="userSpaceOnUse">
<stop stop-color="#E58200" stop-opacity="0"/>
<stop offset="0.0396" stop-color="#E27F04" stop-opacity="0.039216"/>
<stop offset="0.4671" stop-color="#C15D2F" stop-opacity="0.466667"/>
<stop offset="0.8016" stop-color="#AD4949" stop-opacity="0.8"/>
<stop offset="1" stop-color="#A64153"/>
</linearGradient>
<linearGradient id="paint3_linear" x1="91.356" y1="70.7531" x2="89.7162" y2="67.0049" gradientUnits="userSpaceOnUse">
<stop stop-color="#E58200" stop-opacity="0"/>
<stop offset="0.0396" stop-color="#E27F04" stop-opacity="0.039216"/>
<stop offset="0.4671" stop-color="#C15D2F" stop-opacity="0.466667"/>
<stop offset="0.8016" stop-color="#AD4949" stop-opacity="0.8"/>
<stop offset="1" stop-color="#A64153"/>
</linearGradient>
<linearGradient id="paint4_linear" x1="107.991" y1="55.3092" x2="98.4825" y2="48.5896" gradientUnits="userSpaceOnUse">
<stop stop-color="#E58200" stop-opacity="0"/>
<stop offset="0.0396" stop-color="#E27F04" stop-opacity="0.039216"/>
<stop offset="0.4671" stop-color="#C15D2F" stop-opacity="0.466667"/>
<stop offset="0.8016" stop-color="#AD4949" stop-opacity="0.8"/>
<stop offset="1" stop-color="#A64153"/>
</linearGradient>
<linearGradient id="paint5_linear" x1="103.854" y1="54.704" x2="137.869" y2="88.7235" gradientUnits="userSpaceOnUse">
<stop stop-color="#FFFCF8"/>
<stop offset="0.1875" stop-color="#FAF8F6"/>
<stop offset="0.4041" stop-color="#ECEEF2"/>
<stop offset="0.6353" stop-color="#D5DCEA"/>
<stop offset="0.875" stop-color="#B5C4DF"/>
<stop offset="1" stop-color="#A1B5D8"/>
</linearGradient>
<linearGradient id="paint6_linear" x1="109.967" y1="76.508" x2="99.3165" y2="52.1652" gradientUnits="userSpaceOnUse">
<stop stop-color="#A1B5D8" stop-opacity="0"/>
<stop offset="0.0343" stop-color="#9FB3D5" stop-opacity="0.035294"/>
<stop offset="0.4515" stop-color="#8898AF" stop-opacity="0.45098"/>
<stop offset="0.788" stop-color="#798898" stop-opacity="0.788235"/>
<stop offset="1" stop-color="#748290"/>
</linearGradient>
<linearGradient id="paint7_linear" x1="116.607" y1="62.795" x2="116.607" y2="71.036" gradientUnits="userSpaceOnUse">
<stop stop-color="#FF6E3A"/>
<stop offset="0.1596" stop-color="#FF6440"/>
<stop offset="0.4266" stop-color="#FF4B52"/>
<stop offset="0.7662" stop-color="#FF216E"/>
<stop offset="1" stop-color="#FF0084"/>
</linearGradient>
<linearGradient id="paint8_linear" x1="114.813" y1="69.3878" x2="105.896" y2="60.4705" gradientUnits="userSpaceOnUse">
<stop stop-color="#E58200" stop-opacity="0"/>
<stop offset="0.4384" stop-color="#C4602C" stop-opacity="0.439216"/>
<stop offset="0.7953" stop-color="#AE4948" stop-opacity="0.796078"/>
<stop offset="1" stop-color="#A64153"/>
</linearGradient>
<linearGradient id="paint9_linear" x1="101.085" y1="65.6423" x2="101.085" y2="94.0371" gradientUnits="userSpaceOnUse">
<stop stop-color="#FF6E3A"/>
<stop offset="0.1596" stop-color="#FF6440"/>
<stop offset="0.4266" stop-color="#FF4B52"/>
<stop offset="0.7662" stop-color="#FF216E"/>
<stop offset="1" stop-color="#FF0084"/>
</linearGradient>
<linearGradient id="paint10_linear" x1="105.955" y1="72.1066" x2="97.6056" y2="63.757" gradientUnits="userSpaceOnUse">
<stop stop-color="#E58200" stop-opacity="0"/>
<stop offset="0.4384" stop-color="#C4602C" stop-opacity="0.439216"/>
<stop offset="0.7953" stop-color="#AE4948" stop-opacity="0.796078"/>
<stop offset="1" stop-color="#A64153"/>
</linearGradient>
<linearGradient id="paint11_linear" x1="97.1866" y1="71.6836" x2="93.7963" y2="58.8666" gradientUnits="userSpaceOnUse">
<stop stop-color="#FF0084"/>
<stop offset="0.2338" stop-color="#FF216E"/>
<stop offset="0.5734" stop-color="#FF4B52"/>
<stop offset="0.8404" stop-color="#FF6440"/>
<stop offset="1" stop-color="#FF6E3A"/>
</linearGradient>
<linearGradient id="paint12_linear" x1="106.007" y1="72.2924" x2="107.165" y2="56.5812" gradientUnits="userSpaceOnUse">
<stop stop-color="#FF0084"/>
<stop offset="0.2338" stop-color="#FF216E"/>
<stop offset="0.5734" stop-color="#FF4B52"/>
<stop offset="0.8404" stop-color="#FF6440"/>
<stop offset="1" stop-color="#FF6E3A"/>
</linearGradient>
<linearGradient id="paint13_linear" x1="96.4768" y1="69.4081" x2="96.2378" y2="64.5457" gradientUnits="userSpaceOnUse">
<stop stop-color="#E58200" stop-opacity="0"/>
<stop offset="0.4384" stop-color="#C4602C" stop-opacity="0.439216"/>
<stop offset="0.7953" stop-color="#AE4948" stop-opacity="0.796078"/>
<stop offset="1" stop-color="#A64153"/>
</linearGradient>
<linearGradient id="paint14_linear" x1="95.3384" y1="65.7996" x2="103.474" y2="59.228" gradientUnits="userSpaceOnUse">
<stop stop-color="#E58200" stop-opacity="0"/>
<stop offset="0.4384" stop-color="#C4602C" stop-opacity="0.439216"/>
<stop offset="0.7953" stop-color="#AE4948" stop-opacity="0.796078"/>
<stop offset="1" stop-color="#A64153"/>
</linearGradient>
<linearGradient id="paint15_linear" x1="105.705" y1="69.3188" x2="105.898" y2="64.4534" gradientUnits="userSpaceOnUse">
<stop stop-color="#E58200" stop-opacity="0"/>
<stop offset="0.4384" stop-color="#C4602C" stop-opacity="0.439216"/>
<stop offset="0.7953" stop-color="#AE4948" stop-opacity="0.796078"/>
<stop offset="1" stop-color="#A64153"/>
</linearGradient>
<linearGradient id="paint16_linear" x1="106.812" y1="65.6993" x2="98.6143" y2="59.2044" gradientUnits="userSpaceOnUse">
<stop stop-color="#E58200" stop-opacity="0"/>
<stop offset="0.4384" stop-color="#C4602C" stop-opacity="0.439216"/>
<stop offset="0.7953" stop-color="#AE4948" stop-opacity="0.796078"/>
<stop offset="1" stop-color="#A64153"/>
</linearGradient>
<linearGradient id="paint17_linear" x1="107.614" y1="69.0281" x2="101.351" y2="62.7652" gradientUnits="userSpaceOnUse">
<stop stop-color="#E58200" stop-opacity="0"/>
<stop offset="0.4384" stop-color="#C4602C" stop-opacity="0.439216"/>
<stop offset="0.7953" stop-color="#AE4948" stop-opacity="0.796078"/>
<stop offset="1" stop-color="#A64153"/>
</linearGradient>
<linearGradient id="paint18_linear" x1="98.7572" y1="62.373" x2="104.515" y2="68.1311" gradientUnits="userSpaceOnUse">
<stop stop-color="#FF6E3A"/>
<stop offset="0.1596" stop-color="#FF6440"/>
<stop offset="0.4266" stop-color="#FF4B52"/>
<stop offset="0.7662" stop-color="#FF216E"/>
<stop offset="1" stop-color="#FF0084"/>
</linearGradient>
<linearGradient id="paint19_linear" x1="108.677" y1="73.7948" x2="108.677" y2="79.9815" gradientUnits="userSpaceOnUse">
<stop stop-color="#45425A"/>
<stop offset="1" stop-color="#2D3251"/>
</linearGradient>
<linearGradient id="paint20_linear" x1="113.805" y1="73.7948" x2="113.805" y2="79.9815" gradientUnits="userSpaceOnUse">
<stop stop-color="#45425A"/>
<stop offset="1" stop-color="#2D3251"/>
</linearGradient>
<linearGradient id="paint21_linear" x1="119.019" y1="73.7953" x2="119.019" y2="79.9819" gradientUnits="userSpaceOnUse">
<stop stop-color="#45425A"/>
<stop offset="1" stop-color="#2D3251"/>
</linearGradient>
<linearGradient id="paint22_linear" x1="124.24" y1="73.7948" x2="124.24" y2="79.9815" gradientUnits="userSpaceOnUse">
<stop stop-color="#45425A"/>
<stop offset="1" stop-color="#2D3251"/>
</linearGradient>
<linearGradient id="paint23_linear" x1="129.271" y1="73.7948" x2="129.271" y2="79.9815" gradientUnits="userSpaceOnUse">
<stop stop-color="#45425A"/>
<stop offset="1" stop-color="#2D3251"/>
</linearGradient>
<linearGradient id="paint24_linear" x1="134.553" y1="73.7948" x2="134.553" y2="79.9815" gradientUnits="userSpaceOnUse">
<stop stop-color="#45425A"/>
<stop offset="1" stop-color="#2D3251"/>
</linearGradient>
<linearGradient id="paint25_linear" x1="139.394" y1="73.7948" x2="139.394" y2="79.9815" gradientUnits="userSpaceOnUse">
<stop stop-color="#45425A"/>
<stop offset="1" stop-color="#2D3251"/>
</linearGradient>
<linearGradient id="paint26_linear" x1="208.289" y1="12.1216" x2="217.729" y2="21.5618" gradientUnits="userSpaceOnUse">
<stop stop-color="#FFD459"/>
<stop offset="0.2296" stop-color="#FFD355"/>
<stop offset="0.4362" stop-color="#FFCF4A"/>
<stop offset="0.634" stop-color="#FFC838"/>
<stop offset="0.825" stop-color="#FFBF1F"/>
<stop offset="1" stop-color="#FFB400"/>
</linearGradient>
<linearGradient id="paint27_linear" x1="211.906" y1="18.5654" x2="211.906" y2="19.967" gradientUnits="userSpaceOnUse">
<stop stop-color="#E58200" stop-opacity="0"/>
<stop offset="0.0396" stop-color="#E27F04" stop-opacity="0.039216"/>
<stop offset="0.4671" stop-color="#C15D2F" stop-opacity="0.466667"/>
<stop offset="0.8016" stop-color="#AD4949" stop-opacity="0.8"/>
<stop offset="1" stop-color="#A64153"/>
</linearGradient>
<linearGradient id="paint28_linear" x1="206.223" y1="16.4172" x2="205.854" y2="15.5736" gradientUnits="userSpaceOnUse">
<stop stop-color="#E58200" stop-opacity="0"/>
<stop offset="0.0396" stop-color="#E27F04" stop-opacity="0.039216"/>
<stop offset="0.4671" stop-color="#C15D2F" stop-opacity="0.466667"/>
<stop offset="0.8016" stop-color="#AD4949" stop-opacity="0.8"/>
<stop offset="1" stop-color="#A64153"/>
</linearGradient>
<linearGradient id="paint29_linear" x1="209.967" y1="12.9414" x2="207.826" y2="11.429" gradientUnits="userSpaceOnUse">
<stop stop-color="#E58200" stop-opacity="0"/>
<stop offset="0.0396" stop-color="#E27F04" stop-opacity="0.039216"/>
<stop offset="0.4671" stop-color="#C15D2F" stop-opacity="0.466667"/>
<stop offset="0.8016" stop-color="#AD4949" stop-opacity="0.8"/>
<stop offset="1" stop-color="#A64153"/>
</linearGradient>
<linearGradient id="paint30_linear" x1="209.035" y1="12.8051" x2="216.691" y2="20.4619" gradientUnits="userSpaceOnUse">
<stop stop-color="#FFFCF8"/>
<stop offset="0.1875" stop-color="#FAF8F6"/>
<stop offset="0.4041" stop-color="#ECEEF2"/>
<stop offset="0.6353" stop-color="#D5DCEA"/>
<stop offset="0.875" stop-color="#B5C4DF"/>
<stop offset="1" stop-color="#A1B5D8"/>
</linearGradient>
<linearGradient id="paint31_linear" x1="210.411" y1="17.7125" x2="208.014" y2="12.2336" gradientUnits="userSpaceOnUse">
<stop stop-color="#A1B5D8" stop-opacity="0"/>
<stop offset="0.0343" stop-color="#9FB3D5" stop-opacity="0.035294"/>
<stop offset="0.4515" stop-color="#8898AF" stop-opacity="0.45098"/>
<stop offset="0.788" stop-color="#798898" stop-opacity="0.788235"/>
<stop offset="1" stop-color="#748290"/>
</linearGradient>
<linearGradient id="paint32_linear" x1="211.906" y1="14.6263" x2="211.906" y2="16.4811" gradientUnits="userSpaceOnUse">
<stop stop-color="#FF6E3A"/>
<stop offset="0.1596" stop-color="#FF6440"/>
<stop offset="0.4266" stop-color="#FF4B52"/>
<stop offset="0.7662" stop-color="#FF216E"/>
<stop offset="1" stop-color="#FF0084"/>
</linearGradient>
<linearGradient id="paint33_linear" x1="211.502" y1="16.1102" x2="209.495" y2="14.1031" gradientUnits="userSpaceOnUse">
<stop stop-color="#E58200" stop-opacity="0"/>
<stop offset="0.4384" stop-color="#C4602C" stop-opacity="0.439216"/>
<stop offset="0.7953" stop-color="#AE4948" stop-opacity="0.796078"/>
<stop offset="1" stop-color="#A64153"/>
</linearGradient>
<linearGradient id="paint34_linear" x1="208.413" y1="15.2671" x2="208.413" y2="21.6579" gradientUnits="userSpaceOnUse">
<stop stop-color="#FF6E3A"/>
<stop offset="0.1596" stop-color="#FF6440"/>
<stop offset="0.4266" stop-color="#FF4B52"/>
<stop offset="0.7662" stop-color="#FF216E"/>
<stop offset="1" stop-color="#FF0084"/>
</linearGradient>
<linearGradient id="paint35_linear" x1="209.509" y1="16.7218" x2="207.629" y2="14.8426" gradientUnits="userSpaceOnUse">
<stop stop-color="#E58200" stop-opacity="0"/>
<stop offset="0.4384" stop-color="#C4602C" stop-opacity="0.439216"/>
<stop offset="0.7953" stop-color="#AE4948" stop-opacity="0.796078"/>
<stop offset="1" stop-color="#A64153"/>
</linearGradient>
<linearGradient id="paint36_linear" x1="207.535" y1="16.6268" x2="206.771" y2="13.7421" gradientUnits="userSpaceOnUse">
<stop stop-color="#FF0084"/>
<stop offset="0.2338" stop-color="#FF216E"/>
<stop offset="0.5734" stop-color="#FF4B52"/>
<stop offset="0.8404" stop-color="#FF6440"/>
<stop offset="1" stop-color="#FF6E3A"/>
</linearGradient>
<linearGradient id="paint37_linear" x1="209.52" y1="16.7638" x2="209.781" y2="13.2277" gradientUnits="userSpaceOnUse">
<stop stop-color="#FF0084"/>
<stop offset="0.2338" stop-color="#FF216E"/>
<stop offset="0.5734" stop-color="#FF4B52"/>
<stop offset="0.8404" stop-color="#FF6440"/>
<stop offset="1" stop-color="#FF6E3A"/>
</linearGradient>
<linearGradient id="paint38_linear" x1="207.375" y1="16.1148" x2="207.321" y2="15.0204" gradientUnits="userSpaceOnUse">
<stop stop-color="#E58200" stop-opacity="0"/>
<stop offset="0.4384" stop-color="#C4602C" stop-opacity="0.439216"/>
<stop offset="0.7953" stop-color="#AE4948" stop-opacity="0.796078"/>
<stop offset="1" stop-color="#A64153"/>
</linearGradient>
<linearGradient id="paint39_linear" x1="207.119" y1="15.3025" x2="208.95" y2="13.8234" gradientUnits="userSpaceOnUse">
<stop stop-color="#E58200" stop-opacity="0"/>
<stop offset="0.4384" stop-color="#C4602C" stop-opacity="0.439216"/>
<stop offset="0.7953" stop-color="#AE4948" stop-opacity="0.796078"/>
<stop offset="1" stop-color="#A64153"/>
</linearGradient>
<linearGradient id="paint40_linear" x1="209.452" y1="16.0946" x2="209.496" y2="14.9996" gradientUnits="userSpaceOnUse">
<stop stop-color="#E58200" stop-opacity="0"/>
<stop offset="0.4384" stop-color="#C4602C" stop-opacity="0.439216"/>
<stop offset="0.7953" stop-color="#AE4948" stop-opacity="0.796078"/>
<stop offset="1" stop-color="#A64153"/>
</linearGradient>
<linearGradient id="paint41_linear" x1="209.701" y1="15.2799" x2="207.856" y2="13.8181" gradientUnits="userSpaceOnUse">
<stop stop-color="#E58200" stop-opacity="0"/>
<stop offset="0.4384" stop-color="#C4602C" stop-opacity="0.439216"/>
<stop offset="0.7953" stop-color="#AE4948" stop-opacity="0.796078"/>
<stop offset="1" stop-color="#A64153"/>
</linearGradient>
<linearGradient id="paint42_linear" x1="209.882" y1="16.0292" x2="208.472" y2="14.6197" gradientUnits="userSpaceOnUse">
<stop stop-color="#E58200" stop-opacity="0"/>
<stop offset="0.4384" stop-color="#C4602C" stop-opacity="0.439216"/>
<stop offset="0.7953" stop-color="#AE4948" stop-opacity="0.796078"/>
<stop offset="1" stop-color="#A64153"/>
</linearGradient>
<linearGradient id="paint43_linear" x1="207.888" y1="14.5313" x2="209.184" y2="15.8273" gradientUnits="userSpaceOnUse">
<stop stop-color="#FF6E3A"/>
<stop offset="0.1596" stop-color="#FF6440"/>
<stop offset="0.4266" stop-color="#FF4B52"/>
<stop offset="0.7662" stop-color="#FF216E"/>
<stop offset="1" stop-color="#FF0084"/>
</linearGradient>
<linearGradient id="paint44_linear" x1="210.121" y1="17.1021" x2="210.121" y2="18.4946" gradientUnits="userSpaceOnUse">
<stop stop-color="#45425A"/>
<stop offset="1" stop-color="#2D3251"/>
</linearGradient>
<linearGradient id="paint45_linear" x1="211.275" y1="17.1021" x2="211.275" y2="18.4946" gradientUnits="userSpaceOnUse">
<stop stop-color="#45425A"/>
<stop offset="1" stop-color="#2D3251"/>
</linearGradient>
<linearGradient id="paint46_linear" x1="212.449" y1="17.1022" x2="212.449" y2="18.4947" gradientUnits="userSpaceOnUse">
<stop stop-color="#45425A"/>
<stop offset="1" stop-color="#2D3251"/>
</linearGradient>
<linearGradient id="paint47_linear" x1="213.624" y1="17.1021" x2="213.624" y2="18.4946" gradientUnits="userSpaceOnUse">
<stop stop-color="#45425A"/>
<stop offset="1" stop-color="#2D3251"/>
</linearGradient>
<linearGradient id="paint48_linear" x1="214.756" y1="17.1021" x2="214.756" y2="18.4946" gradientUnits="userSpaceOnUse">
<stop stop-color="#45425A"/>
<stop offset="1" stop-color="#2D3251"/>
</linearGradient>
<linearGradient id="paint49_linear" x1="215.945" y1="17.1021" x2="215.945" y2="18.4946" gradientUnits="userSpaceOnUse">
<stop stop-color="#45425A"/>
<stop offset="1" stop-color="#2D3251"/>
</linearGradient>
<linearGradient id="paint50_linear" x1="217.035" y1="17.1021" x2="217.035" y2="18.4946" gradientUnits="userSpaceOnUse">
<stop stop-color="#45425A"/>
<stop offset="1" stop-color="#2D3251"/>
</linearGradient>
</defs>
</svg>
