<svg width="448" height="250" viewBox="0 0 448 250" fill="none" xmlns="http://www.w3.org/2000/svg">
<rect width="448" height="250" rx="29.025" fill="url(#paint0_linear)"/>
<path d="M281.388 77.7929C282.786 77.7929 283.92 76.6599 283.92 75.2613L283.921 63.4525C283.921 61.0546 281.978 59.1102 279.579 59.1102L168.352 59.1019C165.953 59.1019 164.009 61.0464 164.009 63.4443V75.2521C164.009 76.6507 165.142 77.7846 166.54 77.7856C167.94 77.7856 169.073 78.9194 169.073 80.318L169.071 103.589C169.071 104.988 167.937 106.122 166.538 106.122C165.14 106.122 164.006 107.256 164.006 108.654L164.005 120.463C164.005 122.861 165.949 124.805 168.347 124.806L279.575 124.813C281.973 124.813 283.918 122.869 283.918 120.471L283.918 108.663C283.918 107.264 282.785 106.13 281.386 106.13C279.987 106.13 278.853 104.996 278.853 103.597L278.855 80.3254C278.855 78.9268 279.989 77.7929 281.388 77.7929Z" fill="url(#paint1_linear)"/>
<path d="M164.006 109.48L164.005 120.463C164.005 122.861 165.948 124.805 168.346 124.806L279.574 124.813C281.973 124.813 283.917 122.869 283.917 120.472L283.918 109.481H164.006V109.48Z" fill="url(#paint2_linear)"/>
<path d="M168.882 92.6942L176.855 100.667V92.6942H168.882Z" fill="url(#paint3_linear)"/>
<path d="M201.279 59.3449L209.912 67.9774H201.279V59.3449Z" fill="url(#paint4_linear)"/>
<path d="M271.709 116.781H177.294C175.721 116.781 174.446 115.507 174.446 113.933V69.985C174.446 68.4115 175.721 67.1365 177.294 67.1365H271.709C273.282 67.1365 274.557 68.4115 274.557 69.985V113.933C274.557 115.506 273.282 116.781 271.709 116.781Z" fill="url(#paint5_linear)"/>
<path d="M213.822 74.7767C212.196 72.9513 209.492 72.246 207.08 73.3231C204.722 74.3783 202.455 75.7567 200.381 76.9089C199.127 77.6059 198.1 78.3093 197.183 79.01C196.191 78.5511 195.086 78.2938 193.922 78.2938C192.7 78.2938 191.545 78.5759 190.515 79.0778C189.609 78.4028 188.594 77.7268 187.364 77.0582C185.28 75.9252 183.001 74.5679 180.633 73.5356C177.325 72.094 173.499 73.9817 172.64 77.4859C172.025 80.0001 174.82 82.4886 174.794 84.9891C174.794 84.9891 171.995 90.6421 172.715 93.4713C173.013 94.6409 173.643 95.6246 174.472 96.3628L197.964 119.855C198.114 120.025 198.276 120.185 198.443 120.335C198.912 120.863 199.471 121.298 200.087 121.624C200.181 121.674 200.276 121.721 200.372 121.765C200.376 121.766 200.38 121.768 200.383 121.769C200.476 121.812 200.569 121.853 200.664 121.89C200.672 121.893 200.679 121.896 200.686 121.898C200.777 121.934 200.869 121.968 200.961 121.999C200.973 122.003 200.984 122.006 200.996 122.01C201.084 122.039 201.174 122.066 201.263 122.092C201.279 122.095 201.295 122.1 201.31 122.104C201.396 122.127 201.483 122.148 201.57 122.168C201.589 122.172 201.609 122.176 201.628 122.18C201.712 122.198 201.796 122.213 201.881 122.227C201.904 122.231 201.927 122.235 201.949 122.238C202.031 122.251 202.112 122.261 202.195 122.27C202.221 122.273 202.247 122.276 202.274 122.278C202.352 122.287 202.431 122.291 202.511 122.296C202.54 122.298 202.569 122.3 202.6 122.3C202.676 122.304 202.752 122.305 202.829 122.305C202.861 122.305 202.894 122.305 202.927 122.304C203 122.303 203.074 122.3 203.147 122.296C203.183 122.293 203.219 122.292 203.255 122.289C203.326 122.284 203.397 122.277 203.468 122.268C203.506 122.264 203.544 122.26 203.582 122.256C203.651 122.246 203.721 122.235 203.789 122.223C203.83 122.216 203.869 122.211 203.909 122.202C203.976 122.19 204.044 122.174 204.113 122.158C204.153 122.149 204.193 122.141 204.234 122.131C204.302 122.114 204.37 122.093 204.438 122.073C204.477 122.062 204.518 122.052 204.557 122.039C204.63 122.017 204.703 121.99 204.774 121.964C204.809 121.952 204.844 121.941 204.878 121.929C204.984 121.888 205.09 121.844 205.195 121.798C206.669 121.139 208.107 120.353 209.486 119.575C209.76 119.419 210.034 119.264 210.304 119.11C210.846 118.803 211.376 118.5 211.894 118.212C212.623 117.806 213.277 117.399 213.877 116.991C213.907 116.971 213.934 116.951 213.963 116.93C215.216 117.795 216.736 118.303 218.373 118.303C220.062 118.303 221.625 117.762 222.9 116.848C223.508 117.255 224.171 117.66 224.911 118.063C225.172 118.205 225.436 118.35 225.703 118.499C227.302 119.383 229.002 120.356 230.759 121.184C231.052 121.322 231.347 121.457 231.643 121.585C231.749 121.632 231.856 121.674 231.962 121.713C231.996 121.726 232.03 121.736 232.064 121.748C232.066 121.749 232.069 121.75 232.072 121.751C232.106 121.763 232.139 121.774 232.173 121.785C232.21 121.797 232.247 121.81 232.283 121.821C232.323 121.833 232.362 121.843 232.401 121.854C232.467 121.873 232.533 121.892 232.6 121.908C232.607 121.91 232.611 121.911 232.618 121.913C232.654 121.921 232.691 121.928 232.728 121.936C232.796 121.951 232.865 121.966 232.934 121.979C232.971 121.986 233.008 121.991 233.045 121.997C233.077 122.002 233.107 122.007 233.138 122.012C233.179 122.017 233.22 122.024 233.261 122.028C233.298 122.033 233.336 122.037 233.373 122.04C233.439 122.047 233.505 122.054 233.57 122.059C233.581 122.06 233.591 122.06 233.602 122.06C233.633 122.062 233.664 122.063 233.695 122.064C233.769 122.068 233.842 122.071 233.916 122.071C233.949 122.071 233.981 122.071 234.014 122.071H234.025C234.05 122.071 234.075 122.071 234.101 122.07C234.148 122.069 234.196 122.067 234.243 122.065C234.273 122.063 234.303 122.061 234.332 122.06C234.4 122.055 234.467 122.05 234.535 122.044C234.549 122.042 234.565 122.04 234.58 122.039C234.602 122.037 234.625 122.034 234.647 122.03C234.73 122.021 234.811 122.01 234.893 121.996C234.916 121.993 234.938 121.989 234.961 121.985C234.973 121.983 234.987 121.981 235 121.978C235.014 121.976 235.028 121.973 235.042 121.971C235.1 121.961 235.157 121.948 235.214 121.935C235.233 121.931 235.252 121.927 235.27 121.922C235.339 121.907 235.408 121.89 235.476 121.872C235.492 121.867 235.508 121.863 235.524 121.858C235.527 121.857 235.529 121.856 235.531 121.856C235.547 121.852 235.561 121.847 235.576 121.843C235.667 121.818 235.757 121.789 235.845 121.759C235.856 121.755 235.867 121.752 235.877 121.748C235.97 121.716 236.062 121.681 236.153 121.645C236.16 121.642 236.168 121.639 236.175 121.635C236.243 121.608 236.31 121.58 236.376 121.549C236.387 121.544 236.398 121.539 236.409 121.535C236.424 121.527 236.439 121.52 236.454 121.513C236.458 121.511 236.462 121.51 236.465 121.508C236.725 121.385 236.974 121.244 237.213 121.085C237.218 121.081 237.224 121.078 237.229 121.074C237.489 120.9 237.736 120.704 237.966 120.49C237.968 120.488 237.969 120.486 237.971 120.484C238.76 119.745 239.355 118.777 239.634 117.636C240.329 114.801 237.478 109.174 237.478 109.174C237.428 106.673 240.2 104.159 239.56 101.651C239.261 100.476 238.627 99.4888 237.794 98.7488L213.822 74.7767Z" fill="url(#paint6_linear)"/>
<path d="M163.933 90.3512V80.3192C163.933 79.025 164.981 77.9763 166.276 77.9763H281.639C282.933 77.9763 283.983 79.025 283.983 80.3192V90.3512C283.983 91.6453 282.934 92.695 281.639 92.695H166.276C164.981 92.695 163.933 91.6453 163.933 90.3512V90.3512Z" fill="url(#paint7_linear)"/>
<path d="M206.26 92.695H229.811L215.092 77.9763H206.26V92.695Z" fill="url(#paint8_linear)"/>
<path d="M198.939 126.916H188.907C187.613 126.916 186.564 125.866 186.564 124.572V59.3438C186.564 58.0496 187.613 57 188.907 57H198.939C200.233 57 201.283 58.0487 201.283 59.3438V124.572C201.283 125.866 200.233 126.916 198.939 126.916Z" fill="url(#paint9_linear)"/>
<path d="M186.564 94.1846L201.284 108.904V87.7888H186.564V94.1846Z" fill="url(#paint10_linear)"/>
<path d="M192.026 80.2689C190.736 79.2028 189.319 78.1193 187.364 77.0568C185.28 75.9229 183 74.5656 180.632 73.5333C177.324 72.0926 173.499 73.9803 172.64 77.4846C172.025 79.9987 174.82 82.4873 174.794 84.9877C174.794 84.9877 171.995 90.6407 172.715 93.469C173.606 96.965 177.45 98.817 180.743 97.3451C183.102 96.2909 185.369 94.9125 187.442 93.7594C189.387 92.6777 190.794 91.5813 192.074 90.5033C195.254 87.8252 195.231 82.9168 192.026 80.2689Z" fill="url(#paint11_linear)"/>
<path d="M213.027 84.7216C212.977 82.2211 215.749 79.706 215.11 77.1983C214.219 73.7022 210.375 71.8503 207.082 73.3221C204.723 74.3764 202.456 75.7548 200.383 76.9079C198.438 77.9896 197.031 79.086 195.752 80.1631C192.571 82.8421 192.595 87.7505 195.799 90.3984C197.089 91.4636 198.506 92.5471 200.461 93.6105C202.546 94.7443 204.825 96.1008 207.193 97.133C210.501 98.5747 214.327 96.687 215.185 93.1827C215.879 90.348 213.027 84.7216 213.027 84.7216Z" fill="url(#paint12_linear)"/>
<path d="M192.072 90.505C193.085 89.6514 193.771 88.5715 194.134 87.4111C188.252 87.9661 179.068 90.0031 175.633 97.1719C177.153 97.9761 179.022 98.1144 180.741 97.3459C183.099 96.2917 185.366 94.9133 187.44 93.7611C189.385 92.6794 190.791 91.5821 192.072 90.505Z" fill="url(#paint13_linear)"/>
<path d="M177.227 84.9924C177.238 87.3463 177.547 93.8209 184.04 95.6774C185.217 95.0289 186.355 94.364 187.441 93.7604C189.386 92.6796 190.792 91.5824 192.073 90.5053C193.855 89.0041 194.631 86.8022 194.404 84.6902C194.404 84.6902 190.996 82.8702 189.483 82.1467C181.309 78.2339 177.211 81.6805 177.227 84.9924Z" fill="url(#paint14_linear)"/>
<path d="M195.797 90.4C194.776 89.5556 194.08 88.483 193.705 87.3253C199.592 87.8254 208.795 89.7763 212.297 96.913C210.784 97.731 208.917 97.8867 207.191 97.1347C204.822 96.1025 202.543 94.7451 200.459 93.6121C198.504 92.5487 197.087 91.4652 195.797 90.4Z" fill="url(#paint15_linear)"/>
<path d="M210.592 84.7479C210.603 87.1017 210.355 93.5791 203.88 95.496C202.697 94.8586 201.552 94.2046 200.461 93.6111C198.506 92.5487 197.089 91.4651 195.8 90.399C194.002 88.9152 193.207 86.7207 193.413 84.6059C193.413 84.6059 196.803 82.7548 198.31 82.0166C206.448 78.0278 210.577 81.4368 210.592 84.7479Z" fill="url(#paint16_linear)"/>
<path d="M214.165 95.3191L199.607 80.7626C198.925 80.0317 198.102 79.4345 197.183 79.0086C196.678 79.3951 196.207 79.7807 195.751 80.1636C192.571 82.8417 192.594 87.75 195.8 90.3988C197.089 91.4641 198.506 92.5476 200.462 93.6109C202.546 94.7439 204.825 96.1013 207.194 97.1335C209.741 98.2436 212.595 97.3772 214.165 95.3191Z" fill="url(#paint17_linear)"/>
<path d="M201.695 86.0728C201.695 90.3684 198.212 93.8516 193.916 93.8516C189.62 93.8516 186.137 90.3684 186.137 86.0728C186.137 81.7762 189.62 78.2939 193.916 78.2939C198.212 78.2939 201.695 81.7762 201.695 86.0728Z" fill="url(#paint18_linear)"/>
<path d="M203.917 100.607C203.917 100.397 204.041 100.215 204.286 100.062C204.532 99.9103 204.796 99.8343 205.077 99.8343C205.429 99.8343 205.645 99.9634 205.728 100.221L208.628 110.238L211.51 100.221C211.59 99.9634 211.8 99.8343 212.138 99.8343C212.418 99.8343 212.682 99.9103 212.933 100.062C213.183 100.213 213.309 100.395 213.309 100.605C213.309 100.639 213.297 100.692 213.274 100.762L209.796 112.151C209.738 112.351 209.597 112.508 209.377 112.619C209.156 112.731 208.906 112.787 208.628 112.787C207.983 112.787 207.591 112.576 207.45 112.154L203.934 100.766C203.923 100.73 203.917 100.678 203.917 100.607Z" fill="url(#paint19_linear)"/>
<path d="M214.591 108.868V103.753C214.591 102.406 214.948 101.416 215.662 100.783C216.377 100.15 217.332 99.8343 218.527 99.8343C219.723 99.8343 220.68 100.15 221.401 100.783C222.121 101.416 222.481 102.406 222.481 103.753V108.868C222.481 110.215 222.121 111.205 221.401 111.837C220.68 112.47 219.723 112.787 218.527 112.787C217.332 112.787 216.377 112.47 215.662 111.837C214.947 111.205 214.591 110.215 214.591 108.868ZM216.453 108.868C216.453 110.379 217.144 111.135 218.527 111.135C219.195 111.135 219.711 110.947 220.073 110.572C220.436 110.198 220.618 109.629 220.618 108.868V103.753C220.618 102.991 220.437 102.424 220.073 102.049C219.711 101.673 219.195 101.487 218.527 101.487C217.144 101.487 216.453 102.242 216.453 103.753V108.868Z" fill="url(#paint20_linear)"/>
<path d="M224.608 108.869V100.432C224.608 100.234 224.699 100.083 224.88 99.9845C225.062 99.8847 225.282 99.8352 225.54 99.8352C225.797 99.8352 226.017 99.8847 226.198 99.9845C226.381 100.083 226.471 100.234 226.471 100.432V108.869C226.471 109.63 226.658 110.199 227.034 110.573C227.408 110.948 227.936 111.136 228.616 111.136C230.056 111.136 230.777 110.38 230.777 108.868V100.432C230.777 100.233 230.868 100.083 231.05 99.9836C231.231 99.8847 231.45 99.8343 231.709 99.8343C231.966 99.8343 232.186 99.8847 232.368 99.9836C232.549 100.083 232.64 100.233 232.64 100.432V108.868C232.64 110.216 232.274 111.205 231.542 111.838C230.809 112.471 229.834 112.787 228.616 112.787C227.408 112.787 226.439 112.471 225.707 111.838C224.974 111.206 224.608 110.216 224.608 108.869Z" fill="url(#paint21_linear)"/>
<path d="M234.783 108.868V103.753C234.783 102.406 235.143 101.416 235.864 100.783C236.585 100.15 237.525 99.8343 238.685 99.8343C239.88 99.8343 240.844 100.13 241.576 100.721C242.308 101.313 242.674 102.077 242.674 103.014C242.674 103.39 242.604 103.644 242.463 103.779C242.323 103.914 242.082 103.982 241.742 103.982C241.133 103.982 240.823 103.776 240.811 103.366C240.741 102.113 240.055 101.486 238.755 101.486C237.349 101.486 236.646 102.241 236.646 103.753V108.868C236.646 110.379 237.361 111.135 238.79 111.135C239.212 111.135 239.563 111.073 239.845 110.951C240.126 110.827 240.328 110.648 240.451 110.414C240.574 110.18 240.659 109.975 240.705 109.799C240.752 109.624 240.788 109.406 240.811 109.149C240.847 108.739 241.151 108.534 241.725 108.534C242.065 108.534 242.308 108.601 242.455 108.736C242.6 108.871 242.674 109.125 242.674 109.501C242.674 110.473 242.305 111.264 241.567 111.873C240.829 112.482 239.862 112.787 238.668 112.787C237.507 112.787 236.57 112.47 235.856 111.837C235.14 111.205 234.783 110.215 234.783 108.868Z" fill="url(#paint22_linear)"/>
<path d="M244.413 112.066V100.431C244.413 100.233 244.504 100.083 244.685 99.9836C244.866 99.8847 245.086 99.8343 245.345 99.8343C245.602 99.8343 245.822 99.8837 246.003 99.9836C246.184 100.083 246.276 100.233 246.276 100.431V105.282H250.652V100.431C250.652 100.233 250.743 100.083 250.924 99.9836C251.106 99.8847 251.325 99.8343 251.584 99.8343C251.841 99.8343 252.061 99.8837 252.242 99.9836C252.424 100.083 252.514 100.233 252.514 100.431V112.066C252.514 112.254 252.424 112.403 252.242 112.514C252.061 112.626 251.841 112.682 251.584 112.682C251.337 112.682 251.12 112.626 250.933 112.514C250.746 112.403 250.652 112.254 250.652 112.066V106.759H246.276V112.066C246.276 112.254 246.184 112.403 246.003 112.514C245.822 112.626 245.602 112.682 245.345 112.682C245.098 112.682 244.881 112.626 244.694 112.514C244.507 112.403 244.413 112.254 244.413 112.066Z" fill="url(#paint23_linear)"/>
<path d="M254.836 112.066V100.449C254.836 100.262 254.918 100.113 255.082 100.001C255.246 99.8892 255.44 99.8343 255.662 99.8343H261.919C262.118 99.8343 262.27 99.9158 262.376 100.08C262.481 100.244 262.534 100.431 262.534 100.642C262.534 100.877 262.478 101.076 262.367 101.24C262.256 101.404 262.106 101.486 261.919 101.486H256.699V105.511H259.405C259.593 105.511 259.742 105.584 259.854 105.73C259.965 105.877 260.021 106.055 260.021 106.267C260.021 106.454 259.968 106.621 259.862 106.768C259.757 106.914 259.605 106.987 259.405 106.987H256.699V111.029H261.919C262.106 111.029 262.256 111.111 262.367 111.275C262.478 111.44 262.534 111.639 262.534 111.873C262.534 112.084 262.481 112.271 262.376 112.435C262.27 112.599 262.118 112.681 261.919 112.681H255.662C255.44 112.681 255.246 112.626 255.082 112.514C254.918 112.403 254.836 112.254 254.836 112.066Z" fill="url(#paint24_linear)"/>
<path d="M264.028 112.066V100.431C264.028 100.268 264.086 100.127 264.204 100.01C264.32 99.8929 264.468 99.8343 264.643 99.8343H267.982C270.677 99.8343 272.024 101.03 272.024 103.419C272.024 104.411 271.802 105.19 271.357 105.756C270.911 106.322 270.308 106.698 269.547 106.885L272.007 111.518C272.054 111.6 272.077 111.688 272.077 111.782C272.077 112.017 271.957 112.234 271.717 112.434C271.476 112.634 271.222 112.734 270.953 112.734C270.648 112.734 270.402 112.552 270.214 112.188L267.648 107.145H265.873V112.064C265.873 112.252 265.782 112.402 265.601 112.514C265.42 112.626 265.2 112.682 264.941 112.682C264.696 112.682 264.482 112.626 264.3 112.514C264.119 112.403 264.028 112.254 264.028 112.066ZM265.874 105.669H267.982C269.435 105.669 270.162 104.973 270.162 103.578C270.162 102.184 269.435 101.486 267.982 101.486H265.874V105.669Z" fill="url(#paint25_linear)"/>
<path d="M422.96 27.2667C423.275 27.2667 423.53 27.0117 423.53 26.6969L423.531 24.0391C423.531 23.4994 423.093 23.0617 422.553 23.0617L397.519 23.0599C396.979 23.0599 396.542 23.4975 396.542 24.0372V26.6948C396.542 27.0096 396.797 27.2648 397.112 27.265C397.427 27.265 397.682 27.5202 397.682 27.835L397.681 33.0727C397.681 33.3875 397.426 33.6427 397.111 33.6427C396.796 33.6427 396.541 33.8979 396.541 34.2127L396.541 36.8705C396.541 37.4102 396.979 37.8476 397.518 37.8478L422.552 37.8495C423.092 37.8495 423.53 37.412 423.53 36.8723L423.53 34.2145C423.53 33.8997 423.275 33.6445 422.96 33.6445C422.645 33.6445 422.39 33.3893 422.39 33.0743L422.39 27.8366C422.39 27.5219 422.646 27.2667 422.96 27.2667Z" fill="url(#paint26_linear)"/>
<path d="M396.541 34.3985L396.541 36.8706C396.541 37.4103 396.978 37.8477 397.518 37.8479L422.552 37.8496C423.092 37.8496 423.53 37.4121 423.53 36.8724L423.53 34.3987H396.541V34.3985Z" fill="url(#paint27_linear)"/>
<path d="M397.641 30.6205L399.435 32.415V30.6205H397.641Z" fill="url(#paint28_linear)"/>
<path d="M404.93 23.1148L406.873 25.0577H404.93V23.1148Z" fill="url(#paint29_linear)"/>
<path d="M420.782 36.0417H399.532C399.178 36.0417 398.891 35.7549 398.891 35.4008V25.5094C398.891 25.1552 399.178 24.8683 399.532 24.8683H420.782C421.136 24.8683 421.423 25.1552 421.423 25.5094V35.4008C421.423 35.7547 421.136 36.0417 420.782 36.0417Z" fill="url(#paint30_linear)"/>
<path d="M407.752 26.5879C407.386 26.177 406.777 26.0183 406.234 26.2607C405.703 26.4982 405.193 26.8085 404.727 27.0678C404.444 27.2247 404.213 27.383 404.007 27.5407C403.783 27.4374 403.535 27.3795 403.273 27.3795C402.998 27.3795 402.738 27.443 402.506 27.5559C402.302 27.404 402.073 27.2519 401.797 27.1014C401.328 26.8464 400.815 26.5409 400.282 26.3086C399.537 25.9841 398.676 26.409 398.483 27.1977C398.344 27.7635 398.973 28.3236 398.967 28.8864C398.967 28.8864 398.337 30.1587 398.5 30.7955C398.567 31.0587 398.709 31.2801 398.895 31.4463L404.182 36.7337C404.216 36.772 404.253 36.8079 404.29 36.8417C404.396 36.9606 404.522 37.0585 404.66 37.1317C404.681 37.1431 404.703 37.1536 404.724 37.1635C404.725 37.1639 404.726 37.1643 404.727 37.1645C404.748 37.1742 404.769 37.1833 404.79 37.1917C404.792 37.1923 404.794 37.193 404.795 37.1936C404.816 37.2016 404.836 37.2092 404.857 37.2162C404.86 37.2171 404.862 37.2179 404.865 37.2187C404.885 37.2253 404.905 37.2313 404.925 37.2371C404.929 37.2379 404.932 37.2389 404.936 37.2397C404.955 37.2451 404.974 37.2499 404.994 37.2542C404.998 37.2552 405.003 37.256 405.007 37.2571C405.026 37.261 405.045 37.2645 405.064 37.2676C405.069 37.2684 405.074 37.2692 405.079 37.2701C405.098 37.2729 405.116 37.2752 405.135 37.2773C405.14 37.2779 405.146 37.2785 405.152 37.2791C405.17 37.281 405.188 37.282 405.206 37.283C405.212 37.2835 405.219 37.2839 405.226 37.2841C405.243 37.2849 405.26 37.2851 405.277 37.2851C405.285 37.2851 405.292 37.2851 405.299 37.2849C405.316 37.2847 405.333 37.2839 405.349 37.283C405.357 37.2824 405.365 37.2822 405.373 37.2816C405.389 37.2804 405.405 37.2787 405.421 37.2769C405.43 37.2758 405.438 37.275 405.447 37.274C405.462 37.2719 405.478 37.2692 405.494 37.2665C405.503 37.2651 405.511 37.2639 405.52 37.262C405.536 37.2591 405.551 37.2556 405.566 37.2521C405.575 37.2501 405.584 37.2482 405.594 37.2459C405.609 37.242 405.624 37.2375 405.64 37.2329C405.648 37.2305 405.657 37.2282 405.666 37.2253C405.683 37.2202 405.699 37.2142 405.715 37.2084C405.723 37.2057 405.731 37.2033 405.738 37.2004C405.762 37.1913 405.786 37.1814 405.81 37.1709C406.142 37.0227 406.465 36.8458 406.776 36.6706C406.837 36.6355 406.899 36.6007 406.96 36.5661C407.082 36.4968 407.201 36.4288 407.318 36.3638C407.482 36.2725 407.629 36.1808 407.764 36.0891C407.771 36.0845 407.777 36.08 407.783 36.0754C408.065 36.2701 408.407 36.3843 408.776 36.3843C409.156 36.3843 409.508 36.2626 409.795 36.0569C409.932 36.1484 410.081 36.2397 410.247 36.3302C410.306 36.3622 410.366 36.395 410.426 36.4284C410.785 36.6275 411.168 36.8464 411.564 37.0328C411.63 37.0639 411.696 37.0942 411.763 37.1231C411.787 37.1336 411.81 37.1431 411.834 37.1519C411.842 37.1548 411.85 37.1571 411.857 37.1598C411.858 37.16 411.858 37.1602 411.859 37.1604C411.867 37.1631 411.874 37.1655 411.882 37.168C411.89 37.1707 411.898 37.1738 411.907 37.1763C411.916 37.1789 411.924 37.1812 411.933 37.1837C411.948 37.1878 411.963 37.1921 411.978 37.1958C411.979 37.1963 411.98 37.1965 411.982 37.1969C411.99 37.1987 411.998 37.2002 412.007 37.202C412.022 37.2055 412.038 37.2088 412.053 37.2117C412.062 37.2134 412.07 37.2144 412.078 37.2158C412.085 37.2169 412.092 37.2181 412.099 37.2191C412.108 37.2204 412.118 37.2218 412.127 37.2228C412.135 37.2239 412.144 37.2247 412.152 37.2255C412.167 37.227 412.182 37.2286 412.196 37.2296C412.199 37.2299 412.201 37.2301 412.204 37.2301C412.211 37.2305 412.217 37.2307 412.224 37.2309C412.241 37.2317 412.258 37.2323 412.274 37.2325C412.282 37.2325 412.289 37.2325 412.296 37.2323H412.299C412.304 37.2323 412.31 37.2323 412.316 37.2321C412.326 37.2319 412.337 37.2315 412.348 37.2311C412.354 37.2307 412.361 37.2303 412.368 37.2299C412.383 37.2288 412.398 37.2278 412.413 37.2264C412.417 37.2259 412.42 37.2255 412.423 37.2251C412.429 37.2247 412.434 37.2241 412.439 37.2233C412.457 37.2212 412.476 37.2187 412.494 37.2156C412.499 37.2148 412.504 37.214 412.509 37.2132C412.512 37.2125 412.515 37.2121 412.518 37.2115C412.521 37.2111 412.525 37.2105 412.528 37.2099C412.541 37.2076 412.553 37.2047 412.566 37.2018C412.57 37.201 412.575 37.2 412.579 37.1989C412.594 37.1954 412.61 37.1917 412.625 37.1876C412.629 37.1866 412.633 37.1855 412.636 37.1845C412.637 37.1843 412.637 37.1841 412.638 37.1841C412.641 37.1831 412.644 37.182 412.648 37.1812C412.668 37.1754 412.688 37.169 412.708 37.1622C412.711 37.1614 412.713 37.1606 412.716 37.1598C412.736 37.1526 412.757 37.1447 412.778 37.1365C412.779 37.1359 412.781 37.1352 412.783 37.1344C412.798 37.1282 412.813 37.1218 412.828 37.115C412.83 37.1138 412.833 37.1128 412.835 37.1117C412.839 37.1101 412.842 37.1084 412.845 37.1068C412.846 37.1064 412.847 37.1062 412.848 37.1058C412.906 37.0781 412.962 37.0464 413.016 37.0105C413.017 37.0097 413.019 37.0089 413.02 37.008C413.078 36.9689 413.134 36.9248 413.186 36.8765C413.186 36.8761 413.186 36.8757 413.187 36.8753C413.364 36.7089 413.498 36.491 413.561 36.2342C413.717 35.5962 413.076 34.3296 413.076 34.3296C413.065 33.7668 413.688 33.201 413.545 32.6366C413.477 32.3721 413.334 32.1499 413.147 31.9833L407.752 26.5879Z" fill="url(#paint31_linear)"/>
<path d="M396.525 30.0936V27.8357C396.525 27.5444 396.761 27.3083 397.053 27.3083H423.018C423.309 27.3083 423.545 27.5444 423.545 27.8357V30.0936C423.545 30.3848 423.309 30.6211 423.018 30.6211H397.053C396.761 30.6211 396.525 30.3848 396.525 30.0936V30.0936Z" fill="url(#paint32_linear)"/>
<path d="M406.052 30.6211H411.353L408.04 27.3083H406.052V30.6211Z" fill="url(#paint33_linear)"/>
<path d="M404.405 38.3229H402.147C401.856 38.3229 401.62 38.0867 401.62 37.7954V23.1144C401.62 22.8232 401.856 22.5869 402.147 22.5869H404.405C404.697 22.5869 404.933 22.8229 404.933 23.1144V37.7954C404.933 38.0867 404.697 38.3229 404.405 38.3229Z" fill="url(#paint34_linear)"/>
<path d="M401.62 30.9559L404.933 34.2689V29.5164H401.62V30.9559Z" fill="url(#paint35_linear)"/>
<path d="M402.846 27.8243C402.556 27.5843 402.237 27.3404 401.797 27.1013C401.328 26.8461 400.815 26.5406 400.281 26.3083C399.537 25.984 398.676 26.4089 398.483 27.1976C398.344 27.7634 398.973 28.3235 398.967 28.8863C398.967 28.8863 398.337 30.1586 398.5 30.7952C398.7 31.582 399.565 31.9989 400.307 31.6676C400.837 31.4303 401.348 31.1201 401.814 30.8605C402.252 30.6171 402.569 30.3703 402.857 30.1277C403.573 29.5249 403.567 28.4202 402.846 27.8243Z" fill="url(#paint36_linear)"/>
<path d="M407.573 28.8261C407.562 28.2633 408.186 27.6972 408.042 27.1328C407.841 26.3459 406.976 25.9291 406.235 26.2604C405.704 26.4977 405.194 26.8079 404.727 27.0674C404.29 27.3109 403.973 27.5577 403.685 27.8001C402.969 28.403 402.974 29.5078 403.696 30.1037C403.986 30.3435 404.305 30.5873 404.745 30.8267C405.214 31.0819 405.727 31.3872 406.26 31.6195C407.005 31.944 407.866 31.5191 408.059 30.7304C408.215 30.0924 407.573 28.8261 407.573 28.8261Z" fill="url(#paint37_linear)"/>
<path d="M402.859 30.128C403.087 29.9359 403.241 29.6928 403.323 29.4316C401.999 29.5566 399.932 30.015 399.159 31.6285C399.501 31.8095 399.922 31.8406 400.309 31.6677C400.84 31.4304 401.35 31.1202 401.817 30.8608C402.254 30.6174 402.571 30.3704 402.859 30.128Z" fill="url(#paint38_linear)"/>
<path d="M399.517 28.8871C399.519 29.4169 399.589 30.8741 401.05 31.292C401.315 31.146 401.571 30.9964 401.816 30.8605C402.253 30.6173 402.57 30.3703 402.858 30.1279C403.259 29.79 403.434 29.2944 403.383 28.8191C403.383 28.8191 402.616 28.4095 402.275 28.2466C400.435 27.366 399.513 28.1417 399.517 28.8871Z" fill="url(#paint39_linear)"/>
<path d="M403.697 30.1043C403.468 29.9142 403.311 29.6728 403.227 29.4122C404.551 29.5248 406.623 29.9639 407.411 31.5701C407.071 31.7542 406.65 31.7893 406.262 31.62C405.729 31.3877 405.216 31.0822 404.747 30.8272C404.307 30.5879 403.988 30.344 403.697 30.1043Z" fill="url(#paint40_linear)"/>
<path d="M407.025 28.8322C407.028 29.362 406.972 30.8198 405.514 31.2513C405.248 31.1078 404.991 30.9606 404.745 30.8271C404.305 30.5879 403.986 30.3441 403.696 30.1041C403.291 29.7702 403.112 29.2762 403.159 28.8002C403.159 28.8002 403.922 28.3836 404.261 28.2175C406.092 27.3197 407.022 28.087 407.025 28.8322Z" fill="url(#paint41_linear)"/>
<path d="M407.829 31.2114L404.553 27.9352C404.399 27.7707 404.214 27.6363 404.007 27.5404C403.894 27.6274 403.787 27.7142 403.685 27.8004C402.969 28.4031 402.974 29.5078 403.696 30.104C403.986 30.3438 404.305 30.5876 404.745 30.827C405.214 31.082 405.727 31.3875 406.26 31.6198C406.834 31.8696 407.476 31.6746 407.829 31.2114Z" fill="url(#paint42_linear)"/>
<path d="M405.025 29.1305C405.025 30.0973 404.241 30.8813 403.274 30.8813C402.307 30.8813 401.523 30.0973 401.523 29.1305C401.523 28.1635 402.307 27.3797 403.274 27.3797C404.241 27.3797 405.025 28.1635 405.025 29.1305Z" fill="url(#paint43_linear)"/>
<path d="M405.523 32.4017C405.523 32.3543 405.551 32.3135 405.607 32.2791C405.662 32.2448 405.721 32.2277 405.785 32.2277C405.864 32.2277 405.912 32.2568 405.931 32.3147L406.584 34.5693L407.232 32.3147C407.251 32.2568 407.298 32.2277 407.374 32.2277C407.437 32.2277 407.496 32.2448 407.553 32.2791C407.609 32.3131 407.637 32.3539 407.637 32.4011C407.637 32.4089 407.635 32.4209 407.629 32.4365L406.847 34.9999C406.833 35.0449 406.802 35.0801 406.752 35.1053C406.703 35.1304 406.646 35.143 406.584 35.143C406.439 35.143 406.35 35.0954 406.319 35.0006L405.527 32.4374C405.525 32.4293 405.523 32.4176 405.523 32.4017Z" fill="url(#paint44_linear)"/>
<path d="M407.928 34.2609V33.1098C407.928 32.8066 408.008 32.5837 408.169 32.4413C408.33 32.2988 408.545 32.2277 408.814 32.2277C409.083 32.2277 409.298 32.2988 409.46 32.4413C409.623 32.5837 409.704 32.8066 409.704 33.1098V34.2609C409.704 34.5642 409.623 34.787 409.46 34.9292C409.298 35.0717 409.083 35.143 408.814 35.143C408.545 35.143 408.33 35.0717 408.169 34.9292C408.008 34.787 407.928 34.5642 407.928 34.2609ZM408.347 34.2609C408.347 34.6011 408.502 34.7711 408.814 34.7711C408.964 34.7711 409.08 34.7289 409.162 34.6446C409.243 34.5602 409.284 34.4322 409.284 34.2609V33.1098C409.284 32.9383 409.244 32.8105 409.162 32.7262C409.08 32.6417 408.964 32.5996 408.814 32.5996C408.502 32.5996 408.347 32.7697 408.347 33.1098V34.2609Z" fill="url(#paint45_linear)"/>
<path d="M410.183 34.2611V32.3623C410.183 32.3176 410.203 32.2838 410.244 32.2615C410.285 32.2391 410.334 32.2279 410.392 32.2279C410.45 32.2279 410.5 32.2391 410.54 32.2615C410.582 32.2838 410.602 32.3176 410.602 32.3623V34.2611C410.602 34.4324 410.644 34.5604 410.728 34.6448C410.813 34.7291 410.932 34.7713 411.084 34.7713C411.409 34.7713 411.571 34.6013 411.571 34.2609V32.3623C411.571 32.3174 411.591 32.2838 411.632 32.2613C411.673 32.2391 411.723 32.2277 411.781 32.2277C411.839 32.2277 411.888 32.2391 411.929 32.2613C411.97 32.2838 411.99 32.3174 411.99 32.3623V34.2609C411.99 34.5644 411.908 34.787 411.743 34.9294C411.578 35.0719 411.359 35.143 411.084 35.143C410.813 35.143 410.595 35.0719 410.43 34.9294C410.265 34.7872 410.183 34.5644 410.183 34.2611Z" fill="url(#paint46_linear)"/>
<path d="M412.473 34.2609V33.1098C412.473 32.8066 412.554 32.5837 412.716 32.4413C412.878 32.2988 413.09 32.2277 413.351 32.2277C413.62 32.2277 413.837 32.2943 414.001 32.4273C414.166 32.5606 414.249 32.7326 414.249 32.9435C414.249 33.028 414.233 33.0853 414.201 33.1156C414.17 33.1459 414.115 33.1611 414.039 33.1611C413.902 33.1611 413.832 33.115 413.829 33.0226C413.814 32.7406 413.659 32.5994 413.366 32.5994C413.05 32.5994 412.892 32.7695 412.892 33.1098V34.2609C412.892 34.6011 413.053 34.7711 413.375 34.7711C413.469 34.7711 413.549 34.7573 413.612 34.7297C413.675 34.7019 413.721 34.6617 413.748 34.6089C413.776 34.5563 413.795 34.5101 413.806 34.4706C413.816 34.431 413.824 34.3821 413.829 34.3242C413.837 34.2319 413.906 34.1857 414.035 34.1857C414.111 34.1857 414.166 34.2009 414.199 34.2312C414.232 34.2615 414.249 34.3188 414.249 34.4034C414.249 34.6223 414.166 34.8002 414 34.9373C413.833 35.0744 413.616 35.143 413.347 35.143C413.086 35.143 412.875 35.0717 412.714 34.9292C412.553 34.787 412.473 34.5642 412.473 34.2609Z" fill="url(#paint47_linear)"/>
<path d="M414.64 34.9808V32.3621C414.64 32.3174 414.66 32.2838 414.701 32.2613C414.742 32.2391 414.791 32.2277 414.849 32.2277C414.907 32.2277 414.957 32.2389 414.998 32.2613C415.038 32.2838 415.059 32.3174 415.059 32.3621V33.4539H416.044V32.3621C416.044 32.3174 416.064 32.2838 416.105 32.2613C416.146 32.2391 416.195 32.2277 416.254 32.2277C416.311 32.2277 416.361 32.2389 416.402 32.2613C416.443 32.2838 416.463 32.3174 416.463 32.3621V34.9808C416.463 35.023 416.443 35.0566 416.402 35.0816C416.361 35.1067 416.311 35.1193 416.254 35.1193C416.198 35.1193 416.149 35.1067 416.107 35.0816C416.065 35.0566 416.044 35.023 416.044 34.9808V33.7862H415.059V34.9808C415.059 35.023 415.038 35.0566 414.998 35.0816C414.957 35.1067 414.907 35.1193 414.849 35.1193C414.794 35.1193 414.745 35.1067 414.703 35.0816C414.661 35.0566 414.64 35.023 414.64 34.9808Z" fill="url(#paint48_linear)"/>
<path d="M416.984 34.9808V32.366C416.984 32.324 417.003 32.2904 417.04 32.2652C417.077 32.2401 417.12 32.2277 417.17 32.2277H418.578C418.623 32.2277 418.658 32.2461 418.681 32.283C418.705 32.3199 418.717 32.3621 418.717 32.4095C418.717 32.4623 418.704 32.5073 418.679 32.5442C418.654 32.5811 418.621 32.5994 418.578 32.5994H417.404V33.5054H418.013C418.055 33.5054 418.089 33.5219 418.114 33.5547C418.139 33.5879 418.151 33.6279 418.151 33.6755C418.151 33.7175 418.139 33.7552 418.116 33.7882C418.092 33.8212 418.058 33.8375 418.013 33.8375H417.404V34.7474H418.578C418.621 34.7474 418.654 34.7658 418.679 34.8027C418.704 34.8398 418.717 34.8845 418.717 34.9373C418.717 34.9847 418.705 35.0269 418.681 35.0638C418.658 35.1007 418.623 35.1191 418.578 35.1191H417.17C417.12 35.1191 417.077 35.1067 417.04 35.0816C417.003 35.0566 416.984 35.023 416.984 34.9808Z" fill="url(#paint49_linear)"/>
<path d="M419.054 34.9808V32.3621C419.054 32.3252 419.067 32.2937 419.093 32.2673C419.119 32.2409 419.153 32.2277 419.192 32.2277H419.944C420.55 32.2277 420.853 32.4967 420.853 33.0346C420.853 33.2578 420.803 33.433 420.703 33.5604C420.603 33.6878 420.467 33.7726 420.296 33.8146L420.849 34.8573C420.86 34.8758 420.865 34.8956 420.865 34.9169C420.865 34.9696 420.838 35.0185 420.784 35.0636C420.73 35.1086 420.673 35.1311 420.612 35.1311C420.544 35.1311 420.488 35.09 420.446 35.0082L419.868 33.8732H419.469V34.9804C419.469 35.0226 419.448 35.0564 419.408 35.0816C419.367 35.1067 419.317 35.1193 419.259 35.1193C419.204 35.1193 419.156 35.1067 419.115 35.0816C419.074 35.0566 419.054 35.023 419.054 34.9808ZM419.469 33.5409H419.944C420.271 33.5409 420.434 33.3842 420.434 33.0702C420.434 32.7565 420.271 32.5994 419.944 32.5994H419.469V33.5409Z" fill="url(#paint50_linear)"/>
<path d="M127.756 207.857C126.99 207.857 126.377 207.64 125.918 207.206C125.484 206.747 125.267 206.147 125.267 205.406V184.728H118.298C116.766 184.728 116 184.052 116 182.699C116 181.346 116.766 180.669 118.298 180.669H137.176C138.708 180.669 139.474 181.346 139.474 182.699C139.474 184.052 138.708 184.728 137.176 184.728H130.207V205.406C130.207 206.147 129.977 206.747 129.517 207.206C129.083 207.64 128.496 207.857 127.756 207.857ZM149.819 188.557C150.482 188.506 151.006 188.647 151.389 188.979C151.772 189.31 151.963 189.808 151.963 190.472C151.963 191.161 151.797 191.672 151.465 192.004C151.133 192.336 150.534 192.553 149.666 192.655L148.517 192.77C147.011 192.923 145.9 193.433 145.185 194.301C144.496 195.169 144.151 196.254 144.151 197.556V205.598C144.151 206.338 143.922 206.912 143.462 207.321C143.003 207.704 142.428 207.895 141.739 207.895C141.05 207.895 140.475 207.704 140.016 207.321C139.582 206.912 139.365 206.338 139.365 205.598V190.778C139.365 190.064 139.582 189.515 140.016 189.132C140.475 188.749 141.037 188.557 141.701 188.557C142.364 188.557 142.9 188.749 143.309 189.132C143.717 189.489 143.922 190.012 143.922 190.702V192.233C144.407 191.11 145.121 190.242 146.066 189.63C147.036 189.017 148.108 188.672 149.283 188.596L149.819 188.557ZM162.45 188.481C165.054 188.481 166.981 189.132 168.232 190.434C169.509 191.71 170.147 193.663 170.147 196.293V205.636C170.147 206.325 169.943 206.874 169.534 207.283C169.126 207.666 168.564 207.857 167.849 207.857C167.186 207.857 166.637 207.653 166.203 207.244C165.794 206.836 165.59 206.3 165.59 205.636V204.794C165.156 205.789 164.467 206.568 163.522 207.129C162.603 207.691 161.531 207.972 160.306 207.972C159.055 207.972 157.919 207.717 156.898 207.206C155.876 206.695 155.072 205.993 154.485 205.1C153.898 204.206 153.604 203.211 153.604 202.113C153.604 200.735 153.949 199.65 154.638 198.858C155.353 198.067 156.502 197.492 158.085 197.135C159.667 196.778 161.85 196.599 164.633 196.599H165.59V195.718C165.59 194.467 165.322 193.561 164.786 192.999C164.25 192.412 163.382 192.119 162.182 192.119C161.442 192.119 160.689 192.233 159.923 192.463C159.157 192.667 158.251 192.974 157.204 193.382C156.54 193.714 156.055 193.88 155.749 193.88C155.289 193.88 154.906 193.714 154.6 193.382C154.319 193.05 154.179 192.616 154.179 192.08C154.179 191.646 154.281 191.276 154.485 190.97C154.715 190.638 155.085 190.332 155.596 190.051C156.489 189.566 157.549 189.183 158.774 188.902C160.025 188.621 161.25 188.481 162.45 188.481ZM161.263 204.526C162.539 204.526 163.573 204.104 164.365 203.262C165.182 202.394 165.59 201.283 165.59 199.93V199.126H164.901C163.19 199.126 161.863 199.203 160.918 199.356C159.974 199.509 159.297 199.777 158.889 200.16C158.48 200.543 158.276 201.066 158.276 201.73C158.276 202.547 158.557 203.224 159.119 203.76C159.706 204.27 160.421 204.526 161.263 204.526ZM191.018 180.478C191.733 180.478 192.32 180.682 192.78 181.09C193.239 181.499 193.469 182.035 193.469 182.699V205.598C193.469 206.287 193.252 206.836 192.818 207.244C192.384 207.653 191.81 207.857 191.095 207.857C190.38 207.857 189.806 207.653 189.372 207.244C188.938 206.836 188.721 206.287 188.721 205.598V204.64C188.159 205.687 187.342 206.504 186.27 207.091C185.223 207.678 184.023 207.972 182.67 207.972C181.062 207.972 179.62 207.563 178.343 206.747C177.092 205.93 176.109 204.781 175.395 203.3C174.705 201.794 174.361 200.071 174.361 198.131C174.361 196.19 174.705 194.493 175.395 193.038C176.109 191.583 177.092 190.459 178.343 189.668C179.594 188.876 181.036 188.481 182.67 188.481C184.023 188.481 185.223 188.762 186.27 189.323C187.316 189.885 188.121 190.676 188.682 191.697V182.622C188.682 181.984 188.887 181.473 189.295 181.09C189.729 180.682 190.303 180.478 191.018 180.478ZM183.934 204.258C185.466 204.258 186.64 203.734 187.457 202.687C188.299 201.641 188.721 200.147 188.721 198.207C188.721 196.267 188.299 194.786 187.457 193.765C186.64 192.719 185.478 192.195 183.972 192.195C182.441 192.195 181.253 192.706 180.411 193.727C179.569 194.748 179.147 196.216 179.147 198.131C179.147 200.071 179.569 201.577 180.411 202.649C181.253 203.721 182.428 204.258 183.934 204.258ZM213.595 202.534C214.029 202.534 214.374 202.7 214.629 203.032C214.91 203.364 215.05 203.811 215.05 204.372C215.05 205.164 214.578 205.828 213.633 206.364C212.766 206.849 211.783 207.244 210.685 207.551C209.587 207.832 208.541 207.972 207.545 207.972C204.533 207.972 202.146 207.104 200.384 205.368C198.623 203.632 197.742 201.258 197.742 198.246C197.742 196.331 198.125 194.633 198.891 193.153C199.657 191.672 200.729 190.523 202.107 189.706C203.511 188.889 205.094 188.481 206.856 188.481C208.541 188.481 210.008 188.851 211.259 189.591C212.51 190.332 213.48 191.378 214.17 192.731C214.859 194.084 215.203 195.68 215.203 197.518C215.203 198.616 214.718 199.165 213.748 199.165H202.452C202.605 200.926 203.103 202.228 203.945 203.07C204.788 203.887 206.013 204.296 207.621 204.296C208.438 204.296 209.153 204.194 209.766 203.989C210.404 203.785 211.119 203.504 211.91 203.147C212.676 202.739 213.238 202.534 213.595 202.534ZM206.97 191.851C205.669 191.851 204.622 192.259 203.83 193.076C203.065 193.893 202.605 195.067 202.452 196.599H211.106C211.055 195.042 210.672 193.867 209.957 193.076C209.243 192.259 208.247 191.851 206.97 191.851ZM242.764 208.01C240.16 208.01 237.876 207.449 235.91 206.325C233.97 205.202 232.476 203.594 231.43 201.5C230.383 199.407 229.86 196.956 229.86 194.148C229.86 191.34 230.383 188.902 231.43 186.834C232.476 184.741 233.97 183.133 235.91 182.009C237.876 180.886 240.16 180.324 242.764 180.324C244.449 180.324 246.032 180.58 247.513 181.09C248.993 181.575 250.308 182.29 251.457 183.235C251.789 183.49 252.018 183.758 252.146 184.039C252.274 184.32 252.338 184.664 252.338 185.073C252.338 185.634 252.184 186.107 251.878 186.49C251.572 186.872 251.202 187.064 250.768 187.064C250.257 187.064 249.734 186.885 249.198 186.528C248.1 185.711 247.079 185.149 246.134 184.843C245.19 184.511 244.143 184.345 242.994 184.345C240.339 184.345 238.322 185.175 236.944 186.834C235.591 188.494 234.914 190.932 234.914 194.148C234.914 197.39 235.591 199.841 236.944 201.5C238.322 203.16 240.339 203.989 242.994 203.989C244.092 203.989 245.1 203.824 246.019 203.492C246.964 203.16 248.023 202.598 249.198 201.807C249.453 201.654 249.708 201.526 249.963 201.424C250.219 201.322 250.487 201.271 250.768 201.271C251.202 201.271 251.572 201.462 251.878 201.845C252.184 202.228 252.338 202.7 252.338 203.262C252.338 203.645 252.274 203.989 252.146 204.296C252.018 204.577 251.789 204.845 251.457 205.1C250.308 206.045 248.993 206.772 247.513 207.283C246.032 207.768 244.449 208.01 242.764 208.01ZM264.36 188.481C266.964 188.481 268.892 189.132 270.143 190.434C271.419 191.71 272.057 193.663 272.057 196.293V205.636C272.057 206.325 271.853 206.874 271.445 207.283C271.036 207.666 270.475 207.857 269.76 207.857C269.096 207.857 268.547 207.653 268.113 207.244C267.705 206.836 267.5 206.3 267.5 205.636V204.794C267.066 205.789 266.377 206.568 265.433 207.129C264.514 207.691 263.441 207.972 262.216 207.972C260.965 207.972 259.829 207.717 258.808 207.206C257.787 206.695 256.983 205.993 256.395 205.1C255.808 204.206 255.515 203.211 255.515 202.113C255.515 200.735 255.859 199.65 256.549 198.858C257.263 198.067 258.412 197.492 259.995 197.135C261.578 196.778 263.76 196.599 266.543 196.599H267.5V195.718C267.5 194.467 267.232 193.561 266.696 192.999C266.16 192.412 265.292 192.119 264.092 192.119C263.352 192.119 262.599 192.233 261.833 192.463C261.067 192.667 260.161 192.974 259.114 193.382C258.45 193.714 257.965 193.88 257.659 193.88C257.2 193.88 256.817 193.714 256.51 193.382C256.23 193.05 256.089 192.616 256.089 192.08C256.089 191.646 256.191 191.276 256.395 190.97C256.625 190.638 256.995 190.332 257.506 190.051C258.399 189.566 259.459 189.183 260.684 188.902C261.935 188.621 263.161 188.481 264.36 188.481ZM263.173 204.526C264.45 204.526 265.484 204.104 266.275 203.262C267.092 202.394 267.5 201.283 267.5 199.93V199.126H266.811C265.101 199.126 263.773 199.203 262.829 199.356C261.884 199.509 261.208 199.777 260.799 200.16C260.391 200.543 260.186 201.066 260.186 201.73C260.186 202.547 260.467 203.224 261.029 203.76C261.616 204.27 262.331 204.526 263.173 204.526ZM287.759 188.557C288.423 188.506 288.946 188.647 289.329 188.979C289.712 189.31 289.903 189.808 289.903 190.472C289.903 191.161 289.737 191.672 289.406 192.004C289.074 192.336 288.474 192.553 287.606 192.655L286.457 192.77C284.951 192.923 283.84 193.433 283.125 194.301C282.436 195.169 282.092 196.254 282.092 197.556V205.598C282.092 206.338 281.862 206.912 281.402 207.321C280.943 207.704 280.368 207.895 279.679 207.895C278.99 207.895 278.415 207.704 277.956 207.321C277.522 206.912 277.305 206.338 277.305 205.598V190.778C277.305 190.064 277.522 189.515 277.956 189.132C278.415 188.749 278.977 188.557 279.641 188.557C280.305 188.557 280.841 188.749 281.249 189.132C281.658 189.489 281.862 190.012 281.862 190.702V192.233C282.347 191.11 283.062 190.242 284.006 189.63C284.976 189.017 286.049 188.672 287.223 188.596L287.759 188.557ZM307.597 180.478C308.311 180.478 308.898 180.682 309.358 181.09C309.818 181.499 310.047 182.035 310.047 182.699V205.598C310.047 206.287 309.83 206.836 309.396 207.244C308.962 207.653 308.388 207.857 307.673 207.857C306.958 207.857 306.384 207.653 305.95 207.244C305.516 206.836 305.299 206.287 305.299 205.598V204.64C304.737 205.687 303.92 206.504 302.848 207.091C301.802 207.678 300.602 207.972 299.249 207.972C297.64 207.972 296.198 207.563 294.922 206.747C293.671 205.93 292.688 204.781 291.973 203.3C291.284 201.794 290.939 200.071 290.939 198.131C290.939 196.19 291.284 194.493 291.973 193.038C292.688 191.583 293.671 190.459 294.922 189.668C296.172 188.876 297.615 188.481 299.249 188.481C300.602 188.481 301.802 188.762 302.848 189.323C303.895 189.885 304.699 190.676 305.261 191.697V182.622C305.261 181.984 305.465 181.473 305.873 181.09C306.307 180.682 306.882 180.478 307.597 180.478ZM300.512 204.258C302.044 204.258 303.218 203.734 304.035 202.687C304.878 201.641 305.299 200.147 305.299 198.207C305.299 196.267 304.878 194.786 304.035 193.765C303.218 192.719 302.057 192.195 300.551 192.195C299.019 192.195 297.832 192.706 296.989 193.727C296.147 194.748 295.726 196.216 295.726 198.131C295.726 200.071 296.147 201.577 296.989 202.649C297.832 203.721 299.006 204.258 300.512 204.258ZM322.132 207.972C319.349 207.972 317.103 207.423 315.392 206.325C314.576 205.84 314.167 205.151 314.167 204.258C314.167 203.747 314.307 203.338 314.588 203.032C314.869 202.7 315.214 202.534 315.622 202.534C316.056 202.534 316.656 202.739 317.422 203.147C318.239 203.53 318.979 203.824 319.643 204.028C320.332 204.232 321.2 204.334 322.247 204.334C323.319 204.334 324.149 204.155 324.736 203.798C325.349 203.441 325.655 202.943 325.655 202.305C325.655 201.871 325.527 201.526 325.272 201.271C325.042 201.015 324.608 200.786 323.97 200.581C323.357 200.352 322.413 200.096 321.136 199.816C318.864 199.356 317.231 198.705 316.235 197.863C315.265 197.02 314.78 195.859 314.78 194.378C314.78 193.255 315.112 192.246 315.775 191.353C316.439 190.434 317.345 189.732 318.494 189.247C319.668 188.736 320.996 188.481 322.477 188.481C323.549 188.481 324.583 188.621 325.578 188.902C326.574 189.157 327.468 189.54 328.259 190.051C329.076 190.561 329.484 191.238 329.484 192.08C329.484 192.591 329.344 193.025 329.063 193.382C328.782 193.714 328.438 193.88 328.029 193.88C327.748 193.88 327.468 193.829 327.187 193.727C326.931 193.599 326.6 193.421 326.191 193.191C325.451 192.808 324.813 192.527 324.276 192.348C323.74 192.144 323.077 192.042 322.285 192.042C321.341 192.042 320.588 192.233 320.026 192.616C319.49 192.999 319.222 193.523 319.222 194.186C319.222 194.825 319.503 195.31 320.064 195.642C320.626 195.973 321.711 196.305 323.319 196.637C325.03 196.995 326.37 197.403 327.34 197.863C328.31 198.322 328.999 198.896 329.408 199.586C329.842 200.275 330.059 201.156 330.059 202.228C330.059 203.964 329.331 205.355 327.876 206.402C326.446 207.449 324.532 207.972 322.132 207.972Z" fill="white"/>
<defs>
<linearGradient id="paint0_linear" x1="246.4" y1="-39.3519" x2="254.276" y2="403.827" gradientUnits="userSpaceOnUse">
<stop stop-color="#FD749B"/>
<stop offset="1" stop-color="#281AC8"/>
</linearGradient>
<linearGradient id="paint1_linear" x1="192.864" y1="60.8588" x2="274.025" y2="142.02" gradientUnits="userSpaceOnUse">
<stop stop-color="#FFD459"/>
<stop offset="0.2296" stop-color="#FFD355"/>
<stop offset="0.4362" stop-color="#FFCF4A"/>
<stop offset="0.634" stop-color="#FFC838"/>
<stop offset="0.825" stop-color="#FFBF1F"/>
<stop offset="1" stop-color="#FFB400"/>
</linearGradient>
<linearGradient id="paint2_linear" x1="223.961" y1="116.257" x2="223.961" y2="128.307" gradientUnits="userSpaceOnUse">
<stop stop-color="#E58200" stop-opacity="0"/>
<stop offset="0.0396" stop-color="#E27F04" stop-opacity="0.039216"/>
<stop offset="0.4671" stop-color="#C15D2F" stop-opacity="0.466667"/>
<stop offset="0.8016" stop-color="#AD4949" stop-opacity="0.8"/>
<stop offset="1" stop-color="#A64153"/>
</linearGradient>
<linearGradient id="paint3_linear" x1="175.098" y1="97.7904" x2="171.925" y2="90.5377" gradientUnits="userSpaceOnUse">
<stop stop-color="#E58200" stop-opacity="0"/>
<stop offset="0.0396" stop-color="#E27F04" stop-opacity="0.039216"/>
<stop offset="0.4671" stop-color="#C15D2F" stop-opacity="0.466667"/>
<stop offset="0.8016" stop-color="#AD4949" stop-opacity="0.8"/>
<stop offset="1" stop-color="#A64153"/>
</linearGradient>
<linearGradient id="paint4_linear" x1="207.287" y1="67.9062" x2="188.887" y2="54.9038" gradientUnits="userSpaceOnUse">
<stop stop-color="#E58200" stop-opacity="0"/>
<stop offset="0.0396" stop-color="#E27F04" stop-opacity="0.039216"/>
<stop offset="0.4671" stop-color="#C15D2F" stop-opacity="0.466667"/>
<stop offset="0.8016" stop-color="#AD4949" stop-opacity="0.8"/>
<stop offset="1" stop-color="#A64153"/>
</linearGradient>
<linearGradient id="paint5_linear" x1="199.281" y1="66.7353" x2="265.1" y2="132.563" gradientUnits="userSpaceOnUse">
<stop stop-color="#FFFCF8"/>
<stop offset="0.1875" stop-color="#FAF8F6"/>
<stop offset="0.4041" stop-color="#ECEEF2"/>
<stop offset="0.6353" stop-color="#D5DCEA"/>
<stop offset="0.875" stop-color="#B5C4DF"/>
<stop offset="1" stop-color="#A1B5D8"/>
</linearGradient>
<linearGradient id="paint6_linear" x1="211.11" y1="108.926" x2="190.502" y2="61.8227" gradientUnits="userSpaceOnUse">
<stop stop-color="#A1B5D8" stop-opacity="0"/>
<stop offset="0.0343" stop-color="#9FB3D5" stop-opacity="0.035294"/>
<stop offset="0.4515" stop-color="#8898AF" stop-opacity="0.45098"/>
<stop offset="0.788" stop-color="#798898" stop-opacity="0.788235"/>
<stop offset="1" stop-color="#748290"/>
</linearGradient>
<linearGradient id="paint7_linear" x1="223.958" y1="82.3911" x2="223.958" y2="98.3375" gradientUnits="userSpaceOnUse">
<stop stop-color="#FF6E3A"/>
<stop offset="0.1596" stop-color="#FF6440"/>
<stop offset="0.4266" stop-color="#FF4B52"/>
<stop offset="0.7662" stop-color="#FF216E"/>
<stop offset="1" stop-color="#FF0084"/>
</linearGradient>
<linearGradient id="paint8_linear" x1="220.489" y1="95.1482" x2="203.234" y2="77.8932" gradientUnits="userSpaceOnUse">
<stop stop-color="#E58200" stop-opacity="0"/>
<stop offset="0.4384" stop-color="#C4602C" stop-opacity="0.439216"/>
<stop offset="0.7953" stop-color="#AE4948" stop-opacity="0.796078"/>
<stop offset="1" stop-color="#A64153"/>
</linearGradient>
<linearGradient id="paint9_linear" x1="193.923" y1="87.9009" x2="193.923" y2="142.845" gradientUnits="userSpaceOnUse">
<stop stop-color="#FF6E3A"/>
<stop offset="0.1596" stop-color="#FF6440"/>
<stop offset="0.4266" stop-color="#FF4B52"/>
<stop offset="0.7662" stop-color="#FF216E"/>
<stop offset="1" stop-color="#FF0084"/>
</linearGradient>
<linearGradient id="paint10_linear" x1="203.347" y1="100.409" x2="187.19" y2="84.2526" gradientUnits="userSpaceOnUse">
<stop stop-color="#E58200" stop-opacity="0"/>
<stop offset="0.4384" stop-color="#C4602C" stop-opacity="0.439216"/>
<stop offset="0.7953" stop-color="#AE4948" stop-opacity="0.796078"/>
<stop offset="1" stop-color="#A64153"/>
</linearGradient>
<linearGradient id="paint11_linear" x1="186.381" y1="99.591" x2="179.821" y2="74.7901" gradientUnits="userSpaceOnUse">
<stop stop-color="#FF0084"/>
<stop offset="0.2338" stop-color="#FF216E"/>
<stop offset="0.5734" stop-color="#FF4B52"/>
<stop offset="0.8404" stop-color="#FF6440"/>
<stop offset="1" stop-color="#FF6E3A"/>
</linearGradient>
<linearGradient id="paint12_linear" x1="203.447" y1="100.769" x2="205.687" y2="70.3675" gradientUnits="userSpaceOnUse">
<stop stop-color="#FF0084"/>
<stop offset="0.2338" stop-color="#FF216E"/>
<stop offset="0.5734" stop-color="#FF4B52"/>
<stop offset="0.8404" stop-color="#FF6440"/>
<stop offset="1" stop-color="#FF6E3A"/>
</linearGradient>
<linearGradient id="paint13_linear" x1="185.006" y1="95.1878" x2="184.544" y2="85.7789" gradientUnits="userSpaceOnUse">
<stop stop-color="#E58200" stop-opacity="0"/>
<stop offset="0.4384" stop-color="#C4602C" stop-opacity="0.439216"/>
<stop offset="0.7953" stop-color="#AE4948" stop-opacity="0.796078"/>
<stop offset="1" stop-color="#A64153"/>
</linearGradient>
<linearGradient id="paint14_linear" x1="182.802" y1="88.2052" x2="198.545" y2="75.4892" gradientUnits="userSpaceOnUse">
<stop stop-color="#E58200" stop-opacity="0"/>
<stop offset="0.4384" stop-color="#C4602C" stop-opacity="0.439216"/>
<stop offset="0.7953" stop-color="#AE4948" stop-opacity="0.796078"/>
<stop offset="1" stop-color="#A64153"/>
</linearGradient>
<linearGradient id="paint15_linear" x1="202.862" y1="95.0151" x2="203.236" y2="85.6006" gradientUnits="userSpaceOnUse">
<stop stop-color="#E58200" stop-opacity="0"/>
<stop offset="0.4384" stop-color="#C4602C" stop-opacity="0.439216"/>
<stop offset="0.7953" stop-color="#AE4948" stop-opacity="0.796078"/>
<stop offset="1" stop-color="#A64153"/>
</linearGradient>
<linearGradient id="paint16_linear" x1="205.004" y1="88.0112" x2="189.142" y2="75.4435" gradientUnits="userSpaceOnUse">
<stop stop-color="#E58200" stop-opacity="0"/>
<stop offset="0.4384" stop-color="#C4602C" stop-opacity="0.439216"/>
<stop offset="0.7953" stop-color="#AE4948" stop-opacity="0.796078"/>
<stop offset="1" stop-color="#A64153"/>
</linearGradient>
<linearGradient id="paint17_linear" x1="206.557" y1="94.4523" x2="194.438" y2="82.3336" gradientUnits="userSpaceOnUse">
<stop stop-color="#E58200" stop-opacity="0"/>
<stop offset="0.4384" stop-color="#C4602C" stop-opacity="0.439216"/>
<stop offset="0.7953" stop-color="#AE4948" stop-opacity="0.796078"/>
<stop offset="1" stop-color="#A64153"/>
</linearGradient>
<linearGradient id="paint18_linear" x1="189.418" y1="81.5747" x2="200.56" y2="92.7167" gradientUnits="userSpaceOnUse">
<stop stop-color="#FF6E3A"/>
<stop offset="0.1596" stop-color="#FF6440"/>
<stop offset="0.4266" stop-color="#FF4B52"/>
<stop offset="0.7662" stop-color="#FF216E"/>
<stop offset="1" stop-color="#FF0084"/>
</linearGradient>
<linearGradient id="paint19_linear" x1="208.613" y1="103.676" x2="208.613" y2="115.647" gradientUnits="userSpaceOnUse">
<stop stop-color="#45425A"/>
<stop offset="1" stop-color="#2D3251"/>
</linearGradient>
<linearGradient id="paint20_linear" x1="218.536" y1="103.676" x2="218.536" y2="115.647" gradientUnits="userSpaceOnUse">
<stop stop-color="#45425A"/>
<stop offset="1" stop-color="#2D3251"/>
</linearGradient>
<linearGradient id="paint21_linear" x1="228.624" y1="103.677" x2="228.624" y2="115.648" gradientUnits="userSpaceOnUse">
<stop stop-color="#45425A"/>
<stop offset="1" stop-color="#2D3251"/>
</linearGradient>
<linearGradient id="paint22_linear" x1="238.729" y1="103.676" x2="238.729" y2="115.647" gradientUnits="userSpaceOnUse">
<stop stop-color="#45425A"/>
<stop offset="1" stop-color="#2D3251"/>
</linearGradient>
<linearGradient id="paint23_linear" x1="248.464" y1="103.676" x2="248.464" y2="115.647" gradientUnits="userSpaceOnUse">
<stop stop-color="#45425A"/>
<stop offset="1" stop-color="#2D3251"/>
</linearGradient>
<linearGradient id="paint24_linear" x1="258.685" y1="103.676" x2="258.685" y2="115.647" gradientUnits="userSpaceOnUse">
<stop stop-color="#45425A"/>
<stop offset="1" stop-color="#2D3251"/>
</linearGradient>
<linearGradient id="paint25_linear" x1="268.053" y1="103.676" x2="268.053" y2="115.647" gradientUnits="userSpaceOnUse">
<stop stop-color="#45425A"/>
<stop offset="1" stop-color="#2D3251"/>
</linearGradient>
<linearGradient id="paint26_linear" x1="403.036" y1="23.4553" x2="421.303" y2="41.7222" gradientUnits="userSpaceOnUse">
<stop stop-color="#FFD459"/>
<stop offset="0.2296" stop-color="#FFD355"/>
<stop offset="0.4362" stop-color="#FFCF4A"/>
<stop offset="0.634" stop-color="#FFC838"/>
<stop offset="0.825" stop-color="#FFBF1F"/>
<stop offset="1" stop-color="#FFB400"/>
</linearGradient>
<linearGradient id="paint27_linear" x1="410.035" y1="35.9238" x2="410.035" y2="38.6359" gradientUnits="userSpaceOnUse">
<stop stop-color="#E58200" stop-opacity="0"/>
<stop offset="0.0396" stop-color="#E27F04" stop-opacity="0.039216"/>
<stop offset="0.4671" stop-color="#C15D2F" stop-opacity="0.466667"/>
<stop offset="0.8016" stop-color="#AD4949" stop-opacity="0.8"/>
<stop offset="1" stop-color="#A64153"/>
</linearGradient>
<linearGradient id="paint28_linear" x1="399.04" y1="31.7676" x2="398.326" y2="30.1352" gradientUnits="userSpaceOnUse">
<stop stop-color="#E58200" stop-opacity="0"/>
<stop offset="0.0396" stop-color="#E27F04" stop-opacity="0.039216"/>
<stop offset="0.4671" stop-color="#C15D2F" stop-opacity="0.466667"/>
<stop offset="0.8016" stop-color="#AD4949" stop-opacity="0.8"/>
<stop offset="1" stop-color="#A64153"/>
</linearGradient>
<linearGradient id="paint29_linear" x1="406.282" y1="25.0417" x2="402.141" y2="22.1152" gradientUnits="userSpaceOnUse">
<stop stop-color="#E58200" stop-opacity="0"/>
<stop offset="0.0396" stop-color="#E27F04" stop-opacity="0.039216"/>
<stop offset="0.4671" stop-color="#C15D2F" stop-opacity="0.466667"/>
<stop offset="0.8016" stop-color="#AD4949" stop-opacity="0.8"/>
<stop offset="1" stop-color="#A64153"/>
</linearGradient>
<linearGradient id="paint30_linear" x1="404.48" y1="24.778" x2="419.294" y2="39.5938" gradientUnits="userSpaceOnUse">
<stop stop-color="#FFFCF8"/>
<stop offset="0.1875" stop-color="#FAF8F6"/>
<stop offset="0.4041" stop-color="#ECEEF2"/>
<stop offset="0.6353" stop-color="#D5DCEA"/>
<stop offset="0.875" stop-color="#B5C4DF"/>
<stop offset="1" stop-color="#A1B5D8"/>
</linearGradient>
<linearGradient id="paint31_linear" x1="407.141" y1="34.2739" x2="402.503" y2="23.6723" gradientUnits="userSpaceOnUse">
<stop stop-color="#A1B5D8" stop-opacity="0"/>
<stop offset="0.0343" stop-color="#9FB3D5" stop-opacity="0.035294"/>
<stop offset="0.4515" stop-color="#8898AF" stop-opacity="0.45098"/>
<stop offset="0.788" stop-color="#798898" stop-opacity="0.788235"/>
<stop offset="1" stop-color="#748290"/>
</linearGradient>
<linearGradient id="paint32_linear" x1="410.035" y1="28.302" x2="410.035" y2="31.8911" gradientUnits="userSpaceOnUse">
<stop stop-color="#FF6E3A"/>
<stop offset="0.1596" stop-color="#FF6440"/>
<stop offset="0.4266" stop-color="#FF4B52"/>
<stop offset="0.7662" stop-color="#FF216E"/>
<stop offset="1" stop-color="#FF0084"/>
</linearGradient>
<linearGradient id="paint33_linear" x1="409.254" y1="31.1732" x2="405.371" y2="27.2896" gradientUnits="userSpaceOnUse">
<stop stop-color="#E58200" stop-opacity="0"/>
<stop offset="0.4384" stop-color="#C4602C" stop-opacity="0.439216"/>
<stop offset="0.7953" stop-color="#AE4948" stop-opacity="0.796078"/>
<stop offset="1" stop-color="#A64153"/>
</linearGradient>
<linearGradient id="paint34_linear" x1="403.276" y1="29.5418" x2="403.276" y2="41.908" gradientUnits="userSpaceOnUse">
<stop stop-color="#FF6E3A"/>
<stop offset="0.1596" stop-color="#FF6440"/>
<stop offset="0.4266" stop-color="#FF4B52"/>
<stop offset="0.7662" stop-color="#FF216E"/>
<stop offset="1" stop-color="#FF0084"/>
</linearGradient>
<linearGradient id="paint35_linear" x1="405.397" y1="32.3569" x2="401.761" y2="28.7205" gradientUnits="userSpaceOnUse">
<stop stop-color="#E58200" stop-opacity="0"/>
<stop offset="0.4384" stop-color="#C4602C" stop-opacity="0.439216"/>
<stop offset="0.7953" stop-color="#AE4948" stop-opacity="0.796078"/>
<stop offset="1" stop-color="#A64153"/>
</linearGradient>
<linearGradient id="paint36_linear" x1="401.575" y1="32.1731" x2="400.099" y2="26.5911" gradientUnits="userSpaceOnUse">
<stop stop-color="#FF0084"/>
<stop offset="0.2338" stop-color="#FF216E"/>
<stop offset="0.5734" stop-color="#FF4B52"/>
<stop offset="0.8404" stop-color="#FF6440"/>
<stop offset="1" stop-color="#FF6E3A"/>
</linearGradient>
<linearGradient id="paint37_linear" x1="405.417" y1="32.4378" x2="405.921" y2="25.5954" gradientUnits="userSpaceOnUse">
<stop stop-color="#FF0084"/>
<stop offset="0.2338" stop-color="#FF216E"/>
<stop offset="0.5734" stop-color="#FF4B52"/>
<stop offset="0.8404" stop-color="#FF6440"/>
<stop offset="1" stop-color="#FF6E3A"/>
</linearGradient>
<linearGradient id="paint38_linear" x1="401.269" y1="31.1819" x2="401.165" y2="29.0643" gradientUnits="userSpaceOnUse">
<stop stop-color="#E58200" stop-opacity="0"/>
<stop offset="0.4384" stop-color="#C4602C" stop-opacity="0.439216"/>
<stop offset="0.7953" stop-color="#AE4948" stop-opacity="0.796078"/>
<stop offset="1" stop-color="#A64153"/>
</linearGradient>
<linearGradient id="paint39_linear" x1="400.772" y1="29.6102" x2="404.315" y2="26.7482" gradientUnits="userSpaceOnUse">
<stop stop-color="#E58200" stop-opacity="0"/>
<stop offset="0.4384" stop-color="#C4602C" stop-opacity="0.439216"/>
<stop offset="0.7953" stop-color="#AE4948" stop-opacity="0.796078"/>
<stop offset="1" stop-color="#A64153"/>
</linearGradient>
<linearGradient id="paint40_linear" x1="405.287" y1="31.143" x2="405.372" y2="29.0241" gradientUnits="userSpaceOnUse">
<stop stop-color="#E58200" stop-opacity="0"/>
<stop offset="0.4384" stop-color="#C4602C" stop-opacity="0.439216"/>
<stop offset="0.7953" stop-color="#AE4948" stop-opacity="0.796078"/>
<stop offset="1" stop-color="#A64153"/>
</linearGradient>
<linearGradient id="paint41_linear" x1="405.767" y1="29.5667" x2="402.197" y2="26.7381" gradientUnits="userSpaceOnUse">
<stop stop-color="#E58200" stop-opacity="0"/>
<stop offset="0.4384" stop-color="#C4602C" stop-opacity="0.439216"/>
<stop offset="0.7953" stop-color="#AE4948" stop-opacity="0.796078"/>
<stop offset="1" stop-color="#A64153"/>
</linearGradient>
<linearGradient id="paint42_linear" x1="406.117" y1="31.0163" x2="403.389" y2="28.2888" gradientUnits="userSpaceOnUse">
<stop stop-color="#E58200" stop-opacity="0"/>
<stop offset="0.4384" stop-color="#C4602C" stop-opacity="0.439216"/>
<stop offset="0.7953" stop-color="#AE4948" stop-opacity="0.796078"/>
<stop offset="1" stop-color="#A64153"/>
</linearGradient>
<linearGradient id="paint43_linear" x1="402.262" y1="28.1181" x2="404.77" y2="30.6258" gradientUnits="userSpaceOnUse">
<stop stop-color="#FF6E3A"/>
<stop offset="0.1596" stop-color="#FF6440"/>
<stop offset="0.4266" stop-color="#FF4B52"/>
<stop offset="0.7662" stop-color="#FF216E"/>
<stop offset="1" stop-color="#FF0084"/>
</linearGradient>
<linearGradient id="paint44_linear" x1="406.58" y1="33.0924" x2="406.58" y2="35.7868" gradientUnits="userSpaceOnUse">
<stop stop-color="#45425A"/>
<stop offset="1" stop-color="#2D3251"/>
</linearGradient>
<linearGradient id="paint45_linear" x1="408.816" y1="33.0924" x2="408.816" y2="35.7868" gradientUnits="userSpaceOnUse">
<stop stop-color="#45425A"/>
<stop offset="1" stop-color="#2D3251"/>
</linearGradient>
<linearGradient id="paint46_linear" x1="411.086" y1="33.0926" x2="411.086" y2="35.787" gradientUnits="userSpaceOnUse">
<stop stop-color="#45425A"/>
<stop offset="1" stop-color="#2D3251"/>
</linearGradient>
<linearGradient id="paint47_linear" x1="413.361" y1="33.0924" x2="413.361" y2="35.7868" gradientUnits="userSpaceOnUse">
<stop stop-color="#45425A"/>
<stop offset="1" stop-color="#2D3251"/>
</linearGradient>
<linearGradient id="paint48_linear" x1="415.551" y1="33.0924" x2="415.551" y2="35.7868" gradientUnits="userSpaceOnUse">
<stop stop-color="#45425A"/>
<stop offset="1" stop-color="#2D3251"/>
</linearGradient>
<linearGradient id="paint49_linear" x1="417.851" y1="33.0924" x2="417.851" y2="35.7868" gradientUnits="userSpaceOnUse">
<stop stop-color="#45425A"/>
<stop offset="1" stop-color="#2D3251"/>
</linearGradient>
<linearGradient id="paint50_linear" x1="419.96" y1="33.0924" x2="419.96" y2="35.7868" gradientUnits="userSpaceOnUse">
<stop stop-color="#45425A"/>
<stop offset="1" stop-color="#2D3251"/>
</linearGradient>
</defs>
</svg>
