<svg width="100" height="100" viewBox="0 0 100 100" fill="none" xmlns="http://www.w3.org/2000/svg">
<path d="M94.8447 50C97.6919 50 100.028 52.3143 99.7345 55.1463C98.8482 63.7116 95.7606 71.9344 90.7331 78.9968C84.7053 87.4643 76.1885 93.8428 66.3673 97.2452C56.5462 100.648 45.9088 100.905 35.9346 97.9809C25.9605 95.057 17.1455 89.0975 10.7156 80.9312C4.28573 72.7648 0.560626 62.7977 0.0584029 52.416C-0.443821 42.0342 2.3018 31.7541 7.91339 23.0052C13.525 14.2564 21.7236 7.47381 31.3689 3.60083C39.4137 0.37052 48.1314 -0.701746 56.6656 0.44624C59.4873 0.825817 61.189 3.63921 60.5211 6.40694C59.8531 9.17466 57.0666 10.8411 54.2357 10.5372C47.8002 9.84646 41.2655 10.7377 35.2109 13.1689C27.5545 16.2432 21.0466 21.6271 16.5921 28.5719C12.1377 35.5166 9.95828 43.6769 10.3569 51.9178C10.7556 60.1586 13.7125 68.0705 18.8165 74.5528C23.9205 81.0351 30.9177 85.7657 38.8351 88.0867C46.7524 90.4076 55.1963 90.2035 62.9922 87.5027C70.7882 84.8019 77.5487 79.7387 82.3334 73.0173C86.1172 67.7021 88.5167 61.5589 89.3551 55.141C89.7239 52.3178 91.9975 50 94.8447 50Z" fill="#9D0957"/>
</svg>
