<svg width="24" height="24" viewBox="0 0 24 24" fill="none" xmlns="http://www.w3.org/2000/svg">
<path d="M1.18066 12.0001C2.12066 6.88012 6.60766 3.00012 11.9997 3.00012C17.3917 3.00012 21.8777 6.88012 22.8187 12.0001C21.8787 17.1201 17.3917 21.0001 11.9997 21.0001C6.60766 21.0001 2.12166 17.1201 1.18066 12.0001ZM11.9997 17.0001C13.3257 17.0001 14.5975 16.4733 15.5352 15.5357C16.4729 14.598 16.9997 13.3262 16.9997 12.0001C16.9997 10.674 16.4729 9.40227 15.5352 8.46459C14.5975 7.52691 13.3257 7.00012 11.9997 7.00012C10.6736 7.00012 9.40181 7.52691 8.46413 8.46459C7.52645 9.40227 6.99966 10.674 6.99966 12.0001C6.99966 13.3262 7.52645 14.598 8.46413 15.5357C9.40181 16.4733 10.6736 17.0001 11.9997 17.0001ZM11.9997 15.0001C11.204 15.0001 10.441 14.6841 9.87834 14.1214C9.31573 13.5588 8.99966 12.7958 8.99966 12.0001C8.99966 11.2045 9.31573 10.4414 9.87834 9.8788C10.441 9.31619 11.204 9.00012 11.9997 9.00012C12.7953 9.00012 13.5584 9.31619 14.121 9.8788C14.6836 10.4414 14.9997 11.2045 14.9997 12.0001C14.9997 12.7958 14.6836 13.5588 14.121 14.1214C13.5584 14.6841 12.7953 15.0001 11.9997 15.0001Z" fill="white" fill-opacity="0.5"/>
</svg>
