<svg width="150" height="137" viewBox="0 0 150 137" fill="none" xmlns="http://www.w3.org/2000/svg">
<g clip-path="url(#clip0)">
<path d="M45.5881 47.1042C45.5881 42.6192 41.9396 38.9707 37.4546 38.9707H25.7805C21.2955 38.9707 17.647 42.6192 17.647 47.1042V57.3078C17.647 61.7928 21.2955 65.4413 25.7805 65.4413H37.4546C41.9396 65.4413 45.5881 61.7928 45.5881 57.3078V47.1042ZM36.7646 56.6178H26.4705V47.7942H36.7646V56.6178Z" fill="#0898D7"/>
<path d="M17.647 74.2646H35.294V83.0882H17.647V74.2646Z" fill="#0898D7"/>
<path d="M44.1174 74.2646H61.7645V83.0882H44.1174V74.2646Z" fill="#0898D7"/>
<path d="M141.176 74.265V69.4329C141.176 58.4891 133.666 49.2667 123.529 46.6479V24.2908C123.529 17.7897 118.24 12.5002 111.739 12.5002H11.7906C5.28912 12.5002 0 17.7894 0 24.2908V88.9449C0 95.4464 5.28912 100.736 11.7906 100.736H85.2941V105.147C85.2941 122.987 99.8076 137.5 117.647 137.5C135.486 137.5 150 122.987 150 105.147V74.265H141.176ZM132.353 69.4329V74.265H102.941V69.4329C102.941 61.3241 109.538 54.727 117.647 54.727C125.756 54.727 132.353 61.3241 132.353 69.4329ZM11.7906 91.912C10.1544 91.912 8.82353 90.5811 8.82353 88.9449V24.2908C8.82353 22.6547 10.1544 21.3238 11.7906 21.3238H111.739C113.375 21.3238 114.706 22.6547 114.706 24.2908V46.0941C103.116 47.5467 94.1177 57.4555 94.1177 69.4332V74.265H70.5882V83.0885H85.2941V91.912H11.7906ZM141.176 105.147C141.176 118.121 130.621 128.677 117.647 128.677C104.673 128.677 94.1177 118.121 94.1177 105.147V83.0885H141.176V105.147Z" fill="#0898D7"/>
<path d="M114.546 115.638L132.363 99.6031L126.461 93.0449L114.866 103.48L109.002 97.6164L102.763 103.855L114.546 115.638Z" fill="#0898D7"/>
</g>
<defs>
<clipPath id="clip0">
<rect width="150" height="137" fill="white"/>
</clipPath>
</defs>
</svg>
