<svg width="150" height="150" viewBox="0 0 150 150" fill="none" xmlns="http://www.w3.org/2000/svg">
<g clip-path="url(#clip0)">
<path d="M78.7097 71.2942C77.5642 70.1487 75.7097 70.1487 74.5642 71.2942C73.4216 72.4368 73.4216 74.2912 74.5642 75.4368C75.7097 76.5793 77.5642 76.5793 78.7097 75.4368C79.8523 74.2912 79.8523 72.4368 78.7097 71.2942Z" fill="#0898D7"/>
<path d="M115.996 34.0045C110.272 28.2802 101.004 28.2799 95.2796 34.0045C89.5699 39.7142 89.5696 49.0071 95.2804 54.7215C100.992 60.4297 110.285 60.432 115.996 54.7209C121.72 48.9969 121.721 39.7294 115.996 34.0045ZM111.853 50.5774C108.427 54.0034 102.851 54.0034 99.4236 50.578C95.9973 47.1497 95.997 41.5734 99.423 38.1477C102.857 34.7132 108.418 34.7126 111.853 38.1477C115.287 41.5819 115.288 47.1427 111.853 50.5774Z" fill="#0898D7"/>
<path d="M149.141 0.857888C148.566 0.282792 147.781 -0.0289263 146.964 0.00183535C146.302 0.0255658 130.53 0.659549 111.782 7.2862C96.7582 12.5907 84.2359 20.1853 74.5624 29.8591C72.3947 32.0268 70.2853 34.3254 68.2671 36.7134C58.7022 31.0831 51.0376 32.8485 46.1922 35.4416C35.0357 41.4123 28.1301 57.624 28.1301 69.2197C28.131 70.4044 28.845 71.4729 29.9395 71.9261C30.3019 72.0764 30.6828 72.1493 31.0601 72.1493C31.8227 72.1493 32.5718 71.8514 33.1323 71.2912C39.0159 65.4076 46.2731 65.7755 48.6438 66.0872L49.6697 67.1132C47.6506 71.9179 46.024 76.6956 44.8311 81.3424C44.4004 83.024 44.5457 84.8035 45.1859 86.4313C42.3652 87.7312 39.6438 89.6398 37.2743 92.0094C29.733 99.551 28.2016 117.93 28.1401 118.709C28.0727 119.563 28.3827 120.405 28.9888 121.011C29.5405 121.562 30.2867 121.869 31.0601 121.869C31.1369 121.869 31.2139 121.866 31.291 121.86C32.0697 121.799 50.4493 120.267 57.9906 112.726C60.3593 110.357 62.2677 107.636 63.5676 104.816C65.2908 105.494 67.0644 105.577 68.6593 105.169C73.3041 103.976 78.0812 102.35 82.8865 100.331L83.9124 101.357C84.2239 103.728 84.5918 110.985 78.7084 116.868C77.8708 117.706 77.6201 118.966 78.0736 120.06C78.5268 121.155 79.595 121.869 80.78 121.869C92.3757 121.869 108.587 114.963 114.558 103.807C117.151 98.9618 118.916 91.2972 113.286 81.732C115.673 79.7147 117.972 77.6053 120.14 75.4367C129.814 65.7629 137.408 53.2406 142.713 38.2184C149.34 19.469 149.974 3.69675 149.997 3.03464C150.027 2.22166 149.716 1.43328 149.141 0.857888ZM34.6803 62.9182C36.5002 54.1107 41.7863 44.446 48.9581 40.6075C53.7508 38.0429 58.9893 38.2942 64.5593 41.3432C59.8141 47.584 55.6888 54.3076 52.2502 61.4077C52.2065 61.3807 51.6792 60.7177 50.6995 60.4968C50.2967 60.4057 42.545 58.7384 34.6803 62.9182ZM53.8475 108.583C49.8191 112.611 40.3695 114.735 34.3967 115.603C35.2645 109.63 37.3894 100.181 41.4174 96.1525C43.6733 93.8967 46.2889 92.1863 48.918 91.223L58.7769 101.082C57.8137 103.711 56.1036 106.327 53.8475 108.583ZM67.2039 99.4927C66.356 99.7097 65.374 99.391 64.6439 98.6621C60.8538 94.872 59.3711 93.3893 58.9058 92.9243C58.0527 92.0712 55.9606 89.9791 51.3397 85.3578C50.609 84.6257 50.2902 83.644 50.5067 82.7976C51.4451 79.1431 52.6724 75.3937 54.1647 71.6082L78.3917 95.8352C74.6057 97.3279 70.8569 98.5549 67.2039 99.4927ZM109.392 101.042C105.554 108.213 95.8896 113.5 87.0824 115.319C89.8905 110.035 90.5095 103.308 89.4835 99.2293C89.2453 98.2818 88.6272 97.8055 88.5926 97.7495C95.6921 94.3109 102.415 90.1856 108.657 85.4404C111.706 91.0109 111.957 96.2501 109.392 101.042ZM115.998 71.2936C113.358 73.9332 110.515 76.4835 107.549 78.8733C100.417 84.6154 92.5679 89.4793 84.1937 93.3512L56.6488 65.8069C60.5207 57.4321 65.3846 49.5829 71.1261 42.4523C73.5179 39.4837 76.0679 36.6407 78.7067 34.0023C87.3859 25.3228 98.5872 18.4152 112.009 13.4429L136.557 37.9913C131.585 51.4125 124.678 62.6138 115.998 71.2936ZM138.665 31.8123L118.188 11.335C129.344 7.86979 139.05 6.57223 143.894 6.10583C143.428 10.9512 142.13 20.657 138.665 31.8123Z" fill="#0898D7"/>
<path d="M70.4212 121.01C69.2766 119.866 67.4215 119.867 66.2778 121.011L57.9926 129.299C56.8489 130.443 56.8492 132.299 57.9932 133.442C59.1378 134.586 60.9929 134.586 62.1367 133.442L70.4218 125.154C71.5656 124.009 71.5653 122.154 70.4212 121.01Z" fill="#0898D7"/>
<path d="M28.9904 79.5794C27.8466 78.4351 25.9919 78.4351 24.8472 79.5788L16.5592 87.8639C15.4148 89.0077 15.4145 90.8628 16.5583 92.0071C17.7017 93.1508 19.5565 93.152 20.7014 92.0077L28.9895 83.7225C30.1338 82.5788 30.1341 80.7237 28.9904 79.5794Z" fill="#0898D7"/>
<path d="M49.7055 125.156C48.562 124.012 46.7067 124.012 45.5623 125.156L25.7167 144.999C24.5724 146.143 24.5724 147.998 25.7164 149.142C26.8598 150.286 28.7152 150.287 29.8595 149.142L49.7052 129.299C50.8495 128.155 50.8495 126.3 49.7055 125.156Z" fill="#0898D7"/>
<path d="M26.268 125.156C25.1243 124.012 23.2689 124.012 22.1249 125.156L2.27919 144.999C1.13485 146.143 1.13485 147.998 2.27889 149.142C3.42235 150.286 5.27771 150.287 6.42205 149.142L26.2677 129.299C27.412 128.155 27.412 126.3 26.268 125.156Z" fill="#0898D7"/>
<path d="M24.8439 100.294C23.7001 99.1503 21.8448 99.1503 20.7007 100.294L0.857994 120.14C-0.286047 121.284 -0.286047 123.139 0.858287 124.283C2.00233 125.427 3.8574 125.427 5.00144 124.283L24.8442 104.437C25.9882 103.293 25.9882 101.438 24.8439 100.294Z" fill="#0898D7"/>
<path d="M91.1377 58.8629C89.9933 57.7189 88.1389 57.7189 86.9942 58.8629L82.8517 63.0055C81.7076 64.1495 81.7076 66.0046 82.8517 67.1489C83.996 68.293 85.8508 68.293 86.9951 67.1489L91.1377 63.0064C92.2817 61.8623 92.2817 60.0072 91.1377 58.8629Z" fill="#0898D7"/>
</g>
<defs>
<clipPath id="clip0">
<rect width="150" height="150" fill="white"/>
</clipPath>
</defs>
</svg>
