<svg width="232" height="161" viewBox="0 0 232 161" fill="none" xmlns="http://www.w3.org/2000/svg">
<rect x="0.363281" width="231.525" height="160.865" rx="15" fill="black"/>
<path fill-rule="evenodd" clip-rule="evenodd" d="M115.684 92.6328C129.113 92.6328 140 81.746 140 68.3164C140 54.8868 129.113 44 115.684 44C102.254 44 91.3672 54.8868 91.3672 68.3164C91.3672 69.9575 91.5298 71.5606 91.8397 73.1105L106.012 73.5233C106.935 71.7669 108.517 70.3587 110.543 69.6892L110.694 62.845C110.68 62.8044 110.664 62.7642 110.649 62.724C110.618 62.6439 110.588 62.5638 110.563 62.4808C109.126 57.7833 111.785 52.8055 116.501 51.3628C121.217 49.9203 126.206 52.5584 127.643 57.2559C128.782 60.9775 127.345 64.8671 124.358 67.0439L120.115 73.69C120.296 74.0614 120.46 74.4451 120.584 74.852C121.858 79.0152 119.502 83.4272 115.324 84.7052C111.72 85.8078 107.942 84.2167 106.151 81.0891L94.787 80.7584C99.0303 87.8698 106.801 92.6328 115.684 92.6328ZM120.533 64.6533C123.15 63.8527 124.625 61.089 123.828 58.4816C123.03 55.8742 120.261 54.4093 117.644 55.2099C115.025 56.0109 113.551 58.7739 114.348 61.3813C115.146 63.9887 117.913 65.4547 120.533 64.6533ZM121.102 66.5041C117.439 67.6246 113.565 65.575 112.449 61.9262C111.332 58.2757 113.397 54.4095 117.06 53.289C120.722 52.1687 124.599 54.2176 125.715 57.8681C126.831 61.5168 124.765 65.3836 121.102 66.5041ZM110.501 73.1421C113.29 72.2892 116.24 73.8505 117.089 76.628C117.939 79.4055 116.367 82.35 113.579 83.2024C111.308 83.8969 108.931 82.9918 107.668 81.1323L111.023 81.2304C113.104 81.6376 115.128 80.2873 115.54 78.2089C115.954 76.134 114.603 74.1203 112.521 73.7117L109.407 73.6212C109.747 73.4264 110.11 73.2619 110.501 73.1421Z" fill="white"/>
<path fill-rule="evenodd" clip-rule="evenodd" d="M215.316 17C217.903 17 220 14.9031 220 12.3164C220 9.72974 217.903 7.63281 215.316 7.63281C212.73 7.63281 210.633 9.72974 210.633 12.3164C210.633 12.6325 210.664 12.9413 210.724 13.2398L213.452 13.3193C213.63 12.981 213.935 12.7097 214.325 12.5808L214.354 11.2625C214.351 11.2547 214.348 11.2469 214.345 11.2392C214.339 11.2238 214.334 11.2083 214.329 11.1924C214.052 10.2876 214.564 9.32877 215.472 9.05089C216.381 8.77305 217.342 9.28119 217.619 10.186C217.838 10.9028 217.561 11.652 216.986 12.0713L216.169 13.3514C216.203 13.4229 216.235 13.4968 216.259 13.5752C216.504 14.3771 216.051 15.2269 215.246 15.473C214.552 15.6854 213.824 15.3789 213.479 14.7765L211.291 14.7129C212.109 16.0826 213.605 17 215.316 17ZM216.249 11.6108C216.753 11.4566 217.037 10.9243 216.884 10.4221C216.73 9.91985 216.197 9.63769 215.693 9.79189C215.188 9.94618 214.904 10.4784 215.058 10.9806C215.211 11.4828 215.744 11.7652 216.249 11.6108ZM216.359 11.9673C215.653 12.1831 214.907 11.7883 214.692 11.0855C214.477 10.3824 214.875 9.63773 215.58 9.42191C216.286 9.20612 217.032 9.60077 217.247 10.3039C217.462 11.0067 217.064 11.7515 216.359 11.9673ZM214.317 13.2458C214.854 13.0816 215.422 13.3823 215.586 13.9173C215.749 14.4522 215.447 15.0194 214.91 15.1836C214.472 15.3173 214.014 15.143 213.771 14.7848L214.417 14.8037C214.818 14.8822 215.208 14.6221 215.287 14.2218C215.367 13.8221 215.107 13.4343 214.706 13.3556L214.106 13.3381C214.172 13.3006 214.241 13.2689 214.317 13.2458Z" fill="white"/>
<path d="M65.3454 127C69.7983 127 71.958 124.79 71.958 122.204C71.958 116.525 62.8963 118.492 62.8963 115.641C62.8963 114.669 63.7201 113.873 65.8575 113.873C67.2379 113.873 68.7296 114.271 70.1768 115.088L71.29 112.37C69.8428 111.464 67.839 111 65.8797 111C61.4491 111 59.3117 113.188 59.3117 115.818C59.3117 121.564 68.3734 119.575 68.3734 122.47C68.3734 123.42 67.5051 124.127 65.3677 124.127C63.4974 124.127 61.5382 123.464 60.2246 122.514L59 125.21C60.3804 126.271 62.874 127 65.3454 127Z" fill="white"/>
<path d="M82.3038 126.735H85.9107V114.182H90.898V111.265H77.3166V114.182H82.3038V126.735Z" fill="white"/>
<path d="M101.294 123.862V120.282H108.53V117.497H101.294V114.138H109.487V111.265H97.709V126.735H109.776V123.862H101.294Z" fill="white"/>
<path d="M129.161 126.735H132.946L125.977 111.265H122.415L115.468 126.735H119.164L120.545 123.42H127.781L129.161 126.735ZM121.702 120.702L124.174 114.779L126.645 120.702H121.702Z" fill="white"/>
<path d="M157 126.735L156.955 111.265H153.994L148.25 120.878L142.417 111.265H139.433V126.735H142.817V117.652L147.382 125.099H149.007L153.594 117.453L153.616 126.735H157Z" fill="white"/>
<circle cx="170.394" cy="115.104" r="2.95504" stroke="white" stroke-width="0.7"/>
<path d="M170.405 115.397H169.684V116.638H169.278V113.57H170.293C170.639 113.57 170.904 113.649 171.09 113.806C171.276 113.964 171.37 114.193 171.37 114.493C171.37 114.684 171.318 114.851 171.214 114.992C171.111 115.134 170.968 115.24 170.784 115.311L171.505 116.613V116.638H171.071L170.405 115.397ZM169.684 115.066H170.306C170.507 115.066 170.666 115.014 170.784 114.91C170.904 114.806 170.963 114.667 170.963 114.493C170.963 114.303 170.906 114.158 170.793 114.057C170.68 113.956 170.517 113.905 170.304 113.903H169.684V115.066Z" fill="white"/>
</svg>
