<svg width="150" height="150" viewBox="0 0 150 150" fill="none" xmlns="http://www.w3.org/2000/svg">
<path d="M107.227 116.016C105.609 116.016 104.297 117.328 104.297 118.945C104.297 120.562 105.609 121.875 107.227 121.875C108.844 121.875 110.156 120.562 110.156 118.945C110.156 117.328 108.844 116.016 107.227 116.016Z" fill="#0898D7"/>
<path d="M114.44 106.542L100.515 101.901L95.5163 91.9031C100.02 87.3193 103.147 81.2543 104.201 74.9282L104.825 71.1914H110.156C115.003 71.1914 118.945 67.2486 118.945 62.4023V43.9453C118.945 19.7139 99.2314 0 75 0C50.7064 0 31.0547 19.6573 31.0547 43.9453V62.4023C31.0547 66.2215 33.5042 69.4781 36.9141 70.6875V74.1211C36.9141 78.9674 40.8568 82.9102 45.7031 82.9102H48.276C49.546 85.669 51.1898 88.2243 53.1902 90.5197C53.6051 90.9967 54.0378 91.459 54.4811 91.9087L49.4848 101.901L35.5597 106.542C19.3687 111.941 7.61719 128.986 7.61719 147.07C7.61719 148.688 8.92881 150 10.5469 150H139.453C141.071 150 142.383 148.688 142.383 147.07C142.383 128.986 130.632 111.941 114.44 106.542ZM113.086 62.4023C113.086 64.0178 111.772 65.332 110.156 65.332H105.685C106.43 59.5635 106.926 53.4249 107.125 47.3789C107.131 47.2084 107.136 47.0426 107.141 46.875H113.086V62.4023ZM39.8438 65.332C38.2283 65.332 36.9141 64.0178 36.9141 62.4023V46.875H42.8607C42.8704 47.1806 42.8807 47.4876 42.8921 47.7967C42.8924 47.8072 42.893 47.8175 42.8933 47.828C42.8933 47.8289 42.8933 47.8298 42.8933 47.8307C43.0983 53.7111 43.5882 59.6903 44.3159 65.3317H39.8438V65.332ZM45.7031 77.0508C44.0877 77.0508 42.7734 75.7365 42.7734 74.1211V71.1914H45.1752L45.7986 74.9294C45.9176 75.6398 46.0638 76.3477 46.2328 77.0508H45.7031ZM42.7784 41.0156H37.0254C38.5093 21.3806 54.8956 5.85938 75 5.85938C95.015 5.85938 111.473 21.3785 112.974 41.0156H107.222C107.011 24.8358 93.8353 11.7188 77.6224 11.7188H72.3782C56.1656 11.7188 42.9891 24.8358 42.7784 41.0156ZM72.3779 17.5781H77.6221C90.7497 17.5781 101.375 28.3157 101.367 41.4287C101.367 42.3507 101.36 43.1534 101.344 43.8838C101.344 43.8932 101.344 43.9028 101.344 43.9125L97.6796 43.389C87.7245 41.9675 78.3249 37.2677 71.2122 30.155C70.6626 29.6057 69.9176 29.2969 69.1406 29.2969C61.2727 29.2969 53.741 32.8816 48.7623 38.9379C49.9893 27.0085 60.0741 17.5781 72.3779 17.5781ZM52.3066 77.0508C50.84 72.172 49.1619 57.8165 48.791 48.6173L52.7341 43.3597C56.3555 38.5327 61.9896 35.5336 67.9828 35.1894C75.8687 42.694 86.0704 47.6499 96.8511 49.1892L101.164 49.8056C100.876 55.9242 100.287 62.0643 99.4427 67.7112C99.4424 67.713 99.4421 67.715 99.4418 67.7171C99.1734 69.5326 98.9619 70.701 98.4217 73.9644C96.8701 83.2705 89.9262 91.686 80.7595 93.9779C76.9869 94.9198 73.0125 94.9195 69.242 93.9779C63.5183 92.5471 58.27 88.5867 54.883 82.9102H60.8555C62.0648 86.32 65.3212 88.7695 69.1406 88.7695H75C79.856 88.7695 83.7891 84.8367 83.7891 79.9805C83.7891 75.1342 79.8463 71.1914 75 71.1914H69.1406C65.2362 71.1914 62.0279 73.7133 60.8505 77.0508H52.3066ZM68.8942 99.907C70.9037 100.33 72.9524 100.547 75 100.547C76.6028 100.547 78.206 100.413 79.7909 100.153L74.6142 105.627L68.8942 99.907ZM70.5864 109.886L61.294 119.713C58.7358 114.817 56.5377 109.72 54.7348 104.503L58.2243 97.524L70.5864 109.886ZM91.2791 96.5314L95.2647 104.503C93.4588 109.729 91.2601 114.827 88.7045 119.718L78.7588 109.772L91.2791 96.5314ZM66.2109 79.9805C66.2109 78.363 67.5229 77.0508 69.1406 77.0508H75C76.6154 77.0508 77.9297 78.365 77.9297 79.9805C77.9297 81.5982 76.6175 82.9102 75 82.9102H69.1406C67.5252 82.9102 66.2109 81.5959 66.2109 79.9805ZM13.5938 144.141C14.7548 129.627 24.4137 116.435 37.4127 112.101L49.7449 107.991C52.0043 114.238 54.8033 120.311 58.0837 126.079C58.0893 126.089 58.0945 126.099 58.1001 126.108C58.1001 126.109 58.1004 126.109 58.1004 126.109C60.4972 130.325 63.1948 134.444 66.1195 138.355L69.7236 144.141H13.5938ZM75 141.529L71.0268 135.15C70.9822 135.079 70.9348 135.009 70.8844 134.942C68.5119 131.777 66.2988 128.468 64.2832 125.08L74.7313 114.031L85.7405 125.04C83.7114 128.452 81.4907 131.776 79.1162 134.941C78.9727 135.133 79.1763 134.831 75 141.529ZM80.2764 144.141L83.8802 138.355C86.8178 134.429 89.5348 130.277 91.9556 126.012C91.9702 125.986 91.984 125.96 91.9986 125.934C92.0004 125.931 92.0022 125.928 92.0039 125.924C95.2427 120.212 98.0124 114.192 100.255 107.991L112.587 112.101C125.586 116.435 135.245 129.627 136.406 144.141H80.2764Z" fill="#0898D7"/>
<path d="M127.601 132.285C125.643 128.366 122.776 124.884 119.308 122.216C118.025 121.229 116.186 121.469 115.199 122.752C114.213 124.034 114.453 125.874 115.735 126.86C118.505 128.991 120.795 131.772 122.359 134.903C123.084 136.353 124.845 136.937 126.289 136.215C127.737 135.492 128.324 133.732 127.601 132.285Z" fill="#0898D7"/>
</svg>
