<svg width="23" height="23" viewBox="0 0 23 23" fill="none" xmlns="http://www.w3.org/2000/svg">
<path d="M3.06228 20.0811C3.22696 20.171 7.14595 22.2813 11.5 22.2813C16.2172 22.2813 19.8003 20.1639 19.9505 20.0738C20.0037 20.0419 20.0478 19.9967 20.0784 19.9427C20.1089 19.8887 20.125 19.8277 20.125 19.7657C20.125 16.864 19.2352 14.2088 17.6197 12.2888C16.4895 10.9456 15.0715 10.0301 13.5076 9.60864C14.4649 9.15304 15.2388 8.38536 15.7022 7.43173C16.1655 6.4781 16.2907 5.39523 16.0571 4.36104C15.8236 3.32685 15.2452 2.40284 14.4171 1.74084C13.5889 1.07884 12.5602 0.718216 11.5 0.718216C10.4398 0.718216 9.41107 1.07884 8.58291 1.74084C7.75475 2.40284 7.1764 3.32685 6.94287 4.36104C6.70933 5.39523 6.83452 6.4781 7.29784 7.43173C7.76117 8.38536 8.53509 9.15304 9.49244 9.60864C7.92849 10.0301 6.51048 10.9457 5.38034 12.2888C3.76477 14.2088 2.875 16.864 2.875 19.7657C2.875 19.8302 2.89239 19.8936 2.92535 19.9491C2.9583 20.0046 3.0056 20.0502 3.06228 20.0811V20.0811ZM7.54688 5.39065C7.54688 4.6088 7.77872 3.8445 8.2131 3.19441C8.64747 2.54432 9.26487 2.03764 9.9872 1.73844C10.7095 1.43924 11.5044 1.36095 12.2712 1.51348C13.038 1.66602 13.7424 2.04252 14.2953 2.59537C14.8481 3.14822 15.2246 3.8526 15.3772 4.61944C15.5297 5.38627 15.4514 6.18111 15.1522 6.90345C14.853 7.62579 14.3463 8.24318 13.6962 8.67755C13.0461 9.11193 12.2819 9.34378 11.5 9.34378C10.4519 9.34259 9.44713 8.92572 8.70603 8.18462C7.96493 7.44352 7.54806 6.43872 7.54688 5.39065V5.39065ZM5.93027 12.7515C7.38965 11.0175 9.36747 10.0625 11.5 10.0625C13.6325 10.0625 15.6104 11.0175 17.0697 12.7515C18.5378 14.4962 19.3633 16.9059 19.4046 19.556C18.6356 19.9723 15.44 21.5625 11.5 21.5625C7.85639 21.5625 4.4248 19.9629 3.59555 19.5475C3.63867 16.9007 4.46375 14.4943 5.93027 12.7515Z" fill="black"/>
</svg>
