<svg width="21" height="21" viewBox="0 0 21 21" fill="none" xmlns="http://www.w3.org/2000/svg">
<g clip-path="url(#clip0)">
<path d="M0.269231 10.6346H1.63782C1.12039 11.3853 0.843625 12.2758 0.844327 13.1874C0.844151 15.5861 2.73718 17.5557 5.07051 17.7126V19.3801C5.0756 20.027 5.60039 20.5492 6.24717 20.5513H14.7527C15.3994 20.5492 15.9242 20.027 15.9295 19.3801V10.6346H20.7308C20.8021 10.6348 20.8706 10.6066 20.9211 10.5561C20.9716 10.5058 21 10.4374 21 10.3661V0.722511C21.0003 0.572821 20.8803 0.450826 20.7308 0.448723H0.269231C0.119717 0.450826 -0.000349795 0.572821 7.65697e-07 0.722511V10.3661C7.65697e-07 10.4374 0.0283962 10.5058 0.0788769 10.5561C0.129358 10.6066 0.197892 10.6348 0.269231 10.6346ZM1.3877 13.1878C1.3877 10.9804 3.17713 9.19084 5.38462 9.19084C7.5921 9.19084 9.38153 10.9803 9.38153 13.1878C9.38153 15.3952 7.5921 17.1847 5.38462 17.1847C3.17819 17.1822 1.39033 15.3942 1.3877 13.1878ZM15.6501 5.29488H5.34973C5.2011 5.29488 5.07051 5.39549 5.07051 5.54413V7.76283H2.78205V3.32052H18.2179V7.76283H15.9295V5.54413C15.9295 5.39549 15.7987 5.29488 15.6501 5.29488ZM13.1026 5.83334V20.0128H11.4872V5.83334H13.1026ZM5.60897 19.3801V17.7172C8.01961 17.5924 9.91018 15.6015 9.91018 13.1878C9.91018 10.774 8.01961 8.78313 5.60897 8.65833V5.83334H10.9487V20.0128H6.24717C5.89766 20.0111 5.61388 19.7297 5.60897 19.3801ZM15.391 19.3801C15.3861 19.7297 15.1022 20.0111 14.7527 20.0128H13.641V5.83334H15.391V19.3801ZM0.538462 0.987184H20.4615V10.0962H15.9295V8.30129H18.5037C18.6523 8.30129 18.7564 8.17684 18.7564 8.0282V3.06023C18.7564 2.91159 18.6523 2.78206 18.5037 2.78206H2.49634C2.34771 2.78206 2.24359 2.91176 2.24359 3.06023V8.0282C2.24359 8.17684 2.34771 8.30129 2.49634 8.30129H5.07051V8.66272C3.90385 8.74159 2.83271 9.28847 2.06884 10.0962H0.538462V0.987184Z" fill="black"/>
</g>
<defs>
<clipPath id="clip0">
<rect width="21" height="21" fill="white"/>
</clipPath>
</defs>
</svg>
